Utopia-Italic.sfdir
StartChar: exclam
Encoding: 33 33 1
Width: 240
Flags: MW
HStem: -12 125<115 145.5> 687 20G<249.5 303.5>
VStem: 69 122<36 65.5>
LayerCount: 2
Fore
SplineSet
276 707 m 0
 331 707 331 679 318 639 c 2
 178 209 l 1
 150 209 l 1
 205 644 l 2
 210 680 223 707 276 707 c 0
126 -12 m 0
 90 -12 69 13 69 45 c 0
 69 86 96 113 134 113 c 0
 170 113 191 87 191 57 c 0
 191 15 165 -12 126 -12 c 0
EndSplineSet
EndChar
StartChar: quotedbl
Encoding: 34 34 2
Width: 402
Flags: MW
HStem: 722 20G<254 294 424 464>
VStem: 212 107 382 107
LayerCount: 2
Fore
SplineSet
484 690 m 2
 404 469 l 1
 376 469 l 1
 388 690 l 2
 391 725 405 742 443 742 c 0
 485 742 497 725 484 690 c 2
314 690 m 2
 234 469 l 1
 206 469 l 1
 218 690 l 2
 221 725 235 742 273 742 c 0
 315 742 327 725 314 690 c 2
EndSplineSet
EndChar
StartChar: numbersign
Encoding: 35 35 3
Width: 530
Flags: MW
HStem: 0 21G<112 169 112 112 301 357 301 301> 231 48<106 193 89 210 267 382 106 250 455 543> 410 48<168 256 151 273 330 445 168 313 518 605> 648 20G<347 403 403 403 536 591 591 591>
VStem: 89 531<231 458>
LayerCount: 2
Fore
SplineSet
267 279 m 1
 399 279 l 1
 445 410 l 1
 313 410 l 1
 267 279 l 1
543 231 m 1
 438 231 l 1
 357 0 l 1
 301 0 l 1
 382 231 l 1
 250 231 l 1
 169 0 l 1
 112 0 l 1
 193 231 l 1
 89 231 l 1
 106 279 l 1
 210 279 l 1
 256 410 l 1
 151 410 l 1
 168 458 l 1
 273 458 l 1
 347 668 l 1
 403 668 l 1
 330 458 l 1
 462 458 l 1
 536 668 l 1
 591 668 l 1
 518 458 l 1
 620 458 l 1
 605 410 l 1
 501 410 l 1
 455 279 l 1
 558 279 l 1
 543 231 l 1
EndSplineSet
EndChar
StartChar: dollar
Encoding: 36 36 4
Width: 530
Flags: W
HStem: -109 144<218 292 218 292> 0 21G<283 283> 0 35<283 292> 631 35<429 437> 633 110<346.5 454> 648 20G<396 396>
VStem: 171 80<483 540> 440 86<137 199>
LayerCount: 2
Fore
SplineSet
334 403 m 1x47
 388 633 l 1x4b
 305 633 251 586 251 512 c 0
 251 454 284 428 334 403 c 1x47
454 743 m 1
 437 666 l 1
 516 659 587 618 586 560 c 0
 585 532 559 515 538 515 c 0
 521 515 514 525 510 541 c 0
 496 596 467 625 429 631 c 1
 372 386 l 1
 455 348 526 299 526 195 c 0
 526 79 430 -2 283 0 c 1x53
 260 -109 l 1
 218 -109 l 1
 243 2 l 1
 136 9 65 64 66 120 c 0
 67 150 90 170 113 170 c 0
 129 170 136 161 141 146 c 0
 168 65 212 42 250 37 c 1
 314 316 l 1
 208 360 171 414 171 482 c 0
 171 598 267 669 396 668 c 1x87
 414 743 l 1
 454 743 l 1
351 298 m 1
 292 35 l 1x27
 380 32 440 86 440 169 c 0
 440 229 410 270 351 298 c 1
EndSplineSet
EndChar
StartChar: percent
Encoding: 37 37 5
Width: 826
Flags: W
HStem: -12 30<607 682 607 709> 314 30<245 320 245 347> 324 30<649.5 721> 597 34<486 665 486 679 463 665> 650 30<287.5 359> 682 20G<775 775>
VStem: 133 77<414.5 448.5 408.5 490> 391 77<547 551.5 502 585.5> 495 77<88.5 122.5 82.5 164> 753 77<221 255 176 259.5>
LayerCount: 2
Fore
SplineSet
694 324 m 0xebc0
 605 324 572 147 572 98 c 0
 572 67 579 18 635 18 c 0
 729 18 753 198 753 244 c 0
 753 275 748 324 694 324 c 0xebc0
695 354 m 0xabc0
 788 354 830 293 830 217 c 0
 830 135 784 -12 634 -12 c 0
 531 -12 495 56 495 121 c 0
 495 207 547 354 695 354 c 0xabc0
805 678 m 1xcb40
 200 -25 l 1
 169 3 l 1
 679 597 l 1
 463 597 l 1xdb40
 467 582 468 560 468 543 c 0
 468 461 422 314 272 314 c 0
 169 314 133 382 133 447 c 0
 133 533 185 680 333 680 c 0xcb40
 385 680 420 659 440 644 c 0
 451 635 460 631 486 631 c 2
 665 631 l 2
 698 633 722 649 750 677 c 2
 775 702 l 1xd740
 805 678 l 1xcb40
332 650 m 0xcb40
 243 650 210 473 210 424 c 0
 210 393 217 344 273 344 c 0
 367 344 391 524 391 570 c 0
 391 601 386 650 332 650 c 0xcb40
EndSplineSet
EndChar
StartChar: ampersand
Encoding: 38 38 6
Width: 725
Flags: W
HStem: -12 49<284.5 324> -7 25<730 734> 645 35<389 437>
VStem: 95 95<138.5 223.5> 242 80<505 551.5> 483 78<526 583.5> 653 85
LayerCount: 2
Fore
SplineSet
322 524 m 0xbe
 322 486 336 435 358 401 c 1
 423 432 483 488 483 564 c 0
 483 603 463 645 411 645 c 0
 367 645 322 600 322 524 c 0xbe
417 680 m 0
 495 680 561 635 561 552 c 0
 561 456 472 415 373 375 c 1
 408 312 468 231 535 159 c 1
 621 248 646 340 653 417 c 1
 680 430 706 436 730 433 c 1
 745 389 738 361 723 330 c 0
 688 266 640 207 557 133 c 1
 600 94 659 31 734 18 c 1
 730 -7 l 1
 680 -5 l 2x7e
 601 -2 546 29 498 75 c 1
 423 13 362 -12 286 -12 c 0
 156 -12 95 76 95 162 c 0
 95 285 204 335 277 369 c 1
 257 403 242 459 242 493 c 0
 242 610 325 680 417 680 c 0
190 172 m 0
 190 105 242 37 327 37 c 0
 385 37 437 64 475 99 c 1
 403 174 341 258 293 339 c 1
 265 327 190 276 190 172 c 0
EndSplineSet
EndChar
StartChar: quotesingle
Encoding: 169 39 103
Width: 216
Flags: MW
HStem: 722 20G<244 284>
VStem: 202 107
LayerCount: 2
Fore
SplineSet
304 690 m 2
 224 469 l 1
 196 469 l 1
 208 690 l 2
 211 725 225 742 263 742 c 0
 305 742 317 725 304 690 c 2
EndSplineSet
EndChar
StartChar: parenleft
Encoding: 40 40 8
Width: 350
Flags: MW
HStem: 667 25<488 493>
VStem: 141 67
LayerCount: 2
Fore
SplineSet
493 692 m 1
 488 667 l 1
 395 652 288 554 231 306 c 0
 167 28 254 -92 309 -105 c 1
 303 -128 l 1
 167 -118 108 68 160 301 c 0
 212 536 323 698 493 692 c 1
EndSplineSet
EndChar
StartChar: parenright
Encoding: 41 41 9
Width: 350
Flags: W
HStem: -128 23<-11 -6> 667 25<173 179> 672 20G<179 179>
VStem: 274 67
LayerCount: 2
Fore
SplineSet
-11 -128 m 1xb0
 -6 -105 l 1
 87 -90 194 10 251 258 c 0
 315 536 228 654 173 667 c 1xd0
 179 692 l 1
 315 682 374 496 322 263 c 0
 270 28 159 -134 -11 -128 c 1xb0
EndSplineSet
EndChar
StartChar: asterisk
Encoding: 42 42 10
Width: 412
Flags: W
HStem: 509 19 687 20G<337.5 366>
VStem: 249 71 312 73
LayerCount: 2
Fore
SplineSet
231 639 m 2xe0
 299 569 l 2
 307 561 314 565 314 578 c 2
 312 676 l 2
 312 696 322 707 353 707 c 0
 379 707 391 695 381 675 c 2
 337 578 l 2
 331 564 338 560 350 569 c 2
 441 640 l 2
 459 653 474 651 486 629 c 0
 500 604 493 589 474 583 c 2
 355 544 l 2
 341 539 336 530 348 526 c 2
 444 487 l 2
 461 480 464 461 446 439 c 0
 430 419 415 415 400 432 c 2xd0
 337 503 l 2
 327 514 320 505 320 494 c 2
 322 389 l 2
 323 364 307 356 282 356 c 0
 251 356 243 373 253 396 c 2
 297 494 l 2
 303 506 298 515 283 503 c 2
 199 432 l 2
 175 412 158 417 146 441 c 0
 136 463 140 479 163 487 c 2
 283 528 l 2
 295 532 295 541 282 546 c 2
 196 577 l 2
 171 586 171 607 185 627 c 0
 203 652 219 651 231 639 c 2xe0
EndSplineSet
EndChar
StartChar: plus
Encoding: 43 43 11
Width: 570
Flags: MW
HStem: 0 21G<301 369 301 301> 221 58<93 301 93 301 369 577> 470 20G<301 369 369 369>
VStem: 301 68<0 221 0 221 279 490>
LayerCount: 2
Fore
SplineSet
93 221 m 1
 93 279 l 1
 301 279 l 1
 301 490 l 1
 369 490 l 1
 369 279 l 1
 577 279 l 1
 577 221 l 1
 369 221 l 1
 369 0 l 1
 301 0 l 1
 301 221 l 1
 93 221 l 1
EndSplineSet
EndChar
StartChar: comma
Encoding: 44 44 12
Width: 265
Flags: MW
HStem: -134 276<63 150>
VStem: 117 91
LayerCount: 2
Fore
SplineSet
63 -134 m 1
 46 -116 l 1
 82 -81 113 -41 117 -1 c 0
 119 20 113 34 106 49 c 0
 101 61 94 74 94 89 c 0
 94 117 118 142 150 142 c 0
 187 144 208 106 208 74 c 0
 208 -16 125 -82 63 -134 c 1
EndSplineSet
EndChar
StartChar: hyphen
Encoding: 45 45 13
Width: 392
Flags: MW
HStem: 216 70<131 362 117 376>
VStem: 117 259<216 286>
LayerCount: 2
Fore
SplineSet
131 286 m 1
 376 286 l 1
 362 216 l 1
 117 216 l 1
 131 286 l 1
EndSplineSet
EndChar
StartChar: period
Encoding: 46 46 14
Width: 265
Flags: MW
HStem: -12 125<128 158.5>
VStem: 82 122<36 65.5>
LayerCount: 2
Fore
SplineSet
139 -12 m 0
 103 -12 82 13 82 45 c 0
 82 86 109 113 147 113 c 0
 183 113 204 87 204 57 c 0
 204 15 178 -12 139 -12 c 0
EndSplineSet
EndChar
StartChar: slash
Encoding: 47 47 15
Width: 270
Flags: MW
HStem: -15 21G<35 106 35 35> 687 20G<305 376 376 376>
VStem: 35 341
LayerCount: 2
Fore
SplineSet
106 -15 m 1
 35 -15 l 1
 305 707 l 1
 376 707 l 1
 106 -15 l 1
EndSplineSet
EndChar
StartChar: zero
Encoding: 48 48 16
Width: 530
Flags: MW
HStem: -12 35<251.5 321 251.5 332.5> 645 35<362.5 433>
VStem: 95 90<150 192 111.5 256> 486 90<489 504 425 546>
LayerCount: 2
Fore
SplineSet
185 162 m 0
 185 61 224 23 279 23 c 0
 363 23 408 127 441 240 c 0
 474 350 486 472 486 506 c 0
 486 586 468 645 398 645 c 0
 327 645 272 556 236 444 c 0
 200 335 185 222 185 162 c 0
397 680 m 0
 557 680 576 547 576 461 c 0
 576 389 557 262 507 161 c 0
 455 52 386 -12 279 -12 c 0
 138 -12 95 96 95 204 c 0
 95 308 122 426 168 512 c 0
 222 612 294 680 397 680 c 0
EndSplineSet
EndChar
StartChar: one
Encoding: 49 49 17
Width: 530
Flags: W
HStem: 0 31.5 654 20G<464 464> 660 20G<456 456>
VStem: 109 355
LayerCount: 2
Fore
SplineSet
109 0 m 1xb0
 115 29 l 1
 206 36 l 2
 223 37 234 48 239 72 c 2
 352 578 l 2
 356 597 354 609 340 611 c 2
 243 621 l 1
 251 645 l 1
 456 680 l 1
 464 674 l 1xd0
 328 72 l 2
 322 44 333 35 349 34 c 2
 438 29 l 1
 432 0 l 1
 109 0 l 1xb0
EndSplineSet
EndChar
StartChar: two
Encoding: 50 50 18
Width: 530
Flags: MW
HStem: 0 74<135 385 385 407 135 453> 645 35<352.5 420>
VStem: 473 100<481.5 555.5>
LayerCount: 2
Fore
SplineSet
453 0 m 1
 44 0 l 1
 33 10 l 1
 60 88 114 160 266 264 c 0
 406 359 473 433 473 530 c 0
 473 581 461 645 379 645 c 0
 326 645 278 605 245 512 c 0
 241 499 235 487 216 487 c 0
 194 487 167 506 167 535 c 0
 167 592 250 680 381 680 c 0
 490 680 573 627 573 516 c 0
 573 389 467 333 345 262 c 0
 231 196 166 137 135 74 c 1
 385 74 l 2
 429 74 443 82 477 131 c 1
 507 125 l 1
 453 0 l 1
EndSplineSet
EndChar
StartChar: three
Encoding: 51 51 19
Width: 530
Flags: W
HStem: -12 35<234 297 234 328> 350 38<297 354.5> 645 35<341 408>
VStem: 417 104<147 246> 461 98<499.5 561.5>
LayerCount: 2
Fore
SplineSet
311 350 m 0xf0
 269 350 233 340 220 340 c 0
 204 340 201 350 201 362 c 0
 201 379 210 399 223 399 c 0
 241 399 274 388 320 388 c 0
 400 388 461 457 461 542 c 0
 461 581 448 645 368 645 c 0
 314 645 275 604 250 540 c 0
 242 521 233 513 219 513 c 0
 202 513 175 528 175 559 c 0
 175 615 261 680 373 680 c 0
 453 680 559 648 559 531 c 0xe8
 559 422 458 380 382 374 c 1
 382 371 l 1
 440 363 521 319 521 213 c 0
 521 58 394 -12 262 -12 c 0
 120 -12 54 63 54 111 c 0
 54 144 82 166 105 166 c 0
 121 166 129 155 135 135 c 0
 156 55 203 23 265 23 c 0
 329 23 417 71 417 223 c 0
 417 269 398 350 311 350 c 0xf0
EndSplineSet
EndChar
StartChar: four
Encoding: 52 52 20
Width: 530
Flags: MW
HStem: 0 31.5 187 46<151 351 446 534> 648 20G<469 537 537 537>
VStem: 67 477<206 233>
LayerCount: 2
Fore
SplineSet
534 187 m 1
 436 187 l 1
 411 67 l 2
 406 43 411 33 431 32 c 2
 481 29 l 1
 474 0 l 1
 210 0 l 1
 218 29 l 1
 292 34 l 2
 308 35 321 42 326 67 c 2
 351 187 l 1
 76 187 l 1
 67 206 l 1
 196 367 329 526 469 668 c 1
 537 668 l 1
 446 233 l 1
 544 233 l 1
 534 187 l 1
151 233 m 1
 361 233 l 1
 434 573 l 1
 432 575 l 1
 333 469 239 351 151 233 c 1
EndSplineSet
EndChar
StartChar: five
Encoding: 53 53 21
Width: 530
Flags: W
HStem: -12 35<240 312 240 340.5> 381 46<322.5 349> 594 74<286.5 295 295 543> 657 11<239 585>
VStem: 431 104<170 276.5>
LayerCount: 2
Fore
SplineSet
239 668 m 1xe8
 580 668 l 1
 585 657 l 1xd8
 543 594 l 1
 295 594 l 2
 278 594 269 592 263 570 c 2
 209 383 l 1
 211 381 l 1
 246 409 300 427 345 427 c 0
 462 427 535 358 535 242 c 0
 535 98 417 -12 264 -12 c 0
 126 -12 59 56 59 108 c 0
 59 140 86 164 112 164 c 0
 126 164 135 153 140 135 c 0
 162 52 209 23 271 23 c 0
 353 23 431 106 431 230 c 0
 431 323 386 381 312 381 c 0
 259 381 215 357 180 315 c 1
 156 327 l 1
 229 660 l 1
 239 668 l 1xe8
EndSplineSet
EndChar
StartChar: six
Encoding: 54 54 22
Width: 530
Flags: MW
HStem: -12 35<247.5 334.5 247.5 380.5> 371 49 645 35<376 435>
VStem: 91 93<149 232 140 278> 448 97<181 284>
LayerCount: 2
Fore
SplineSet
297 -12 m 0
 141 -12 91 91 91 207 c 0
 91 349 143 503 213 585 c 0
 268 649 339 680 413 680 c 0
 546 680 586 610 586 572 c 0
 586 544 555 526 533 526 c 0
 514 526 507 537 504 554 c 0
 492 613 460 645 410 645 c 0
 315 645 239 532 199 338 c 1
 201 338 l 1
 237 377 302 422 368 420 c 0
 485 422 545 343 545 239 c 0
 545 123 464 -12 297 -12 c 0
338 371 m 0
 243 371 184 296 184 168 c 0
 184 112 199 23 296 23 c 0
 373 23 448 103 448 247 c 0
 448 321 406 371 338 371 c 0
EndSplineSet
EndChar
StartChar: seven
Encoding: 55 55 23
Width: 530
Flags: W
HStem: -12 21G<210 244> 594 74<271 297 297 538> 657 11<207 635>
VStem: 165 470<530 657>
LayerCount: 2
Fore
SplineSet
207 668 m 1xd0
 627 668 l 1
 635 657 l 1xb0
 582 531 515 468 423 355 c 0
 350 267 305 179 280 29 c 0
 275 -3 262 -12 226 -12 c 0
 194 -12 178 2 178 25 c 0
 178 98 224 192 392 383 c 0
 477 479 521 547 538 594 c 1
 297 594 l 2
 245 594 226 580 211 556 c 2
 195 530 l 1
 165 530 l 1
 207 668 l 1xd0
EndSplineSet
EndChar
StartChar: eight
Encoding: 56 56 24
Width: 530
Flags: W
HStem: -12 35<258.5 342.5 258.5 374> 343 38<325 362.5> 645 35<347 422>
VStem: 81 96<115.5 202.5 111 220> 178 89<467 511 452 560.5> 440 96<168 253 145.5 259> 481 89<504.5 564 481 578>
LayerCount: 2
Fore
SplineSet
328 343 m 0xf4
 238 343 177 254 177 151 c 0
 177 71 221 23 296 23 c 0
 389 23 440 115 440 221 c 0
 440 297 397 343 328 343 c 0xf4
387 680 m 0xea
 526 680 570 598 570 530 c 0xf2
 570 432 501 382 431 368 c 1
 431 365 l 1
 474 350 536 299 536 207 c 0
 536 84 456 -12 292 -12 c 0
 143 -12 81 72 81 159 c 0xf4
 81 281 166 359 260 370 c 1
 260 374 l 1
 215 393 178 434 178 500 c 0
 178 621 281 680 387 680 c 0xea
391 645 m 0
 303 645 267 545 267 477 c 0
 267 427 291 381 359 381 c 0xea
 426 381 481 455 481 554 c 0
 481 602 453 645 391 645 c 0
EndSplineSet
EndChar
StartChar: nine
Encoding: 57 57 25
Width: 530
Flags: MW
HStem: -12 35<242 297.5 242 307> 266 50<303 340.5> 645 35<325 408>
VStem: 133 93<416.5 514> 476 95
LayerCount: 2
Fore
SplineSet
310 266 m 0
 210 266 133 334 133 439 c 0
 133 589 242 680 363 680 c 0
 514 680 573 574 571 426 c 1
 565 283 529 167 464 86 c 0
 413 22 351 -12 263 -12 c 0
 150 -12 86 51 86 96 c 0
 86 132 114 152 135 152 c 0
 151 152 159 141 164 122 c 0
 183 51 218 23 266 23 c 0
 329 23 373 69 406 138 c 0
 440 210 457 278 466 338 c 1
 464 338 l 1
 419 293 371 266 310 266 c 0
350 316 m 0
 425 316 476 372 476 459 c 0
 476 561 455 645 361 645 c 0
 289 645 226 579 226 452 c 0
 226 381 256 316 350 316 c 0
EndSplineSet
EndChar
StartChar: colon
Encoding: 58 58 26
Width: 265
Flags: W
HStem: -12 125<128 158.5> 365 125<207 237.5>
VStem: 82 122<36 65.5> 161 122<413 442.5>
LayerCount: 2
Fore
SplineSet
139 -12 m 0xe0
 103 -12 82 13 82 45 c 0
 82 86 109 113 147 113 c 0
 183 113 204 87 204 57 c 0
 204 15 178 -12 139 -12 c 0xe0
218 365 m 0xd0
 182 365 161 390 161 422 c 0
 161 463 188 490 226 490 c 0
 262 490 283 464 283 434 c 0
 283 392 257 365 218 365 c 0xd0
EndSplineSet
EndChar
StartChar: semicolon
Encoding: 59 59 27
Width: 265
Flags: W
HStem: 365 125<207 237.5>
VStem: 117 91 161 122<413 442.5>
LayerCount: 2
Fore
SplineSet
63 -134 m 1xa0
 46 -116 l 1
 82 -81 113 -41 117 -1 c 0
 119 20 113 34 106 49 c 0
 101 61 94 74 94 89 c 0
 94 117 118 142 150 142 c 0
 187 144 208 106 208 74 c 0xc0
 208 -16 125 -82 63 -134 c 1xa0
218 365 m 0xa0
 182 365 161 390 161 422 c 0
 161 463 188 490 226 490 c 0
 262 490 283 464 283 434 c 0
 283 392 257 365 218 365 c 0xa0
EndSplineSet
EndChar
StartChar: less
Encoding: 60 60 28
Width: 570
Flags: MW
HStem: 477 20G<564 564>
VStem: 86 59<248 248 248 288 248 288>
LayerCount: 2
Fore
SplineSet
564 68 m 1
 564 1 l 1
 86 207 l 1
 86 288 l 1
 564 497 l 1
 564 428 l 1
 145 248 l 1
 564 68 l 1
EndSplineSet
EndChar
StartChar: equal
Encoding: 61 61 29
Width: 570
Flags: MW
HStem: 111 58<93 577 93 577> 331 58<93 577 93 577>
VStem: 93 484<111 169 111 169 331 389 111 389>
LayerCount: 2
Fore
SplineSet
93 389 m 1
 577 389 l 1
 577 331 l 1
 93 331 l 1
 93 389 l 1
93 169 m 1
 577 169 l 1
 577 111 l 1
 93 111 l 1
 93 169 l 1
EndSplineSet
EndChar
StartChar: greater
Encoding: 62 62 30
Width: 570
Flags: MW
HStem: 477 20G<86 86>
VStem: 505 59<248 248>
LayerCount: 2
Fore
SplineSet
86 1 m 1
 86 68 l 1
 505 248 l 1
 86 428 l 1
 86 497 l 1
 564 288 l 1
 564 207 l 1
 86 1 l 1
EndSplineSet
EndChar
StartChar: question
Encoding: 63 63 31
Width: 425
Flags: W
HStem: -12 125<196 226.5> 199 45<239 322> 672 35<314.5 359.5>
VStem: 150 122<36 65.5> 160 89<280.5 308.5> 398 93<567.5 617.5 537.5 619.5>
LayerCount: 2
Fore
SplineSet
334 707 m 0xf4
 431 707 491 655 491 580 c 0
 491 495 440 460 363 421 c 0
 298 388 249 354 249 302 c 0
 249 259 280 244 313 244 c 0
 331 244 344 246 356 247 c 1
 362 230 l 1
 340 214 298 199 264 199 c 0
 214 199 160 223 160 285 c 0xec
 160 332 195 368 264 408 c 0
 359 464 398 536 398 599 c 0
 398 640 380 672 339 672 c 0
 290 672 261 624 239 568 c 0
 235 557 225 549 208 549 c 0
 192 549 164 564 164 593 c 0
 164 634 222 707 334 707 c 0xf4
207 -12 m 0
 171 -12 150 13 150 45 c 0
 150 86 177 113 215 113 c 0
 251 113 272 87 272 57 c 0
 272 15 246 -12 207 -12 c 0
EndSplineSet
EndChar
StartChar: at
Encoding: 64 64 32
Width: 794
Flags: MW
HStem: -15 39<380.5 495> 172 38<630 665.5> 504 29<500.5 563> 666 41<427.5 599>
VStem: 123 78<245.5 398.5 245.5 430> 300 82<253.5 292> 537 69 782 50<357.5 409>
LayerCount: 2
Fore
SplineSet
416 219 m 0
 487 219 581 397 600 490 c 1
 585 500 573 504 553 504 c 0
 448 504 382 331 382 270 c 0
 382 237 394 219 416 219 c 0
611 528 m 1
 676 528 l 1
 610 270 l 2
 598 222 616 210 644 210 c 0
 711 210 782 306 782 409 c 0
 785 573 670 666 528 666 c 0
 327 666 201 490 201 307 c 0
 201 184 267 24 492 24 c 0
 550 24 616 36 661 55 c 1
 669 30 l 1
 607 -4 526 -15 464 -15 c 0
 297 -15 123 87 123 303 c 0
 123 557 320 707 526 707 c 0
 716 707 832 576 832 414 c 0
 832 277 724 172 607 172 c 0
 547 172 517 203 551 309 c 1
 549 310 l 1
 521 260 442 170 366 172 c 0
 336 173 300 190 300 255 c 0
 300 329 374 533 552 533 c 0
 575 533 588 530 607 520 c 1
 611 528 l 1
EndSplineSet
EndChar
StartChar: A
Encoding: 65 65 33
Width: 624
Flags: MW
HStem: 0 31.5 267 38<263 462 263 467 243 462> 672 20G<435 506 506 506>
VStem: -23 681<0 29>
LayerCount: 2
Fore
SplineSet
652 0 m 1
 406 0 l 1
 412 29 l 1
 465 34 l 2
 485 36 493 44 490 73 c 2
 467 267 l 1
 243 267 l 1
 206 200 173 135 140 71 c 0
 131 50 133 36 153 34 c 2
 208 29 l 1
 202 0 l 1
 -23 0 l 1
 -17 29 l 1
 16 33 l 2
 47 36 64 47 96 99 c 0
 133 159 216 308 267 397 c 2
 435 692 l 1
 506 692 l 1
 580 90 l 2
 585 49 589 35 620 32 c 2
 658 29 l 1
 652 0 l 1
462 305 m 1
 427 599 l 1
 425 599 l 1
 371 502 316 404 263 305 c 1
 462 305 l 1
EndSplineSet
EndChar
StartChar: B
Encoding: 66 66 34
Width: 632
Flags: W
HStem: 0 32 0 35<100 100 286.5 342> 355 35<306 338 299 371> 657 35<239 239 404.5 427 186 480>
VStem: 524 108<168.5 259.5 165.5 270> 569 102<519.5 567 503 580>
LayerCount: 2
Fore
SplineSet
306 390 m 1x78
 371 390 l 2
 425 390 477 402 510 427 c 0
 545 455 569 494 569 545 c 0x74
 569 615 522 657 438 657 c 0
 371 657 366 652 359 622 c 2
 306 390 l 1x78
338 355 m 2
 299 355 l 1
 242 99 l 2
 233 60 237 35 336 35 c 0
 470 35 524 124 524 213 c 0x78
 524 327 437 355 338 355 c 2
38 0 m 1
 44 29 l 1
 100 35 l 2
 124 38 135 50 142 83 c 2
 260 609 l 2
 268 643 262 655 239 657 c 2
 180 663 l 1
 186 692 l 1
 427 692 l 2
 499 693 564 686 608 659 c 0
 650 634 671 593 671 541 c 0xb4
 671 465 615 391 482 375 c 1
 481 372 l 1
 554 358 632 312 632 207 c 0
 632 124 584 0 342 0 c 2
 38 0 l 1
EndSplineSet
EndChar
StartChar: C
Encoding: 67 67 35
Width: 661
Flags: MW
HStem: -15 35<362 462.5> 672 35<475.5 572 443 591.5>
VStem: 114 107<209 294 172 309.5> 692 30<504 504>
LayerCount: 2
Fore
SplineSet
649 186 m 1
 679 186 l 1
 630 27 l 1
 566 -5 498 -15 427 -15 c 0
 179 -15 114 143 114 275 c 0
 114 344 127 436 182 525 c 0
 240 619 349 707 537 707 c 0
 607 707 701 690 758 654 c 1
 722 504 l 1
 692 504 l 1
 697 613 654 672 529 672 c 0
 422 672 343 614 293 530 c 0
 245 450 221 339 221 249 c 0
 221 95 304 20 420 20 c 0
 543 20 594 86 649 186 c 1
EndSplineSet
EndChar
StartChar: D
Encoding: 68 68 36
Width: 763
Flags: W
HStem: 0 32 0 35<102 102 293.5 347> 657 35<425.5 457 457 469> 660.5 31.5
VStem: 695 107<390 451.5 381 473>
LayerCount: 2
Fore
SplineSet
469 657 m 0x68
 382 657 368 654 360 620 c 2
 239 86 l 2
 229 42 266 35 321 35 c 0
 487 35 573 97 630 191 c 0
 675 265 695 347 695 433 c 0
 695 513 677 653 469 657 c 0x68
40 0 m 1
 46 29 l 1
 102 35 l 2
 126 37 136 50 143 83 c 2
 262 609 l 2
 269 642 264 656 241 658 c 2
 182 663 l 1x98
 188 692 l 1
 457 692 l 2
 568 692 658 669 716 620 c 0
 773 572 802 492 802 411 c 0
 802 351 792 267 735 181 c 0
 663 72 547 0 347 0 c 2
 40 0 l 1
EndSplineSet
EndChar
StartChar: E
Encoding: 69 69 37
Width: 596
Flags: W
HStem: 0 32 0 35<100 100 337.5 423.5> 341 38<304 427 296 435> 657 35<380.5 389 389 510> 661 31
VStem: 628 26
LayerCount: 2
Fore
SplineSet
186 692 m 1x74
 692 692 l 1
 654 525 l 1
 624 525 l 1
 633 615 636 657 510 657 c 2
 389 657 l 2
 372 657 366 652 361 628 c 2
 304 379 l 1
 435 379 l 2
 523 379 534 395 560 464 c 1
 590 464 l 1
 544 255 l 1
 514 255 l 1
 518 320 515 341 427 341 c 2
 296 341 l 1
 245 122 l 2
 234 75 235 60 250 48 c 0
 263 38 313 35 362 35 c 0
 485 35 530 53 581 176 c 1
 611 176 l 1
 560 0 l 1
 38 0 l 1x74
 44 29 l 1
 100 35 l 2
 124 37 133 49 141 83 c 2
 261 611 l 2
 269 645 262 657 239 659 c 2
 179 663 l 1xac
 186 692 l 1x74
EndSplineSet
EndChar
StartChar: F
Encoding: 70 70 38
Width: 571
Flags: MW
HStem: 0 31.5 327 38<301 425 293 433> 657 35<239 239 381 390 390 513>
VStem: 631 26
LayerCount: 2
Fore
SplineSet
186 692 m 1
 695 692 l 1
 657 527 l 1
 627 527 l 1
 636 615 639 657 513 657 c 2
 390 657 l 2
 372 657 367 652 361 627 c 2
 301 365 l 1
 433 365 l 2
 521 365 532 381 558 451 c 1
 588 451 l 1
 542 241 l 1
 512 241 l 1
 516 306 513 327 425 327 c 2
 293 327 l 1
 237 80 l 2
 230 50 236 36 260 34 c 2
 335 29 l 1
 329 0 l 1
 38 0 l 1
 44 29 l 1
 100 34 l 2
 124 36 134 50 141 80 c 2
 261 612 l 2
 268 641 262 655 239 657 c 2
 180 663 l 1
 186 692 l 1
EndSplineSet
EndChar
StartChar: G
Encoding: 71 71 39
Width: 709
Flags: W
HStem: -15 35<385.5 468.5> 273 36<578 578> 278 31 672 35<466.5 585 466.5 615.5>
VStem: 114 110<235 329> 701 30<501 501>
LayerCount: 2
Fore
SplineSet
767 657 m 1xd8
 731 501 l 1
 701 501 l 1
 708 587 689 672 542 672 c 0
 303 672 224 438 224 278 c 0
 224 101 313 20 434 20 c 0
 538 20 551 45 558 74 c 2
 595 225 l 2
 604 260 597 271 578 273 c 2
 503 280 l 1
 509 309 l 1
 772 309 l 1xdc
 766 280 l 1
 722 276 l 2
 705 274 699 259 691 225 c 2xb8
 644 23 l 1
 587 2 505 -15 432 -15 c 0
 339 -15 258 8 199 59 c 0
 147 104 114 185 114 285 c 0
 114 373 143 479 209 563 c 0
 279 652 390 707 543 707 c 0
 627 707 706 690 767 657 c 1xd8
EndSplineSet
EndChar
StartChar: H
Encoding: 72 72 40
Width: 775
Flags: MW
HStem: 0 31 341 38<306 631 297 640> 661 31
VStem: 40 852<0 692>
LayerCount: 2
Fore
SplineSet
306 379 m 1
 640 379 l 1
 692 609 l 2
 699 641 693 657 670 659 c 2
 611 663 l 1
 618 692 l 1
 892 692 l 1
 885 663 l 1
 830 658 l 2
 805 656 796 642 788 609 c 2
 668 83 l 2
 660 50 666 35 690 33 c 2
 749 29 l 1
 743 0 l 1
 469 0 l 1
 475 29 l 1
 530 35 l 2
 554 37 564 49 572 83 c 2
 631 341 l 1
 297 341 l 1
 239 83 l 2
 232 50 237 35 261 33 c 2
 320 29 l 1
 314 0 l 1
 40 0 l 1
 46 29 l 1
 101 35 l 2
 125 37 135 49 143 83 c 2
 263 609 l 2
 270 641 264 657 241 659 c 2
 182 663 l 1
 189 692 l 1
 463 692 l 1
 456 663 l 1
 401 658 l 2
 376 656 367 642 359 609 c 2
 306 379 l 1
EndSplineSet
EndChar
StartChar: I
Encoding: 73 73 41
Width: 345
Flags: MW
HStem: 0 31 661 31
VStem: 40 423
LayerCount: 2
Fore
SplineSet
314 0 m 1
 40 0 l 1
 46 29 l 1
 101 35 l 2
 125 37 136 51 143 83 c 2
 263 609 l 2
 270 639 264 657 241 659 c 2
 182 663 l 1
 189 692 l 1
 463 692 l 1
 456 663 l 1
 401 658 l 2
 376 656 366 640 359 609 c 2
 239 83 l 2
 232 52 237 35 261 33 c 2
 320 29 l 1
 314 0 l 1
EndSplineSet
EndChar
StartChar: J
Encoding: 74 74 42
Width: 352
Flags: MW
HStem: -119 27 661 31
VStem: -43 514
LayerCount: 2
Fore
SplineSet
196 692 m 1
 471 692 l 1
 464 663 l 1
 409 659 l 2
 384 657 374 643 367 612 c 2
 250 109 l 2
 227 9 192 -47 145 -80 c 0
 105 -108 36 -119 -10 -119 c 0
 -21 -119 -32 -118 -43 -117 c 1
 -43 -92 l 1
 7 -87 48 -73 82 -42 c 0
 113 -13 140 50 162 144 c 2
 271 612 l 2
 278 643 272 656 248 658 c 2
 189 663 l 1
 196 692 l 1
EndSplineSet
EndChar
StartChar: K
Encoding: 75 75 43
Width: 650
Flags: W
HStem: -5 29<677 684> 0 31 661 31
VStem: 40 781<0 692>
LayerCount: 2
Fore
SplineSet
189 692 m 1x70
 463 692 l 1
 456 663 l 1
 401 658 l 2
 376 656 366 640 359 609 c 2
 305 372 l 1
 307 370 l 1
 411 458 509 539 605 627 c 0
 625 646 625 658 606 660 c 2
 568 663 l 1
 572 692 l 1
 821 692 l 1
 817 663 l 1
 736 658 712 643 655 603 c 0
 563 539 480 471 390 395 c 1
 432 307 500 185 567 101 c 0
 603 56 627 29 684 24 c 1
 677 -5 l 1
 628 -4 l 2
 551 -2 508 19 460 84 c 0xb0
 399 167 350 267 304 361 c 1
 302 361 l 1
 239 83 l 2
 232 52 237 35 261 33 c 2
 320 29 l 1
 314 0 l 1
 40 0 l 1
 46 29 l 1
 101 35 l 2
 125 37 136 51 143 83 c 2
 263 609 l 2
 270 639 264 657 241 659 c 2
 182 663 l 1
 189 692 l 1x70
EndSplineSet
EndChar
StartChar: L
Encoding: 76 76 44
Width: 565
Flags: W
HStem: 0 32 0 35<101 101 339.5 420.5> 661 31
VStem: 40 563<0 176>
LayerCount: 2
Fore
SplineSet
552 0 m 1x70
 40 0 l 1x70
 46 29 l 1
 101 35 l 2
 125 37 135 48 143 83 c 2xb0
 263 609 l 2
 271 642 264 656 241 658 c 2
 182 663 l 1
 189 692 l 1
 468 692 l 1
 461 663 l 1
 401 659 l 2
 376 657 366 642 358 609 c 2
 247 122 l 2
 236 75 237 60 252 48 c 0
 265 38 315 35 364 35 c 0
 477 35 522 53 573 176 c 1
 603 176 l 1
 552 0 l 1x70
EndSplineSet
EndChar
StartChar: M
Encoding: 77 77 45
Width: 920
Flags: MW
HStem: 0 30.5 661 31
VStem: 31 1006<0 692>
LayerCount: 2
Fore
SplineSet
267 0 m 1
 31 0 l 1
 36 29 l 1
 67 32 l 2
 96 35 114 43 126 75 c 0
 138 108 149 146 161 199 c 2
 255 609 l 2
 263 642 256 655 233 657 c 2
 174 663 l 1
 181 692 l 1
 375 692 l 1
 392 603 412 515 432 425 c 2
 488 148 l 1
 491 148 l 1
 668 418 l 2
 729 511 788 601 841 692 c 1
 1037 692 l 1
 1030 663 l 1
 975 659 l 2
 950 657 941 643 933 609 c 2
 813 83 l 2
 806 51 811 37 835 35 c 2
 894 29 l 1
 888 0 l 1
 616 0 l 1
 622 29 l 1
 677 35 l 2
 701 37 711 49 719 83 c 2
 842 606 l 1
 839 606 l 1
 450 12 l 1
 422 12 l 1
 302 606 l 1
 300 606 l 1
 208 199 l 2
 196 146 190 108 187 75 c 0
 184 44 201 35 233 32 c 2
 272 29 l 1
 267 0 l 1
EndSplineSet
EndChar
StartChar: N
Encoding: 78 78 46
Width: 763
Flags: MW
HStem: 0 30.5 661.5 30.5
VStem: 258 44
LayerCount: 2
Fore
SplineSet
181 692 m 1
 371 692 l 1
 455 505 541 318 627 131 c 1
 631 131 l 1
 713 493 l 2
 725 546 731 584 734 617 c 0
 737 650 720 655 688 659 c 2
 649 663 l 1
 654 692 l 1
 890 692 l 1
 885 663 l 1
 854 660 l 2
 824 657 807 649 795 617 c 0
 783 584 772 546 760 493 c 2
 648 0 l 1
 583 0 l 1
 491 203 399 406 305 609 c 1
 302 609 l 1
 208 199 l 2
 196 146 190 108 187 75 c 0
 184 44 201 35 233 32 c 2
 272 29 l 1
 267 0 l 1
 31 0 l 1
 36 29 l 1
 67 32 l 2
 97 35 114 43 126 75 c 0
 138 108 149 146 161 199 c 2
 255 609 l 2
 263 642 256 655 233 657 c 2
 174 663 l 1
 181 692 l 1
EndSplineSet
EndChar
StartChar: O
Encoding: 79 79 47
Width: 753
Flags: MW
HStem: -15 35<344 463 344 495.5> 672 35<451 559>
VStem: 114 105<187.5 272 160.5 303> 684 105<437.5 516.5 394.5 536.5>
LayerCount: 2
Fore
SplineSet
504 672 m 0
 398 672 327 599 281 504 c 0
 235 407 219 314 219 230 c 0
 219 91 290 20 398 20 c 0
 528 20 596 113 637 220 c 0
 678 326 684 409 684 466 c 0
 684 607 614 672 504 672 c 0
500 707 m 0
 665 707 789 619 789 414 c 0
 789 375 780 273 726 175 c 0
 671 76 584 -15 407 -15 c 0
 208 -15 114 105 114 270 c 0
 114 336 128 430 183 523 c 0
 241 619 340 707 500 707 c 0
EndSplineSet
EndChar
StartChar: P
Encoding: 80 80 48
Width: 614
Flags: W
HStem: 0 32 280 35<326.5 358> 657 35<400.5 423 423 456 189 475.5> 660.5 31.5
VStem: 266 96 576 105<470.5 542 470.5 568.5>
LayerCount: 2
Fore
SplineSet
324 0 m 1xec
 40 0 l 1
 46 29 l 1
 101 35 l 2
 125 37 135 49 143 83 c 2
 263 609 l 2
 271 642 264 656 241 658 c 2
 182 663 l 1xdc
 189 692 l 1
 423 692 l 2
 489 692 553 683 600 656 c 0
 649 628 681 576 681 508 c 0
 681 433 644 366 580 327 c 0
 523 292 443 280 358 280 c 2
 284 280 l 1
 239 83 l 2
 232 51 237 37 261 35 c 2
 330 29 l 1
 324 0 l 1xec
362 622 m 2xec
 301 357 l 2
 294 325 292 315 361 315 c 0
 496 315 576 383 576 526 c 0
 576 611 525 657 426 657 c 0
 375 657 368 648 362 622 c 2xec
EndSplineSet
EndChar
StartChar: Q
Encoding: 81 81 49
Width: 753
Flags: MW
HStem: -203 33 -11 31 672 35<451 559>
VStem: 114 105<195.5 272 160.5 303> 684 105<437.5 516.5 394.5 536.5>
LayerCount: 2
Fore
SplineSet
504 672 m 0
 398 672 327 599 281 504 c 0
 235 407 219 314 219 230 c 0
 219 91 290 20 398 20 c 0
 528 20 596 113 637 220 c 0
 678 326 684 409 684 466 c 0
 684 607 614 672 504 672 c 0
500 707 m 0
 665 707 789 619 789 414 c 0
 789 375 780 273 726 175 c 0
 678 88 605 8 468 -11 c 1
 480 -30 505 -62 534 -91 c 0
 582 -139 629 -171 696 -170 c 1
 699 -187 l 1
 682 -197 650 -203 624 -203 c 0
 570 -203 505 -180 454 -137 c 0
 411 -101 373 -53 351 -11 c 1
 191 9 114 121 114 270 c 0
 114 336 128 430 183 523 c 0
 241 619 340 707 500 707 c 0
EndSplineSet
EndChar
StartChar: R
Encoding: 82 82 50
Width: 640
Flags: W
HStem: 0 29<46 46 46 314 40 46> 0 31.5 326 35<302 354 294 366> 657 35<409 459 459 479.5> 660.5 31.5
VStem: 469 94 572 105<481.5 566.5 481.5 584.5>
LayerCount: 2
Fore
SplineSet
189 692 m 1x74
 459 692 l 2
 646 692 677 602 677 531 c 0x76
 677 432 593 362 471 345 c 1
 471 343 l 1
 562 318 564 250 563 170 c 0
 562 118 567 81 577 64 c 0
 589 44 613 33 657 29 c 1xb4
 648 0 l 1
 570 0 l 2
 506 0 476 27 469 77 c 0
 460 151 468 228 462 264 c 0
 458 286 447 303 430 313 c 0
 415 323 387 326 354 326 c 2
 294 326 l 1
 239 83 l 2
 231 49 237 36 261 34 c 2
 320 29 l 1
 314 0 l 1
 40 0 l 1
 46 29 l 1
 101 35 l 2
 125 37 135 48 143 83 c 2
 263 609 l 2
 271 642 264 656 241 658 c 2
 182 663 l 1x6c
 189 692 l 1x74
302 361 m 1
 366 361 l 2
 495 361 572 422 572 541 c 0
 572 628 512 657 447 657 c 0
 371 657 368 648 361 619 c 2
 302 361 l 1
EndSplineSet
EndChar
StartChar: S
Encoding: 83 83 51
Width: 533
Flags: MW
HStem: -15 35<244 278> 672 35<347.5 429 310.5 439>
VStem: 95 29<220 220> 168 84<507 551> 441 90<152.5 205>
LayerCount: 2
Fore
SplineSet
541 516 m 1
 512 516 l 1
 524 619 487 672 391 672 c 0
 304 672 252 616 252 545 c 0
 252 469 323 435 381 405 c 0
 482 353 531 296 531 206 c 0
 531 99 472 -13 278 -15 c 0
 205 -15 108 15 69 67 c 1
 95 220 l 1
 124 220 l 1
 118 87 198 20 290 20 c 0
 390 20 441 94 441 165 c 0
 441 245 393 287 313 327 c 0
 232 366 168 415 168 509 c 0
 168 593 223 707 398 707 c 0
 460 707 534 690 577 656 c 1
 541 516 l 1
EndSplineSet
EndChar
StartChar: T
Encoding: 84 84 52
Width: 606
Flags: MW
HStem: 0 31 657 35<284 333 333 402 498 498 498 561>
VStem: 678 27
LayerCount: 2
Fore
SplineSet
460 0 m 1
 152 0 l 1
 159 29 l 1
 224 33 l 2
 254 35 265 50 272 81 c 2
 402 657 l 1
 333 657 l 2
 235 657 199 627 167 525 c 1
 137 525 l 1
 175 692 l 1
 743 692 l 1
 705 525 l 1
 675 525 l 1
 684 615 685 657 561 657 c 2
 498 657 l 1
 368 81 l 2
 361 50 366 35 394 33 c 2
 467 29 l 1
 460 0 l 1
EndSplineSet
EndChar
StartChar: U
Encoding: 85 85 53
Width: 794
Flags: MW
HStem: -15 35<359.5 478> 660.5 31.5
VStem: 166 99
LayerCount: 2
Fore
SplineSet
187 692 m 1
 461 692 l 1
 454 663 l 1
 399 659 l 2
 374 657 365 643 357 609 c 2
 278 269 l 2
 234 81 304 20 415 20 c 0
 554 20 603 127 634 260 c 2
 715 609 l 2
 723 642 716 656 693 658 c 2
 634 663 l 1
 641 692 l 1
 915 692 l 1
 908 663 l 1
 853 658 l 2
 828 656 819 643 811 609 c 2
 726 247 l 2
 671 14 546 -15 410 -15 c 0
 238 -15 130 57 177 256 c 2
 261 609 l 2
 269 642 262 656 239 658 c 2
 180 663 l 1
 187 692 l 1
EndSplineSet
EndChar
StartChar: V
Encoding: 86 86 54
Width: 637
Flags: MW
HStem: 0 21G<287 356 287 287> 660.5 31.5
VStem: 131 690<663 692>
LayerCount: 2
Fore
SplineSet
136 692 m 1
 386 692 l 1
 381 663 l 1
 317 657 l 2
 299 655 298 643 300 624 c 0
 308 541 318 454 330 366 c 2
 365 100 l 1
 367 100 l 1
 510 349 l 2
 594 495 642 582 663 627 c 0
 674 650 669 656 651 658 c 2
 596 663 l 1
 601 692 l 1
 821 692 l 1
 816 663 l 1
 763 659 747 653 725 619 c 0
 685 557 624 456 559 345 c 2
 356 0 l 1
 287 0 l 1
 245 320 l 2
 232 420 220 519 208 611 c 0
 203 647 194 655 171 658 c 2
 131 663 l 1
 136 692 l 1
EndSplineSet
EndChar
StartChar: W
Encoding: 87 87 55
Width: 946
Flags: W
HStem: 0 21G<238 308 238 238 639 709 639 639> 0 122<238 325 238 325> 654 20G<596 666 666 666> 660 32
VStem: 121 989<663 692>
LayerCount: 2
Fore
SplineSet
127 692 m 1x98
 380 692 l 1
 373 663 l 1
 308 657 l 2
 292 656 285 648 287 625 c 2x98
 320 122 l 1
 325 122 l 1
 596 674 l 1
 666 674 l 1
 717 122 l 1
 721 122 l 1
 841 373 l 2
 902 500 939 582 955 622 c 0x68
 963 643 962 654 946 656 c 2
 881 663 l 1
 886 692 l 1
 1110 692 l 1
 1105 663 l 1
 1043 657 1036 651 1008 603 c 0
 990 572 939 471 883 357 c 2
 709 0 l 1
 639 0 l 1
 587 551 l 1
 582 551 l 1
 308 0 l 1
 238 0 l 1
 194 616 l 2
 192 646 187 656 165 658 c 2
 121 663 l 1
 127 692 l 1x98
EndSplineSet
EndChar
StartChar: X
Encoding: 88 88 56
Width: 632
Flags: W
HStem: 0 29<5 5 5 248 -1 5> 0 31.5 661 31
VStem: -1 771<0 692>
LayerCount: 2
Fore
SplineSet
248 0 m 1xb0
 -1 0 l 1
 5 29 l 1
 67 35 84 39 116 73 c 0
 174 135 274 255 352 349 c 1
 312 440 268 555 238 620 c 0
 222 655 205 658 145 663 c 1
 151 692 l 1
 411 692 l 1
 405 663 l 1
 353 659 l 2
 332 657 327 646 336 623 c 0
 362 559 390 489 418 424 c 1
 420 424 l 1
 482 495 557 590 586 628 c 0
 599 645 597 657 577 659 c 2
 534 663 l 1
 540 692 l 1
 770 692 l 1
 764 663 l 1
 711 659 690 653 668 634 c 0
 612 583 504 465 436 383 c 1
 483 277 547 131 571 80 c 0
 591 37 608 34 674 29 c 1
 668 0 l 1
 398 0 l 1
 403 29 l 1xb0
 455 34 l 2
 477 36 481 48 472 70 c 0x70
 442 145 406 225 372 305 c 1
 368 305 l 1
 302 224 219 115 183 63 c 0
 172 47 178 37 197 35 c 2
 254 29 l 1
 248 0 l 1xb0
EndSplineSet
EndChar
StartChar: Y
Encoding: 89 89 57
Width: 591
Flags: W
HStem: 0 32 660.5 31.5 663 29<131 386 380 380 773 773>
VStem: 131 648<663 692>
LayerCount: 2
Fore
SplineSet
137 692 m 1xb0
 386 692 l 1
 380 663 l 1xb0
 325 658 l 2
 306 656 302 647 306 629 c 2xd0
 397 322 l 1
 400 322 l 1
 479 429 572 563 611 630 c 0
 620 647 617 658 596 659 c 2
 544 663 l 1
 550 692 l 1
 779 692 l 1
 773 663 l 1
 716 659 704 652 668 612 c 0
 614 551 514 418 438 307 c 0
 428 293 417 274 410 247 c 2
 372 78 l 2
 366 50 371 37 395 35 c 2
 471 29 l 1
 465 0 l 1
 155 0 l 1
 161 29 l 1
 233 36 l 2
 259 39 268 50 274 78 c 2
 312 246 l 2
 317 267 317 282 312 299 c 0
 279 409 248 518 214 617 c 0
 201 656 194 658 131 663 c 1
 137 692 l 1xb0
EndSplineSet
EndChar
StartChar: Z
Encoding: 90 90 58
Width: 622
Flags: W
HStem: 0 35<154 357 357 436> 657 35<347.5 403 403 598> 679 13<225 738>
VStem: 15 723<13 679>
LayerCount: 2
Fore
SplineSet
225 692 m 1xd0
 733 692 l 1xd0
 738 679 l 1xb0
 541 463 344 246 154 35 c 1
 357 35 l 2
 515 35 558 53 611 176 c 1
 641 176 l 1
 590 0 l 1
 19 0 l 1
 15 13 l 1
 212 229 408 446 598 657 c 1
 403 657 l 2
 292 657 259 639 218 523 c 1
 188 523 l 1
 225 692 l 1xd0
EndSplineSet
EndChar
StartChar: bracketleft
Encoding: 91 91 59
Width: 330
Flags: MW
HStem: -128 27<104 268> 665 27<444 444>
VStem: 104 345
LayerCount: 2
Fore
SplineSet
290 692 m 1
 449 692 l 1
 444 665 l 1
 353 660 345 654 335 610 c 2
 185 -46 l 2
 176 -90 180 -96 268 -101 c 1
 263 -128 l 1
 104 -128 l 1
 290 692 l 1
EndSplineSet
EndChar
StartChar: backslash
Encoding: 92 92 60
Width: 390
Flags: MW
HStem: -15 21G<335 335 335 406> 687 20G<124 195 195 195>
VStem: 124 282
LayerCount: 2
Fore
SplineSet
335 -15 m 1
 124 707 l 1
 195 707 l 1
 406 -15 l 1
 335 -15 l 1
EndSplineSet
EndChar
StartChar: bracketright
Encoding: 93 93 61
Width: 330
Flags: MW
HStem: -128 27<19 19 19 173 14 19> 665 27<195 359>
VStem: 14 345
LayerCount: 2
Fore
SplineSet
200 692 m 1
 359 692 l 1
 173 -128 l 1
 14 -128 l 1
 19 -101 l 1
 111 -96 118 -90 128 -46 c 2
 278 610 l 2
 288 654 284 660 195 665 c 1
 200 692 l 1
EndSplineSet
EndChar
StartChar: asciicircum
Encoding: 94 94 62
Width: 570
Flags: W
HStem: 595 73<352 352> 648 20G<314 391 391 391>
VStem: 118 464<228 228>
LayerCount: 2
Fore
SplineSet
582 228 m 1x60
 506 228 l 1
 352 595 l 1xa0
 194 228 l 1
 118 228 l 1
 314 668 l 1
 391 668 l 1
 582 228 l 1x60
EndSplineSet
EndChar
StartChar: grave
Encoding: 193 96 123
Width: 400
Flags: MW
HStem: 542 181<212.5 388>
VStem: 181 222<562 690>
LayerCount: 2
Fore
SplineSet
403 562 m 1
 388 542 l 1
 237 626 l 2
 207 642 181 659 181 680 c 0
 181 700 205 723 220 723 c 0
 237 723 254 713 284 682 c 2
 403 562 l 1
EndSplineSet
EndChar
StartChar: b
Encoding: 98 98 66
Width: 559
Flags: W
HStem: -12 35<261.5 333.5> 0 21G<82 118 82 82> 450 52<447 458.5> 675 20G<152 152> 722 20G<337 337>
VStem: 494 98<353.5 395.5>
LayerCount: 2
Fore
SplineSet
494 367 m 0xbc
 494 424 477 450 440 450 c 0
 378 450 303 364 258 284 c 0
 226 226 205 157 205 109 c 0
 205 59 236 23 287 23 c 0
 434 23 494 295 494 367 c 0xbc
342 737 m 1
 231 296 l 1
 233 296 l 1
 310 433 409 502 485 502 c 0
 559 502 592 450 592 376 c 0
 592 331 576 242 526 154 c 0
 477 66 392 -12 275 -12 c 0
 218 -12 167 16 149 58 c 1xbc
 118 0 l 1
 82 0 l 1x7c
 229 639 l 2
 238 678 234 685 209 688 c 2
 152 695 l 1
 158 718 l 1
 337 742 l 1
 342 737 l 1
EndSplineSet
EndChar
StartChar: c
Encoding: 99 99 67
Width: 441
Flags: MW
HStem: -12 49<231.5 261> 467 35<301 363>
VStem: 81 99<132.5 230>
LayerCount: 2
Fore
SplineSet
428 154 m 1
 452 135 l 1
 383 20 298 -12 224 -12 c 0
 154 -12 81 26 81 148 c 0
 81 312 193 502 371 502 c 0
 446 502 500 464 500 413 c 0
 500 380 460 357 436 357 c 0
 418 357 409 369 407 387 c 0
 401 447 379 467 347 467 c 0
 255 467 180 298 180 168 c 0
 180 97 195 37 268 37 c 0
 335 37 394 108 428 154 c 1
EndSplineSet
EndChar
StartChar: d
Encoding: 100 100 68
Width: 587
Flags: MW
HStem: -12 52<205 229.5> 467 35<338 429 295.5 433.5> 675 20G<458 458> 722 20G<642 642>
VStem: 72 99<89.5 166 89.5 180.5> 396 88
LayerCount: 2
Fore
SplineSet
171 112 m 0
 171 67 189 40 221 40 c 0
 274 40 340 115 388 193 c 0
 439 276 472 370 487 447 c 1
 475 458 449 467 418 467 c 0
 258 467 171 220 171 112 c 0
464 718 m 1
 642 742 l 1
 647 737 l 1
 489 95 l 2
 481 63 479 40 499 40 c 0
 527 40 571 111 589 146 c 1
 613 132 l 1
 579 56 523 -12 450 -12 c 0
 399 -13 384 28 404 99 c 2
 437 218 l 1
 435 218 l 1
 376 111 287 -12 172 -12 c 0
 91 -12 72 55 72 120 c 0
 72 241 179 502 412 502 c 0
 446 502 477 495 496 485 c 1
 498 487 l 1
 536 648 l 2
 544 680 542 687 518 689 c 2
 458 695 l 1
 464 718 l 1
EndSplineSet
EndChar
StartChar: e
Encoding: 101 101 69
Width: 453
Flags: MW
HStem: -12 49<235 265.5> 467 35<337 371.5>
VStem: 80 99<136.5 178.5 136.5 194> 412 94<388 425.5>
LayerCount: 2
Fore
SplineSet
435 151 m 1
 458 131 l 1
 390 20 302 -12 229 -12 c 0
 171 -12 80 12 80 152 c 0
 80 236 110 323 163 388 c 0
 218 456 292 502 382 502 c 0
 464 502 506 455 506 402 c 0
 506 374 499 341 464 306 c 0
 421 266 348 226 180 192 c 1
 179 185 179 181 179 176 c 0
 179 97 200 37 270 37 c 0
 345 37 399 104 435 151 c 1
182 226 m 1
 351 262 412 338 412 408 c 0
 412 443 389 467 354 467 c 0
 274 467 199 347 182 226 c 1
EndSplineSet
EndChar
StartChar: f
Encoding: 102 102 70
Width: 315
Flags: MW
HStem: -242 37<47.5 58 47.5 69> 452 38<123 201 112 210 302 422> 707 35<392.5 409.5>
VStem: -72 611
LayerCount: 2
Fore
SplineSet
432 490 m 1
 422 452 l 1
 296 452 l 1
 203 31 l 2
 161 -161 119 -242 19 -242 c 0
 -28 -242 -71 -217 -72 -184 c 0
 -72 -159 -49 -134 -27 -134 c 0
 -14 -134 -7 -146 0 -156 c 0
 27 -197 42 -205 53 -205 c 0
 63 -205 73 -199 85 -137 c 2
 201 452 l 1
 112 452 l 1
 123 490 l 1
 210 490 l 1
 220 527 l 2
 234 580 254 634 285 673 c 0
 318 715 360 742 425 742 c 0
 485 742 539 707 539 664 c 0
 539 639 510 620 490 620 c 0
 475 620 468 627 463 637 c 0
 441 685 423 707 396 707 c 0
 368 707 349 679 330 603 c 2
 302 490 l 1
 432 490 l 1
EndSplineSet
EndChar
StartChar: g
Encoding: 103 103 71
Width: 499
Flags: W
HStem: -242 35<228.5 309.5 228.5 317.5> 180 35<288.5 334.5 270.5 365.5> 467 35<292.5 355>
VStem: 30 92<-123 -54.5> 113 85<130 138> 120 94<281 332.5 276 353.5> 409 85<-130 -52> 420 92<336.5 372.5 307.5 417.5>
LayerCount: 2
Fore
SplineSet
340 467 m 0xf7
 245 467 214 364 214 301 c 0
 214 251 244 215 297 215 c 0
 372 215 420 290 420 383 c 0
 420 452 370 467 340 467 c 0xf7
457 472 m 1
 602 512 l 1
 608 503 l 1
 575 440 l 1
 491 428 l 1
 504 411 512 386 512 359 c 0
 512 256 435 180 296 180 c 0
 281 180 262 180 242 183 c 1
 218 177 198 163 198 144 c 0xe9
 198 116 235 102 319 82 c 0
 437 54 494 0 494 -75 c 0
 494 -185 385 -242 250 -242 c 0
 123 -242 30 -185 30 -96 c 0xf2
 30 -13 116 29 184 41 c 1
 184 43 l 1
 143 62 113 85 113 118 c 0xea
 113 158 173 180 204 193 c 1
 204 195 l 1
 174 206 120 244 120 318 c 0
 120 389 169 502 333 502 c 0
 382 502 431 489 457 472 c 1
272 -207 m 0xf2
 347 -207 409 -170 409 -94 c 0
 409 -10 291 16 228 25 c 1
 187 19 122 -15 122 -87 c 0
 122 -159 185 -207 272 -207 c 0xf2
EndSplineSet
EndChar
StartChar: h
Encoding: 104 104 72
Width: 607
Flags: W
HStem: -12 52<435.5 523> 450 52<460.5 478> 675 20G<161 161> 722 20G<347 347>
VStem: 404 89 499 90
LayerCount: 2
Fore
SplineSet
352 737 m 1
 240 279 l 1
 243 279 l 1
 307 399 413 502 508 502 c 0
 589 502 602 436 578 357 c 2xf4
 499 95 l 2
 489 63 489 40 509 40 c 0
 537 40 581 111 599 146 c 1
 623 132 l 1
 589 56 533 -12 464 -12 c 0
 407 -12 393 30 412 96 c 2xf8
 494 380 l 2
 506 421 494 450 462 450 c 0
 375 450 276 298 246 220 c 0
 221 157 206 102 179 0 c 1
 92 -12 l 1
 238 639 l 2
 247 678 243 685 218 688 c 2
 161 695 l 1
 167 718 l 1
 347 742 l 1
 352 737 l 1
EndSplineSet
EndChar
StartChar: i
Encoding: 105 105 73
Width: 317
Flags: W
HStem: -12 52<145 234> 447.5 26.5 477 20G<319 319> 482 20G<314 314> 593 122<287.5 318.5>
VStem: 114 90 244 119<640 665>
LayerCount: 2
Fore
SplineSet
132 474 m 1xdc
 314 502 l 1
 319 497 l 1xae
 210 95 l 2
 201 63 200 40 220 40 c 0
 248 40 292 111 310 146 c 1
 334 132 l 1
 300 56 244 -12 172 -12 c 0
 118 -12 105 29 120 86 c 2
 204 399 l 2
 213 434 210 443 183 445 c 2
 126 450 l 1
 132 474 l 1xdc
309 715 m 0
 337 715 363 699 363 660 c 0
 363 620 338 593 299 593 c 0
 269 593 244 612 244 649 c 0
 244 681 266 715 309 715 c 0
EndSplineSet
EndChar
StartChar: j
Encoding: 106 106 74
Width: 309
Flags: W
HStem: -242 35<9 74> 447.5 26.5 477 20G<326 326> 482 20G<321 321> 593 122<289.5 320.5>
VStem: 246 119<640 665>
LayerCount: 2
Fore
SplineSet
136 450 m 1xdc
 142 474 l 1xdc
 321 502 l 1
 326 497 l 1xac
 213 -3 l 2
 193 -92 170 -156 142 -192 c 0
 114 -227 81 -242 35 -242 c 0
 -17 -242 -59 -217 -60 -184 c 0
 -60 -159 -37 -134 -15 -134 c 0
 -2 -134 5 -145 11 -154 c 0
 38 -194 56 -207 68 -207 c 0
 80 -207 87 -195 91 -176 c 2
 213 395 l 2
 221 430 222 443 198 445 c 2
 136 450 l 1xdc
311 715 m 0
 339 715 365 699 365 660 c 0
 365 620 340 593 301 593 c 0
 271 593 246 612 246 649 c 0
 246 681 268 715 311 715 c 0
EndSplineSet
EndChar
StartChar: k
Encoding: 107 107 75
Width: 545
Flags: W
HStem: -12 55<456.5 464> 267 21G 399 103<547.5 567> 426 76<458 569.5> 675 20G<170 170> 722 20G<355 355>
VStem: 92 510<-12 466.5>
LayerCount: 2
Fore
SplineSet
184 0 m 1xee
 92 -12 l 1
 247 639 l 2
 256 678 252 685 227 688 c 2
 170 695 l 1
 176 718 l 1
 355 742 l 1
 360 737 l 1
 184 0 l 1xee
550 502 m 0
 589 502 602 480 602 453 c 0
 602 428 581 399 553 399 c 0xee
 542 399 532 403 525 407 c 0
 502 421 491 426 476 426 c 0xde
 440 426 362 341 334 309 c 1
 353 242 378 177 409 114 c 0
 434 62 448 43 465 43 c 0
 492 43 517 82 545 142 c 1
 570 129 l 1
 540 45 496 -12 432 -12 c 0
 384 -12 355 19 326 83 c 0
 298 144 274 203 255 267 c 1
 302 324 354 379 410 428 c 0
 461 471 510 502 550 502 c 0
EndSplineSet
EndChar
StartChar: l
Encoding: 108 108 76
Width: 306
Flags: MW
HStem: -12 52<141 227> 675 20G<176 176> 722 20G<361 361>
VStem: 111 89
LayerCount: 2
Fore
SplineSet
182 718 m 1
 361 742 l 1
 366 737 l 1
 205 94 l 2
 197 61 197 40 215 40 c 0
 239 40 284 101 307 146 c 1
 331 132 l 1
 299 57 238 -12 168 -12 c 0
 114 -12 102 29 116 86 c 2
 253 639 l 2
 263 678 258 685 233 688 c 2
 176 695 l 1
 182 718 l 1
EndSplineSet
EndChar
StartChar: m
Encoding: 109 109 77
Width: 912
Flags: W
HStem: -12 52<741 829> 447.5 26.5 450 52<466 481 764 782.5> 477 20G<318 318>
VStem: 502 83 708 91 805 87
LayerCount: 2
Fore
SplineSet
185 0 m 1xaa
 98 -12 l 1
 201 397 l 2
 209 429 211 443 187 445 c 2
 126 450 l 1xaa
 132 474 l 1xca
 313 502 l 1
 318 497 l 1x9a
 255 290 l 1
 258 290 l 1
 327 416 420 502 512 502 c 0
 582 502 602 449 572 353 c 2
 552 290 l 1
 556 290 l 1
 628 419 719 502 809 502 c 0
 892 502 905 436 882 357 c 2xaa
 805 95 l 2
 796 63 795 40 815 40 c 0
 843 40 887 111 905 146 c 1
 929 132 l 1
 895 56 839 -12 766 -12 c 0
 716 -12 696 24 714 86 c 2xac
 800 380 l 2
 813 423 799 450 766 450 c 0
 682 450 591 306 554 221 c 0
 528 160 512 102 483 0 c 1
 396 -12 l 1
 422 86 l 1
 496 366 l 2
 512 428 496 450 466 450 c 0
 383 450 285 300 251 213 c 0
 230 160 214 102 185 0 c 1xaa
EndSplineSet
EndChar
StartChar: n
Encoding: 110 110 78
Width: 618
Flags: W
HStem: -12 52<443 535> 447.5 26.5 450 52<470 489.5> 477 20G<320 320>
VStem: 413 92 509 90
LayerCount: 2
Fore
SplineSet
186 0 m 1xa4
 98 -12 l 1
 203 397 l 2
 212 429 212 443 188 445 c 2
 126 450 l 1xa4
 132 474 l 1xc4
 315 502 l 1
 320 497 l 1x94
 255 279 l 1
 258 279 l 1
 318 396 422 502 518 502 c 0
 600 502 612 436 589 357 c 2xa4
 511 95 l 2
 502 63 501 40 521 40 c 0
 549 40 593 111 611 146 c 1
 635 132 l 1
 601 56 545 -12 470 -12 c 0
 416 -12 403 30 419 86 c 2xa8
 505 379 l 2
 516 418 507 450 472 450 c 0
 391 450 295 304 258 218 c 0
 232 156 215 102 186 0 c 1xa4
EndSplineSet
EndChar
StartChar: o
Encoding: 111 111 79
Width: 537
Flags: MW
HStem: -12 35<242 322.5> 467 35<311 407.5>
VStem: 84 97<115.5 183 93.5 212> 460 97<326.5 393>
LayerCount: 2
Fore
SplineSet
377 467 m 0
 245 467 181 237 181 129 c 0
 181 58 213 23 271 23 c 0
 408 23 460 291 460 362 c 0
 460 424 438 467 377 467 c 0
378 502 m 0
 459 502 557 465 557 327 c 0
 557 273 540 188 494 116 c 0
 447 42 377 -12 268 -12 c 0
 142 -12 84 62 84 169 c 0
 84 255 141 502 378 502 c 0
EndSplineSet
EndChar
StartChar: p
Encoding: 112 112 80
Width: 590
Flags: W
HStem: -242 21G<57 57> -12 35<283 381 279.5 431.5> 447.5 26.5 450 52<471.5 486> 477 20G<312 312>
VStem: 522 99<330 393.5>
LayerCount: 2
Fore
SplineSet
299 23 m 0xd4
 463 23 522 288 522 367 c 0
 522 420 504 450 468 450 c 0
 411 450 338 370 290 286 c 0
 252 219 224 117 211 53 c 1
 233 34 260 23 299 23 c 0xd4
146 -230 m 1
 57 -242 l 1
 197 397 l 2
 204 427 206 443 182 445 c 2
 120 450 l 1xd4
 126 474 l 1xe4
 307 502 l 1
 312 497 l 1xcc
 255 286 l 1
 258 286 l 1
 334 429 433 502 510 502 c 0
 584 502 621 455 621 368 c 0
 621 292 554 -12 309 -12 c 0
 257 -12 222 -3 201 10 c 1
 146 -230 l 1
EndSplineSet
EndChar
StartChar: q
Encoding: 113 113 81
Width: 559
Flags: MW
HStem: -242 21G<331 331> -12 52<202 209.5> 467 35<341 440>
VStem: 73 99<99.5 172 99.5 175.5>
LayerCount: 2
Fore
SplineSet
424 -222 m 1
 331 -242 l 1
 430 190 l 1
 427 190 l 1
 353 66 251 -12 168 -12 c 0
 119 -12 73 20 73 107 c 0
 73 244 174 502 423 502 c 0
 470 502 505 489 521 480 c 1
 564 525 l 1
 602 525 l 1
 424 -222 l 1
172 123 m 0
 172 76 184 40 220 40 c 0
 261 40 317 84 372 156 c 0
 426 228 470 331 494 446 c 1
 479 457 456 467 424 467 c 0
 258 467 172 221 172 123 c 0
EndSplineSet
EndChar
StartChar: r
Encoding: 114 114 82
Width: 402
Flags: W
HStem: -12 21G<104 104> 396 106<420 448.5> 421 81<297 381.5> 447.5 26.5 477 20G<302 302>
VStem: 104 379
LayerCount: 2
Fore
SplineSet
190 0 m 1x8c
 104 -12 l 1
 196 397 l 2
 203 429 205 443 181 445 c 2
 119 450 l 1
 125 474 l 1x94
 297 502 l 1
 302 497 l 1x8c
 257 331 l 1
 259 331 l 1
 313 439 382 502 438 502 c 0
 470 502 484 485 483 458 c 0
 483 429 461 396 436 396 c 0xc4
 404 396 397 421 366 421 c 0xa4
 328 421 278 335 242 204 c 0
 226 146 207 65 190 0 c 1x8c
EndSplineSet
EndChar
StartChar: s
Encoding: 115 115 83
Width: 389
Flags: MW
HStem: -12 35<209.5 249 209.5 258> 467 35<257.5 292.5>
VStem: 143 71<388 395.5> 300 77<98 117.5>
LayerCount: 2
Fore
SplineSet
305 502 m 0
 394 502 432 455 432 424 c 0
 432 393 404 378 384 378 c 0
 369 378 361 386 356 398 c 0
 335 445 309 467 276 467 c 0
 239 467 214 434 214 402 c 0
 214 374 225 341 285 292 c 0
 352 237 377 194 377 139 c 0
 377 57 312 -12 204 -12 c 0
 109 -12 54 40 54 83 c 0
 54 110 76 137 106 137 c 0
 123 137 132 126 138 107 c 0
 154 54 191 23 228 23 c 0
 270 23 300 51 300 98 c 0
 300 137 274 181 231 215 c 0
 179 257 143 303 143 355 c 0
 143 436 203 502 305 502 c 0
EndSplineSet
EndChar
StartChar: t
Encoding: 116 116 84
Width: 341
Flags: MW
HStem: -12 52<147 244.5> 452 38<143 215 132 224 312 428>
VStem: 119 92
LayerCount: 2
Fore
SplineSet
428 452 m 1
 303 452 l 1
 214 88 l 2
 208 63 208 40 229 40 c 0
 260 40 311 107 334 146 c 1
 356 129 l 1
 316 54 252 -12 172 -12 c 0
 122 -12 110 29 125 86 c 2
 215 452 l 1
 132 452 l 1
 143 490 l 1
 224 490 l 1
 237 539 l 1
 334 616 l 1
 346 609 l 1
 312 490 l 1
 439 490 l 1
 428 452 l 1
EndSplineSet
EndChar
StartChar: u
Encoding: 117 117 85
Width: 618
Flags: W
HStem: -12 52<232 249> 447.5 26.5 477 20G<319 319> 482 20G<314 314 622 622>
VStem: 124 92 423 88
LayerCount: 2
Fore
SplineSet
533 490 m 1x9c
 622 502 l 1x9c
 515 94 l 2
 507 63 507 40 528 40 c 0
 556 40 600 112 620 146 c 1
 644 131 l 1
 609 57 549 -12 477 -12 c 0
 424 -12 412 29 431 96 c 2
 464 210 l 1
 462 210 l 1
 402 94 297 -12 201 -12 c 0
 121 -12 113 53 134 133 c 2
 203 397 l 2
 211 428 212 443 188 445 c 2
 126 450 l 1
 132 474 l 1xdc
 314 502 l 1
 319 497 l 1xac
 223 128 l 2
 208 70 216 40 248 40 c 0
 331 40 418 173 462 274 c 0
 488 335 504 388 533 490 c 1x9c
EndSplineSet
EndChar
StartChar: v
Encoding: 118 118 86
Width: 510
Flags: W
HStem: -12 52<239.5 247> 447.5 26.5 477 20G<307 307> 482 20G<302 302 520 536>
VStem: 129 88 471 92<356 443.5>
LayerCount: 2
Fore
SplineSet
125 474 m 1xdc
 302 502 l 1
 307 497 l 1xac
 220 110 l 2
 209 62 227 40 252 40 c 0
 334 37 463 219 471 356 c 0
 471 408 469 446 459 481 c 1
 480 494 508 502 532 502 c 0
 540 502 563 463 563 424 c 0x9c
 562 362 514 253 446 161 c 0
 377 68 290 -12 204 -12 c 0
 147 -12 115 28 135 119 c 2
 196 397 l 2
 203 430 204 443 181 445 c 2
 119 450 l 1
 125 474 l 1xdc
EndSplineSet
EndChar
StartChar: w
Encoding: 119 119 87
Width: 785
Flags: W
HStem: -12 52<241 247.5 528.5 549.5> 447.5 26.5 473 20G<588 588> 477 20G<311 311> 482 20G<306 306 800 816>
VStem: 129 89 424 84 752 91<297 444.5>
LayerCount: 2
Fore
SplineSet
127 474 m 1xcf
 306 502 l 1
 311 497 l 1x97
 223 121 l 2
 209 63 228 40 254 40 c 0
 294 40 341 90 382 152 c 0
 440 240 469 361 502 487 c 1
 588 493 l 1xa7
 518 178 l 2
 498 86 506 40 551 40 c 0
 631 40 752 228 752 366 c 0
 752 408 750 446 740 481 c 1
 761 494 788 502 812 502 c 0
 820 502 843 465 843 424 c 0x8f
 842 365 797 256 731 160 c 0
 666 65 591 -12 508 -12 c 0
 448 -12 424 30 424 85 c 0
 424 113 433 156 440 192 c 1
 438 194 l 1
 378 74 289 -12 206 -12 c 0
 150 -12 113 29 135 124 c 2
 198 397 l 2
 206 432 205 443 183 445 c 2
 122 450 l 1
 127 474 l 1xcf
EndSplineSet
EndChar
StartChar: x
Encoding: 120 120 88
Width: 516
Flags: W
HStem: -12 52<418.5 428.5> -12 77<75 155> -12 101<75 82.5 61 129> 411 91<517 529> 427 75
VStem: 31 535<24.5 474.5>
LayerCount: 2
Fore
SplineSet
507 138 m 1x8c
 533 124 l 1
 503 63 465 -12 392 -12 c 0
 341 -12 322 31 303 111 c 2
 285 189 l 1
 283 189 l 1
 243 123 l 2
 202 56 163 -12 95 -12 c 0x8c
 55 -12 31 10 31 39 c 0
 31 63 48 89 74 89 c 0x2c
 91 89 104 79 114 74 c 0
 123 69 133 65 143 65 c 0
 167 65 204 117 247 190 c 2
 275 238 l 1
 239 383 l 2
 228 429 221 434 203 433 c 2
 128 428 l 1
 125 452 l 1
 290 502 l 1
 296 498 l 1
 336 330 l 1
 338 330 l 1
 382 398 l 2
 417 454 462 502 515 502 c 0x4c
 543 502 566 490 566 459 c 0
 566 432 545 411 523 411 c 0x94
 511 411 501 415 491 419 c 0
 480 425 472 427 463 427 c 0
 434 427 383 347 347 283 c 1
 379 152 l 2
 401 63 409 40 428 40 c 0
 456 40 483 93 507 138 c 1x8c
EndSplineSet
EndChar
StartChar: y
Encoding: 121 121 89
Width: 468
Flags: MW
HStem: -242 60<46 132> 482 20G<239 239 512.5 525.5>
VStem: 210 77<-2 61> 444 96
LayerCount: 2
Fore
SplineSet
71 454 m 1
 239 502 l 1
 247 498 l 1
 261 425 280 214 287 61 c 1
 290 61 l 1
 356 175 415 283 431 339 c 0
 443 381 445 442 444 477 c 1
 469 494 503 502 522 502 c 0
 529 502 540 481 540 446 c 0
 540 406 477 309 420 215 c 0
 358 113 298 7 278 -27 c 0
 190 -179 153 -242 68 -242 c 0
 24 -242 -5 -214 -5 -187 c 0
 -5 -158 20 -128 46 -127 c 0
 61 -127 69 -135 81 -151 c 0
 96 -171 107 -182 122 -182 c 0
 142 -182 168 -153 186 -111 c 0
 208 -58 210 -17 210 13 c 0
 210 93 188 285 177 363 c 0
 169 415 164 432 142 431 c 2
 74 429 l 1
 71 454 l 1
EndSplineSet
EndChar
StartChar: z
Encoding: 122 122 90
Width: 468
Flags: W
HStem: -12 78<363.5 401.5 363.5 411.5> 426 64<214.5 238 238 414> 476 14<185 518>
VStem: 39 70<11.5 12 12 26>
LayerCount: 2
Fore
SplineSet
185 490 m 1xd0
 510 490 l 1xd0
 518 476 l 1xb0
 397 358 283 239 172 123 c 1
 198 120 233 107 266 95 c 0
 303 81 348 66 379 66 c 0
 424 66 448 126 473 188 c 1
 501 181 l 1
 474 76 444 -12 379 -12 c 0
 332 -12 285 7 232 28 c 0
 173 51 138 74 122 74 c 0
 114 74 109 67 109 56 c 2
 109 12 l 2
 109 -5 76 -12 62 -12 c 0
 45 -12 39 5 39 18 c 0
 39 34 47 56 63 72 c 0
 171 182 287 298 414 426 c 1
 238 426 l 2
 191 426 175 395 143 337 c 1
 118 348 l 1
 140 417 171 472 185 490 c 1xd0
EndSplineSet
EndChar
StartChar: braceleft
Encoding: 123 123 91
Width: 340
Flags: W
HStem: -128 25<229.5 277 258 277> 269 21G<138 138> 672 20G<441 458 458 458>
VStem: 135 63 214 68
LayerCount: 2
Fore
SplineSet
458 692 m 1
 451 667 l 1
 391 663 359 639 345 603 c 0
 333 568 332 525 331 495 c 0
 328 382 330 312 212 285 c 1
 212 279 l 1xe8
 315 258 287 180 235 69 c 0
 221 37 197 -12 198 -47 c 0
 200 -78 220 -99 277 -103 c 1
 269 -128 l 1
 258 -128 l 2
 201 -128 138 -108 135 -39 c 0xf8
 134 1 152 46 180 107 c 0
 212 180 252 266 138 269 c 1
 146 295 l 1
 260 298 258 384 260 465 c 0
 266 588 292 692 441 692 c 2
 458 692 l 1
EndSplineSet
EndChar
StartChar: bar
Encoding: 124 124 92
Width: 270
Flags: MW
HStem: -250 1000<165 233 165 233>
VStem: 165 68<-250 750 -250 750>
LayerCount: 2
Fore
SplineSet
165 -250 m 1
 165 750 l 1
 233 750 l 1
 233 -250 l 1
 165 -250 l 1
EndSplineSet
EndChar
StartChar: braceright
Encoding: 125 125 93
Width: 340
Flags: W
HStem: 667 25<196 214>
VStem: 191 67 275 62
LayerCount: 2
Fore
SplineSet
275 611 m 0
 273 642 253 663 196 667 c 1
 204 692 l 1
 214 692 l 2
 271 692 334 672 337 603 c 0xe0
 338 563 319 518 292 457 c 0
 260 384 220 298 334 295 c 1
 326 269 l 1
 212 266 216 180 212 99 c 0
 206 -24 185 -128 31 -128 c 2
 15 -128 l 1
 22 -103 l 1
 82 -99 114 -75 128 -39 c 0
 141 -5 141 39 142 69 c 0
 145 182 143 252 261 279 c 1
 261 285 l 1xc0
 158 306 186 384 238 495 c 0
 253 527 276 576 275 611 c 0
EndSplineSet
EndChar
StartChar: asciitilde
Encoding: 126 126 94
Width: 570
Flags: W
HStem: 192 69<428 457 428 465.5> 238 69<233 265>
VStem: 133 424<201 293>
LayerCount: 2
Fore
SplineSet
517 318 m 1xe0
 557 293 l 1
 529 232 494 192 437 192 c 0xa0
 408 192 374 204 342 215 c 0
 310 227 278 238 252 238 c 0
 214 238 195 217 174 176 c 1
 133 201 l 1
 157 251 190 307 263 307 c 0x60
 293 307 325 296 356 284 c 0
 387 273 416 261 440 261 c 0
 474 261 488 275 517 318 c 1xe0
EndSplineSet
EndChar
StartChar: exclamdown
Encoding: 161 161 95
Width: 240
Flags: MW
HStem: 377 125<196.5 227>
VStem: 151 122<424.5 454>
LayerCount: 2
Fore
SplineSet
66 -217 m 0
 11 -217 11 -189 24 -149 c 2
 164 281 l 1
 192 281 l 1
 137 -154 l 2
 132 -190 119 -217 66 -217 c 0
216 502 m 0
 252 502 273 477 273 445 c 0
 273 404 246 377 208 377 c 0
 172 377 151 403 151 433 c 0
 151 475 177 502 216 502 c 0
EndSplineSet
EndChar
StartChar: cent
Encoding: 162 162 96
Width: 530
Flags: MW
HStem: 87 42<334 375> 563 36<343.5 409 409 443> 649 20G<424 424>
VStem: 129 95
LayerCount: 2
Fore
SplineSet
305 138 m 1
 401 563 l 1
 286 563 226 382 224 277 c 0
 223 210 238 155 305 138 c 1
443 563 m 1
 344 129 l 1
 406 129 459 151 514 220 c 1
 536 201 l 1
 486 124 410 88 334 87 c 1
 310 -21 l 1
 269 -21 l 1
 293 87 l 1
 229 89 127 131 129 275 c 0
 132 426 235 594 409 599 c 1
 424 669 l 1
 465 668 l 1
 451 599 l 1
 522 597 599 559 598 500 c 0
 598 468 563 454 542 455 c 0
 526 455 518 465 515 480 c 0
 503 533 470 562 443 563 c 1
EndSplineSet
EndChar
StartChar: sterling
Encoding: 163 163 97
Width: 530
Flags: W
HStem: 0 72<203 420 420 445 203 467> 291 38<131 238 131 244 122 238 337 337 337 472> 645 35<373 430>
VStem: 213 85 252 81
LayerCount: 2
Fore
SplineSet
467 0 m 1xe8
 47 0 l 1
 44 5 l 1
 67 45 l 1
 139 70 221 105 244 175 c 0
 254 204 256 239 244 291 c 1xe8
 122 291 l 1
 131 329 l 1
 238 329 l 1
 223 373 212 426 213 477 c 0
 215 584 283 680 424 680 c 0
 533 680 585 620 584 582 c 0
 584 546 552 534 533 534 c 0
 516 534 511 547 508 559 c 0
 492 615 454 645 406 645 c 0
 340 645 301 591 298 519 c 0
 295 451 317 393 333 329 c 1xf0
 481 329 l 1
 472 291 l 1
 337 291 l 1
 338 273 337 254 333 232 c 0
 324 180 286 123 202 76 c 1
 203 72 l 1
 420 72 l 2
 470 72 487 103 505 125 c 1
 531 115 l 1
 467 0 l 1xe8
EndSplineSet
EndChar
StartChar: currency
Encoding: 168 164 102
Width: 530
Flags: MW
HStem: 109 53<308.5 353.5> 506 53<308.5 353.5 308.5 374.5>
VStem: 109 72<309.5 358.5> 481 72<309.5 358.5 309.5 383>
LayerCount: 2
Fore
SplineSet
331 559 m 0
 376 559 428 548 465 513 c 1
 492 552 l 2
 511 580 530 587 554 567 c 0
 579 547 577 526 546 502 c 2
 507 472 l 1
 543 426 553 383 553 334 c 0
 553 285 543 242 507 196 c 1
 546 166 l 2
 577 142 579 121 554 101 c 0
 530 81 511 88 492 116 c 2
 465 155 l 1
 428 120 376 109 331 109 c 0
 286 109 234 120 197 155 c 1
 170 116 l 2
 151 88 132 81 108 101 c 0
 83 121 85 142 116 166 c 2
 155 196 l 1
 119 242 109 285 109 334 c 0
 109 383 119 426 155 472 c 1
 116 502 l 2
 85 526 83 547 108 567 c 0
 132 587 151 580 170 552 c 2
 197 513 l 1
 234 548 286 559 331 559 c 0
331 506 m 0
 244 506 181 432 181 334 c 0
 181 236 244 162 331 162 c 0
 418 162 481 236 481 334 c 0
 481 432 418 506 331 506 c 0
EndSplineSet
EndChar
StartChar: yen
Encoding: 165 165 99
Width: 530
Flags: MW
HStem: 0 31.5 187 36<117 259 107 267 352 506> 311 36<144 274 144 283 134 274 399 529> 638 30<653 653>
VStem: 107 573<187 668>
LayerCount: 2
Fore
SplineSet
149 668 m 1
 369 668 l 1
 363 639 l 1
 321 637 l 2
 298 636 293 627 297 609 c 2
 357 347 l 1
 359 347 l 1
 426 446 495 538 534 601 c 0
 548 624 549 634 532 635 c 2
 481 639 l 1
 487 668 l 1
 680 668 l 1
 674 639 l 1
 653 638 l 2
 626 637 605 622 580 588 c 2
 399 347 l 1
 538 347 l 1
 529 311 l 1
 373 311 l 1
 352 223 l 1
 515 223 l 1
 506 187 l 1
 344 187 l 1
 317 63 l 2
 313 44 322 36 342 34 c 2
 402 29 l 1
 396 0 l 1
 132 0 l 1
 138 29 l 1
 198 34 l 2
 214 35 227 44 231 63 c 2
 259 187 l 1
 107 187 l 1
 117 223 l 1
 267 223 l 1
 283 311 l 1
 134 311 l 1
 144 347 l 1
 274 347 l 1
 207 598 l 2
 202 617 195 636 177 637 c 2
 142 639 l 1
 149 668 l 1
EndSplineSet
EndChar
StartChar: brokenbar
Encoding: 275 166 168
Width: 270
Flags: MW
HStem: 655 20G<165 233 233 233>
VStem: 165 68<-175 175 -175 175 325 675>
LayerCount: 2
Fore
SplineSet
165 675 m 1
 233 675 l 1
 233 325 l 1
 165 325 l 1
 165 675 l 1
165 -175 m 1
 165 175 l 1
 233 175 l 1
 233 -175 l 1
 165 -175 l 1
EndSplineSet
EndChar
StartChar: section
Encoding: 167 167 101
Width: 530
Flags: MW
HStem: -115 35<251.5 290 251.5 300.5> 672 35<387 428.5>
VStem: 121 60 258 64 355 68 490 58
LayerCount: 2
Fore
SplineSet
181 406 m 0
 180 356 203 302 284 245 c 0
 365 189 414 135 423 85 c 1
 456 110 489 147 490 207 c 0
 491 272 454 329 389 375 c 0
 317 425 266 472 258 526 c 1
 220 506 182 463 181 406 c 0
548 259 m 0
 546 169 489 96 426 39 c 1
 417 -48 357 -115 244 -115 c 0
 146 -115 89 -65 90 -23 c 0
 90 12 121 25 138 25 c 0
 152 25 159 13 165 -1 c 0
 192 -65 235 -80 268 -80 c 0
 312 -80 354 -46 355 9 c 0
 356 46 352 101 243 173 c 0
 132 246 120 312 121 360 c 0
 123 447 182 522 256 572 c 1
 262 621 310 707 431 707 c 0
 525 707 568 660 568 626 c 0
 567 596 538 586 520 586 c 0
 508 586 501 595 494 611 c 0
 477 650 447 672 410 672 c 0
 364 672 323 636 322 587 c 0
 322 562 324 516 421 454 c 0
 511 396 549 341 548 259 c 0
EndSplineSet
EndChar
StartChar: dieresis
Encoding: 200 168 130
Width: 400
Flags: MW
HStem: 572 110<249.5 273.5 457.5 481.5>
VStem: 207 107<616 639> 415 107<616 639>
LayerCount: 2
Fore
SplineSet
256 572 m 0
 224 572 207 592 207 621 c 0
 207 657 233 682 266 682 c 0
 296 682 314 658 314 633 c 0
 314 599 291 572 256 572 c 0
464 572 m 0
 432 572 415 592 415 621 c 0
 415 657 441 682 474 682 c 0
 504 682 522 658 522 633 c 0
 522 599 499 572 464 572 c 0
EndSplineSet
EndChar
StartChar: copyright
Encoding: 325 169 218
Width: 836
Flags: MW
HStem: -15 45<406 574 406 590.5> 149 28<462.5 536> 522 28<463 535 441.5 550.5> 662 45<406 574>
VStem: 126 64<257.5 434.5 257.5 446> 300 81<314.5 400.5 314.5 408.5> 624 20<421 421> 790 64<257.5 434.5>
LayerCount: 2
Fore
SplineSet
644 421 m 1
 624 421 l 1
 614 475 592 522 509 522 c 0
 417 522 381 444 381 357 c 0
 381 272 411 177 514 177 c 0
 579 177 613 209 632 280 c 1
 652 280 l 1
 641 180 l 1
 615 161 568 149 504 149 c 0
 357 149 300 235 300 348 c 0
 300 469 372 550 511 550 c 0
 559 550 613 539 644 519 c 1
 644 421 l 1
490 -15 m 0
 289 -15 126 146 126 346 c 0
 126 546 289 707 490 707 c 0
 691 707 854 546 854 346 c 0
 854 146 691 -15 490 -15 c 0
490 662 m 0
 322 662 190 523 190 346 c 0
 190 169 322 30 490 30 c 0
 658 30 790 169 790 346 c 0
 790 523 658 662 490 662 c 0
EndSplineSet
EndChar
StartChar: ordfeminine
Encoding: 227 170 138
Width: 425
Flags: MW
HStem: 265 42<210.5 218> 562 28<305.5 359 269 365>
VStem: 112 79<330 377 330 382.5> 332 71
LayerCount: 2
Fore
SplineSet
397 549 m 1
 391 557 375 562 355 562 c 0
 256 562 191 412 191 342 c 0
 191 318 200 307 221 307 c 0
 252 307 294 349 325 396 c 0
 359 446 384 507 397 549 c 1
405 585 m 1
 478 585 l 1
 408 344 l 2
 401 320 400 307 412 307 c 0
 432 307 461 349 475 371 c 1
 495 359 l 1
 468 306 423 265 371 265 c 0
 339 265 324 289 336 330 c 2
 356 398 l 1
 353 398 l 1
 317 343 257 265 179 265 c 0
 130 265 112 301 112 341 c 0
 112 424 191 590 347 590 c 0
 371 590 387 586 402 577 c 1
 405 585 l 1
EndSplineSet
EndChar
StartChar: guillemotleft
Encoding: 171 171 105
Width: 462
Flags: W
HStem: 41 394<236 290 290 431>
VStem: 114 90 114 391 309 90
LayerCount: 2
Fore
SplineSet
290 435 m 1xa0
 310 418 l 1
 208 255 l 2
 201 244 200 233 204 221 c 2
 259 56 l 1
 236 41 l 1
 117 223 l 2
 111 232 113 246 121 254 c 2xd0
 290 435 l 1xa0
485 435 m 1
 505 418 l 1
 403 255 l 2
 396 244 395 233 399 221 c 2
 454 56 l 1
 431 41 l 1
 312 223 l 2
 306 232 308 246 316 254 c 2
 485 435 l 1
EndSplineSet
EndChar
StartChar: logicalnot
Encoding: 265 172 158
Width: 570
Flags: MW
HStem: 331 58<93 509 93 577>
VStem: 509 68<102 331 331 331>
LayerCount: 2
Fore
SplineSet
509 102 m 1
 509 331 l 1
 93 331 l 1
 93 389 l 1
 577 389 l 1
 577 102 l 1
 509 102 l 1
EndSplineSet
EndChar
StartChar: registered
Encoding: 281 174 174
Width: 836
Flags: W
HStem: -15 45<406 574 406 590.5> 159 15<634 678> 159 22 334 28<441 475 441 479> 512 28<465.5 505> 662 45<406 574>
VStem: 126 64<257.5 434.5 257.5 446> 376 65<211 334 362 486 486 491> 565 70<418.5 468.5> 790 64<257.5 434.5>
LayerCount: 2
Fore
SplineSet
493 159 m 1xbfc0
 325 159 l 1
 325 179 l 1
 356 183 l 2
 373 185 376 194 376 211 c 2xbfc0
 376 486 l 2
 376 505 373 513 356 516 c 2
 325 520 l 1
 325 540 l 1
 505 540 l 2
 602 540 635 500 635 446 c 0
 635 391 594 360 538 351 c 1
 538 349 l 1
 598 334 608 297 616 253 c 0
 621 224 630 206 643 191 c 0
 651 183 664 178 678 174 c 1
 678 159 l 1
 634 159 l 2
 591 159 571 174 561 202 c 0xdfc0
 547 242 544 285 535 304 c 0
 525 325 506 334 475 334 c 2
 441 334 l 1
 441 211 l 2
 441 194 445 185 463 183 c 2
 493 179 l 1
 493 159 l 1xbfc0
441 491 m 2
 441 362 l 1
 479 362 l 2
 530 362 565 383 565 438 c 0
 565 499 524 512 486 512 c 0
 445 512 441 506 441 491 c 2
490 -15 m 0
 289 -15 126 146 126 346 c 0
 126 546 289 707 490 707 c 0
 691 707 854 546 854 346 c 0
 854 146 691 -15 490 -15 c 0
490 662 m 0
 322 662 190 523 190 346 c 0
 190 169 322 30 490 30 c 0
 658 30 790 169 790 346 c 0
 790 523 658 662 490 662 c 0
EndSplineSet
EndChar
StartChar: macron
Encoding: 197 175 127
Width: 400
Flags: MW
HStem: 597 59<246 506 228 524>
VStem: 228 296<597 656>
LayerCount: 2
Fore
SplineSet
246 656 m 1
 524 656 l 1
 506 597 l 1
 228 597 l 1
 246 656 l 1
EndSplineSet
EndChar
StartChar: degree
Encoding: 258 176 151
Width: 400
Flags: MW
HStem: 404 48<303 346.5 303 362.5> 632 48<302.5 346>
VStem: 187 56<516 542 516 542> 407 56<516 567.5>
LayerCount: 2
Fore
SplineSet
463 542 m 0
 463 466 400 404 325 404 c 0
 249 404 187 466 187 542 c 0
 186 617 249 680 325 680 c 0
 400 680 463 617 463 542 c 0
324 632 m 0
 281 632 242 593 243 542 c 0
 243 490 281 452 325 452 c 0
 368 452 407 490 407 542 c 0
 407 593 368 632 324 632 c 0
EndSplineSet
EndChar
StartChar: plusminus
Encoding: 317 177 210
Width: 570
Flags: MW
HStem: 0 58<93 577 93 577> 311 58<93 302 93 302 370 577>
VStem: 302 68<114 311 114 311 369 556>
LayerCount: 2
Fore
SplineSet
93 311 m 1
 93 369 l 1
 302 369 l 1
 302 556 l 1
 370 556 l 1
 370 369 l 1
 577 369 l 1
 577 311 l 1
 370 311 l 1
 370 114 l 1
 302 114 l 1
 302 311 l 1
 93 311 l 1
93 0 m 1
 93 58 l 1
 577 58 l 1
 577 0 l 1
 93 0 l 1
EndSplineSet
EndChar
StartChar: twosuperior
Encoding: 299 178 192
Width: 370
Flags: MW
HStem: 272 59<156 311 311 327 156 357> 652 28<281.5 319.5>
VStem: 351 83<556 602>
LayerCount: 2
Fore
SplineSet
357 272 m 1
 77 272 l 1
 70 281 l 1
 88 330 148 391 215 426 c 0
 305 473 351 525 351 587 c 0
 351 617 341 652 298 652 c 0
 265 652 235 627 219 573 c 0
 216 562 205 552 191 552 c 0
 172 552 153 568 153 584 c 0
 153 620 205 680 300 680 c 0
 391 680 434 634 434 571 c 0
 434 500 372 465 283 426 c 0
 215 396 167 355 156 331 c 1
 311 331 l 2
 343 331 353 341 371 364 c 1
 393 357 l 1
 357 272 l 1
EndSplineSet
EndChar
StartChar: threesuperior
Encoding: 313 179 206
Width: 370
Flags: W
HStem: 265 28<214.5 258.5 214.5 287> 470 31<252 272> 487 14 652 28<274.5 309.5>
VStem: 314 83<369.5 407.5 357 425> 346 78<574 610 554 615>
LayerCount: 2
Fore
SplineSet
293 680 m 0xdc
 380 680 424 639 424 581 c 0xb4
 424 527 378 492 316 487 c 1
 316 485 l 1xb8
 379 473 397 426 397 389 c 0
 397 325 348 265 226 265 c 0
 140 265 94 310 94 344 c 0
 94 361 110 383 135 383 c 0
 150 383 155 372 160 357 c 0
 174 314 196 293 233 293 c 0
 284 293 314 339 314 400 c 0
 314 450 291 470 253 470 c 0xd8
 235 470 206 463 198 463 c 0
 189 463 185 470 185 479 c 0
 185 498 194 509 202 509 c 0
 212 509 241 501 263 501 c 0
 321 501 346 552 346 596 c 0
 346 634 324 652 295 652 c 0
 254 652 236 621 218 587 c 0
 212 576 206 568 190 568 c 0
 173 568 156 584 156 599 c 0
 156 633 205 680 293 680 c 0xdc
EndSplineSet
EndChar
StartChar: acute
Encoding: 194 180 124
Width: 400
Flags: MW
HStem: 542 181<264 439.5>
VStem: 249 222<562 690>
LayerCount: 2
Fore
SplineSet
264 542 m 1
 249 562 l 1
 368 682 l 2
 398 713 415 723 432 723 c 0
 447 723 471 700 471 680 c 0
 471 659 445 642 415 626 c 2
 264 542 l 1
EndSplineSet
EndChar
StartChar: mu
Encoding: 274 181 167
Width: 618
Flags: W
HStem: -12 52<232 252.5> 447.5 26.5 477 20G<319 319> 482 20G<314 314 622 622>
VStem: 46 95 423 88
LayerCount: 2
Fore
SplineSet
533 490 m 1x94
 622 502 l 1x94
 515 94 l 2
 507 63 507 40 528 40 c 0
 556 40 600 112 620 146 c 1
 644 131 l 1
 609 57 549 -12 477 -12 c 0
 424 -12 412 29 431 96 c 2
 464 210 l 1
 462 210 l 1
 402 94 297 -12 208 -12 c 0
 189 -12 171 -5 154 11 c 1
 146 -21 l 2
 139 -46 139 -83 144 -109 c 0
 149 -132 155 -152 155 -170 c 0
 155 -204 101 -232 72 -232 c 0
 51 -232 41 -218 49 -187 c 2
 203 397 l 2
 211 428 212 443 188 445 c 2
 126 450 l 1
 132 474 l 1xdc
 314 502 l 1
 319 497 l 1xa4
 223 128 l 2
 208 70 216 40 248 40 c 0
 331 40 418 173 462 274 c 0
 488 335 504 388 533 490 c 1x94
EndSplineSet
EndChar
StartChar: paragraph
Encoding: 182 182 114
Width: 560
Flags: MW
HStem: -101 30.5 661.5 30.5
VStem: 144 528<383 692>
LayerCount: 2
Fore
SplineSet
427 692 m 1
 335 250 l 1
 324 250 l 2
 218 250 144 329 144 437 c 0
 144 574 261 692 415 692 c 2
 427 692 l 1
562 620 m 2
 411 -101 l 1
 237 -101 l 1
 242 -75 l 1
 318 -66 l 2
 339 -63 348 -55 354 -26 c 2
 504 692 l 1
 672 692 l 1
 667 666 l 1
 597 657 l 2
 577 654 568 649 562 620 c 2
EndSplineSet
EndChar
StartChar: periodcentered
Encoding: 180 183 113
Width: 265
Flags: MW
HStem: 187 125<170 200.5>
VStem: 124 122<235 264.5>
LayerCount: 2
Fore
SplineSet
181 187 m 0
 145 187 124 212 124 244 c 0
 124 285 151 312 189 312 c 0
 225 312 246 286 246 256 c 0
 246 214 220 187 181 187 c 0
EndSplineSet
EndChar
StartChar: cedilla
Encoding: 203 184 132
Width: 400
Flags: MW
HStem: -230 34
VStem: 97 179
LayerCount: 2
Fore
SplineSet
201 0 m 1
 246 0 l 1
 202 -60 l 1
 248 -66 284 -107 274 -157 c 0
 265 -203 216 -230 163 -230 c 0
 138 -230 112 -226 97 -220 c 1
 101 -196 l 1
 146 -202 199 -195 199 -147 c 0
 199 -120 179 -97 144 -95 c 1
 141 -86 l 1
 201 0 l 1
EndSplineSet
EndChar
StartChar: onesuperior
Encoding: 256 185 149
Width: 370
Flags: W
HStem: 272 25 656 20G<361 361> 660 20G<358 358>
VStem: 125 236
LayerCount: 2
Fore
SplineSet
350 272 m 1xb0
 125 272 l 1
 130 295 l 1
 181 299 l 2
 199 300 209 306 212 322 c 2
 274 611 l 2
 277 623 275 629 260 631 c 2
 205 640 l 1
 208 659 l 1
 358 680 l 1
 361 676 l 1xd0
 285 322 l 2
 282 306 288 300 307 299 c 2
 355 295 l 1
 350 272 l 1xb0
EndSplineSet
EndChar
StartChar: ordmasculine
Encoding: 235 186 142
Width: 389
Flags: MW
HStem: 265 28<238 276.5 238 293.5> 562 28<282.5 345>
VStem: 121 78<348.5 391.5 337.5 398.5> 377 78<478.5 510.5>
LayerCount: 2
Fore
SplineSet
318 590 m 0
 382 590 455 565 455 467 c 0
 455 442 445 391 416 347 c 0
 384 301 333 265 254 265 c 0
 166 265 121 314 121 383 c 0
 121 414 131 465 161 508 c 0
 192 554 243 590 318 590 c 0
322 562 m 0
 243 562 199 424 199 359 c 0
 199 316 221 293 255 293 c 0
 298 293 327 329 348 375 c 0
 368 420 377 463 377 494 c 0
 377 527 368 562 322 562 c 0
EndSplineSet
EndChar
StartChar: guillemotright
Encoding: 187 187 119
Width: 462
Flags: W
HStem: 41 394<84 138 138 279>
VStem: 64 391 170 90 365 90
LayerCount: 2
Fore
SplineSet
84 41 m 1xc0
 64 58 l 1
 166 221 l 2
 173 232 174 243 170 255 c 2
 115 420 l 1
 138 435 l 1
 257 253 l 2
 263 244 261 230 253 222 c 2xb0
 84 41 l 1xc0
279 41 m 1
 259 58 l 1
 361 221 l 2
 368 232 369 243 365 255 c 2
 310 420 l 1
 333 435 l 1
 452 253 l 2
 458 244 456 230 448 222 c 2
 279 41 l 1
EndSplineSet
EndChar
StartChar: onequarter
Encoding: 264 188 157
Width: 890
Flags: W
HStem: 0 24.5 104 33<576 695 772 830> 272 25 329 72<739 828 739 828> 651 20G<802 802> 678 20G<768 768>
VStem: 132 708<137 272>
LayerCount: 2
Fore
SplineSet
576 137 m 1
 702 137 l 1
 745 329 l 1
 739 329 l 1
 683 273 629 207 576 137 c 1
695 104 m 1
 524 104 l 1
 515 120 l 1
 596 220 683 317 766 401 c 1
 828 401 l 1
 772 137 l 1
 840 137 l 1
 830 104 l 1
 765 104 l 1
 754 50 l 2
 751 34 757 27 771 26 c 2
 804 23 l 1
 799 0 l 1
 606 0 l 1
 611 23 l 1
 657 26 l 2
 670 27 681 34 684 50 c 2
 695 104 l 1
265 -24 m 1
 232 6 l 1
 768 698 l 1xf6
 802 671 l 1xfa
 265 -24 l 1
357 272 m 1
 132 272 l 1
 137 295 l 1
 188 299 l 2
 206 300 216 306 219 322 c 2
 281 611 l 2
 284 623 282 629 267 631 c 2
 212 640 l 1
 215 659 l 1
 365 680 l 1
 368 676 l 1
 292 322 l 2
 289 306 295 300 314 299 c 2
 362 295 l 1
 357 272 l 1
EndSplineSet
EndChar
StartChar: onehalf
Encoding: 267 189 160
Width: 890
Flags: W
HStem: 0 59<569 724 724 740 569 770> 272 25 380 28<694.5 732.5> 651 20G<750 750> 678 20G<716 716>
VStem: 764 83<284 330>
LayerCount: 2
Fore
SplineSet
331 272 m 1
 106 272 l 1
 111 295 l 1
 162 299 l 2
 180 300 190 306 193 322 c 2
 255 611 l 2
 258 623 256 629 241 631 c 2
 186 640 l 1
 189 659 l 1
 339 680 l 1
 342 676 l 1
 266 322 l 2
 263 306 269 300 288 299 c 2
 336 295 l 1
 331 272 l 1
213 -24 m 1
 180 6 l 1
 716 698 l 1xec
 750 671 l 1xf4
 213 -24 l 1
770 0 m 1
 490 0 l 1
 483 9 l 1
 501 58 561 119 628 154 c 0
 718 201 764 253 764 315 c 0
 764 345 754 380 711 380 c 0
 678 380 648 355 632 301 c 0
 629 290 618 280 604 280 c 0
 585 280 566 296 566 312 c 0
 566 348 618 408 713 408 c 0
 804 408 847 362 847 299 c 0
 847 228 785 193 696 154 c 0
 628 124 580 83 569 59 c 1
 724 59 l 2
 756 59 766 69 784 92 c 1
 806 85 l 1
 770 0 l 1
EndSplineSet
EndChar
StartChar: threequarters
Encoding: 315 190 208
Width: 890
Flags: W
HStem: 0 24.5 104 33<587 706 783 841> 265 28<260.5 304.5 260.5 333> 329 72<750 839 750 839> 470 31<298 318> 487 14 651 20G<825 825> 652 28<320.5 355.5> 678 20G<791 791>
VStem: 360 83<369.5 407.5 357 425> 392 78<574 610 554 615>
LayerCount: 2
Fore
SplineSet
706 104 m 1xf940
 535 104 l 1
 526 120 l 1
 607 220 694 317 777 401 c 1
 839 401 l 1
 783 137 l 1
 851 137 l 1
 841 104 l 1
 776 104 l 1
 765 50 l 2
 762 34 768 27 782 26 c 2
 815 23 l 1
 810 0 l 1
 617 0 l 1
 622 23 l 1
 668 26 l 2
 681 27 692 34 695 50 c 2
 706 104 l 1xf940
587 137 m 1
 713 137 l 1
 756 329 l 1
 750 329 l 1
 694 273 640 207 587 137 c 1
288 -24 m 1
 255 6 l 1
 791 698 l 1xf8c0
 825 671 l 1xfa40
 288 -24 l 1
339 680 m 0xf920
 426 680 470 639 470 581 c 0xf520
 470 527 424 492 362 487 c 1
 362 485 l 1xf540
 425 473 443 426 443 389 c 0
 443 325 394 265 272 265 c 0
 186 265 140 310 140 344 c 0
 140 361 156 383 181 383 c 0
 196 383 201 372 206 357 c 0
 220 314 242 293 279 293 c 0
 330 293 360 339 360 400 c 0
 360 450 337 470 299 470 c 0xf940
 281 470 252 463 244 463 c 0
 235 463 231 470 231 479 c 0
 231 498 240 509 248 509 c 0
 258 509 287 501 309 501 c 0
 367 501 392 552 392 596 c 0
 392 634 370 652 341 652 c 0
 300 652 282 621 264 587 c 0
 258 576 252 568 236 568 c 0
 219 568 202 584 202 599 c 0
 202 633 251 680 339 680 c 0xf920
EndSplineSet
EndChar
StartChar: questiondown
Encoding: 191 191 122
Width: 425
Flags: W
HStem: -217 35<169.5 214.5 169.5 251> 246 45<207 290> 377 125<302.5 333>
VStem: 38 93<-127.5 -77.5 -129.5 -47.5> 257 122<424.5 454> 280 89<181.5 209.5>
LayerCount: 2
Fore
SplineSet
195 -217 m 0xf8
 98 -217 38 -165 38 -90 c 0
 38 -5 89 30 166 69 c 0
 231 102 280 136 280 188 c 0
 280 231 249 246 216 246 c 0
 198 246 185 244 173 243 c 1
 167 260 l 1
 189 276 231 291 265 291 c 0
 315 291 369 267 369 205 c 0xf4
 369 158 334 122 265 82 c 0
 170 26 131 -46 131 -109 c 0
 131 -150 149 -182 190 -182 c 0
 239 -182 268 -134 290 -78 c 0
 294 -67 304 -59 321 -59 c 0
 337 -59 365 -74 365 -103 c 0
 365 -144 307 -217 195 -217 c 0xf8
322 502 m 0
 358 502 379 477 379 445 c 0
 379 404 352 377 314 377 c 0
 278 377 257 403 257 433 c 0
 257 475 283 502 322 502 c 0
EndSplineSet
EndChar
StartChar: Agrave
Encoding: 283 192 176
Width: 624
Flags: MW
HStem: 0 31.5 267 38<263 462 263 467 243 462> 672 20G<435 506 506 506>
VStem: -23 681<0 29>
LayerCount: 2
Fore
SplineSet
652 0 m 1
 406 0 l 1
 412 29 l 1
 465 34 l 2
 485 36 493 44 490 73 c 2
 467 267 l 1
 243 267 l 1
 206 200 173 135 140 71 c 0
 131 50 133 36 153 34 c 2
 208 29 l 1
 202 0 l 1
 -23 0 l 1
 -17 29 l 1
 16 33 l 2
 47 36 64 47 96 99 c 0
 133 159 216 308 267 397 c 2
 435 692 l 1
 506 692 l 1
 580 90 l 2
 585 49 589 35 620 32 c 2
 658 29 l 1
 652 0 l 1
462 305 m 1
 427 599 l 1
 425 599 l 1
 371 502 316 404 263 305 c 1
 462 305 l 1
549 764 m 1
 538 742 l 1
 368 798 l 2
 323 812 309 819 307 838 c 0
 305 858 324 887 339 890 c 0
 355 893 369 887 404 863 c 2
 549 764 l 1
EndSplineSet
EndChar
StartChar: Aacute
Encoding: 291 193 184
Width: 624
Flags: MW
HStem: 0 31.5 267 38<263 462 263 467 243 462> 672 20G<435 506 506 506>
VStem: -23 681<0 29>
LayerCount: 2
Fore
SplineSet
652 0 m 1
 406 0 l 1
 412 29 l 1
 465 34 l 2
 485 36 493 44 490 73 c 2
 467 267 l 1
 243 267 l 1
 206 200 173 135 140 71 c 0
 131 50 133 36 153 34 c 2
 208 29 l 1
 202 0 l 1
 -23 0 l 1
 -17 29 l 1
 16 33 l 2
 47 36 64 47 96 99 c 0
 133 159 216 308 267 397 c 2
 435 692 l 1
 506 692 l 1
 580 90 l 2
 585 49 589 35 620 32 c 2
 658 29 l 1
 652 0 l 1
462 305 m 1
 427 599 l 1
 425 599 l 1
 371 502 316 404 263 305 c 1
 462 305 l 1
401 742 m 1
 390 764 l 1
 535 863 l 2
 570 887 584 893 600 890 c 0
 615 887 634 858 632 838 c 0
 630 819 616 812 571 798 c 2
 401 742 l 1
EndSplineSet
EndChar
StartChar: Acircumflex
Encoding: 306 194 199
Width: 624
Flags: W
HStem: 0 31.5 267 38<263 462 263 467 243 462> 672 20G<435 506 506 506> 721 20G<621 621> 722 20G<315 328>
VStem: -23 681<0 29>
LayerCount: 2
Fore
SplineSet
652 0 m 1xec
 406 0 l 1
 412 29 l 1
 465 34 l 2
 485 36 493 44 490 73 c 2
 467 267 l 1
 243 267 l 1
 206 200 173 135 140 71 c 0
 131 50 133 36 153 34 c 2
 208 29 l 1
 202 0 l 1
 -23 0 l 1
 -17 29 l 1
 16 33 l 2
 47 36 64 47 96 99 c 0
 133 159 216 308 267 397 c 2
 435 692 l 1
 506 692 l 1
 580 90 l 2
 585 49 589 35 620 32 c 2
 658 29 l 1
 652 0 l 1xec
462 305 m 1
 427 599 l 1
 425 599 l 1
 371 502 316 404 263 305 c 1
 462 305 l 1
621 741 m 1xf4
 603 722 l 1
 513 781 l 2
 501 790 490 797 481 797 c 0
 473 797 458 790 445 783 c 2
 328 722 l 1
 315 742 l 1xec
 455 853 l 2
 473 868 484 876 497 876 c 0
 509 876 519 865 530 851 c 2
 621 741 l 1xf4
EndSplineSet
EndChar
StartChar: Atilde
Encoding: 303 195 196
Width: 624
Flags: W
HStem: 0 31.5 267 38<263 462 263 467 243 462> 672 20G<435 506 506 506> 736 60<555.5 574.5> 774 60<379 401>
VStem: -23 681<0 29>
LayerCount: 2
Fore
SplineSet
652 0 m 1xec
 406 0 l 1
 412 29 l 1
 465 34 l 2
 485 36 493 44 490 73 c 2
 467 267 l 1
 243 267 l 1
 206 200 173 135 140 71 c 0
 131 50 133 36 153 34 c 2
 208 29 l 1
 202 0 l 1
 -23 0 l 1
 -17 29 l 1
 16 33 l 2
 47 36 64 47 96 99 c 0
 133 159 216 308 267 397 c 2
 435 692 l 1
 506 692 l 1
 580 90 l 2
 585 49 589 35 620 32 c 2
 658 29 l 1
 652 0 l 1xec
462 305 m 1
 427 599 l 1
 425 599 l 1
 371 502 316 404 263 305 c 1
 462 305 l 1
634 842 m 1xf4
 654 831 l 1
 625 774 599 736 550 736 c 0xf4
 528 736 499 746 470 755 c 0
 441 765 412 774 390 774 c 0
 357 774 340 758 318 723 c 1
 299 736 l 1
 319 776 347 834 411 834 c 0xec
 435 834 463 825 490 815 c 0
 518 806 545 796 566 796 c 0
 594 796 606 807 634 842 c 1xf4
EndSplineSet
EndChar
StartChar: Adieresis
Encoding: 310 196 203
Width: 624
Flags: MW
HStem: 0 31.5 267 38<263 462 263 467 243 462> 672 20G<435 506 506 506> 738 110<362.5 386.5 570.5 594.5>
VStem: 320 107<782 805> 528 107<782 805>
LayerCount: 2
Fore
SplineSet
652 0 m 1
 406 0 l 1
 412 29 l 1
 465 34 l 2
 485 36 493 44 490 73 c 2
 467 267 l 1
 243 267 l 1
 206 200 173 135 140 71 c 0
 131 50 133 36 153 34 c 2
 208 29 l 1
 202 0 l 1
 -23 0 l 1
 -17 29 l 1
 16 33 l 2
 47 36 64 47 96 99 c 0
 133 159 216 308 267 397 c 2
 435 692 l 1
 506 692 l 1
 580 90 l 2
 585 49 589 35 620 32 c 2
 658 29 l 1
 652 0 l 1
462 305 m 1
 427 599 l 1
 425 599 l 1
 371 502 316 404 263 305 c 1
 462 305 l 1
369 738 m 0
 337 738 320 758 320 787 c 0
 320 823 346 848 379 848 c 0
 409 848 427 824 427 799 c 0
 427 765 404 738 369 738 c 0
577 738 m 0
 545 738 528 758 528 787 c 0
 528 823 554 848 587 848 c 0
 617 848 635 824 635 799 c 0
 635 765 612 738 577 738 c 0
EndSplineSet
EndChar
StartChar: Aring
Encoding: 277 197 170
Width: 624
Flags: W
HStem: 0 31.5 267 38<263 462 263 467 243 462> 665 27<456 509> 672 20G<456 494.5> 828 33<463.5 499>
VStem: 369 57<729 756 727 762> 528 57<769.5 795.5>
LayerCount: 2
Fore
SplineSet
462 305 m 1xde
 427 599 l 1
 425 599 l 1
 371 502 315 404 263 305 c 1
 462 305 l 1xde
528 780 m 0
 528 811 510 828 488 828 c 0
 439 828 426 767 426 745 c 0
 426 709 445 692 467 692 c 0
 522 692 528 759 528 780 c 0
652 0 m 1
 406 0 l 1
 412 29 l 1
 465 34 l 2
 485 36 493 44 490 73 c 2
 467 267 l 1
 243 267 l 1
 206 200 173 135 140 71 c 0
 131 50 133 36 153 34 c 2
 208 29 l 1
 202 0 l 1
 -23 0 l 1
 -17 29 l 1
 16 33 l 2
 47 36 64 47 96 99 c 0
 133 159 216 308 267 397 c 2
 423 666 l 1
 384 681 369 713 369 745 c 0
 369 779 387 861 491 861 c 0
 540 861 585 830 585 770 c 0
 585 706 547 674 509 665 c 1xee
 580 90 l 2
 585 49 589 35 620 32 c 2
 658 29 l 1
 652 0 l 1
EndSplineSet
EndChar
StartChar: AE
Encoding: 225 198 137
Width: 880
Flags: W
HStem: 0 32<-11 -11 -11 185> 0 35<384 384 621.5 707.5> 341 38<343 483 316 492 588 711> 654 38<550 555 550 550> 657 35<464 464 664.5 673 673 794>
VStem: 912 26
LayerCount: 2
Fore
SplineSet
343 379 m 1x6c
 492 379 l 1
 555 654 l 1
 550 654 l 1x74
 343 379 l 1x6c
185 0 m 1
 -53 0 l 1x6c
 -45 29 l 1
 -11 32 l 2
 17 35 32 48 54 76 c 0xac
 155 199 331 435 452 599 c 0
 484 642 482 656 464 657 c 2
 397 663 l 1
 406 692 l 1
 976 692 l 1
 938 525 l 1
 908 525 l 1
 917 615 920 657 794 657 c 2
 673 657 l 2
 656 657 650 652 645 628 c 2
 588 379 l 1
 719 379 l 2
 807 379 818 395 844 464 c 1
 874 464 l 1
 828 255 l 1
 798 255 l 1
 802 320 799 341 711 341 c 2
 580 341 l 1
 529 122 l 2
 518 75 519 60 534 48 c 0
 547 38 597 35 646 35 c 0
 769 35 814 53 865 176 c 1
 895 176 l 1
 844 0 l 1
 322 0 l 1x6c
 328 29 l 1
 384 35 l 2
 408 37 417 49 425 83 c 2
 483 341 l 1
 316 341 l 1
 248 250 183 159 127 71 c 0
 113 50 116 36 134 34 c 2
 193 29 l 1xac
 185 0 l 1
EndSplineSet
EndChar
StartChar: Ccedilla
Encoding: 327 199 220
Width: 661
Flags: W
HStem: -230 34 -15 35<420 427 420 420> -12 32<377 377> 672 35<475.5 572 443 591.5>
VStem: 114 107<213.5 294 172 309.5> 692 30<504 504>
LayerCount: 2
Fore
SplineSet
679 186 m 1xdc
 630 27 l 1
 566 -5 498 -15 427 -15 c 2
 420 -15 l 1
 387 -60 l 1xdc
 433 -66 469 -107 459 -157 c 0
 450 -203 401 -230 348 -230 c 0
 323 -230 297 -226 282 -220 c 1
 286 -196 l 1
 331 -202 384 -195 384 -147 c 0
 384 -120 364 -97 329 -95 c 1
 326 -86 l 1
 377 -12 l 1xbc
 170 7 114 152 114 275 c 0
 114 344 127 436 182 525 c 0
 240 619 349 707 537 707 c 0
 607 707 701 690 758 654 c 1
 722 504 l 1
 692 504 l 1
 697 613 654 672 529 672 c 0
 422 672 343 614 293 530 c 0
 245 450 221 339 221 249 c 0
 221 95 304 20 420 20 c 0
 543 20 594 86 649 186 c 1
 679 186 l 1xdc
EndSplineSet
EndChar
StartChar: Egrave
Encoding: 272 200 165
Width: 596
Flags: W
HStem: 0 32 0 35<100 100 337.5 423.5> 341 38<304 427 296 435> 657 35<380.5 389 389 510> 661 31
VStem: 628 26
LayerCount: 2
Fore
SplineSet
186 692 m 1x74
 692 692 l 1
 654 525 l 1
 624 525 l 1
 633 615 636 657 510 657 c 2
 389 657 l 2
 372 657 366 652 361 628 c 2
 304 379 l 1
 435 379 l 2
 523 379 534 395 560 464 c 1
 590 464 l 1
 544 255 l 1
 514 255 l 1
 518 320 515 341 427 341 c 2
 296 341 l 1
 245 122 l 2
 234 75 235 60 250 48 c 0
 263 38 313 35 362 35 c 0
 485 35 530 53 581 176 c 1
 611 176 l 1
 560 0 l 1
 38 0 l 1x74
 44 29 l 1
 100 35 l 2
 124 37 133 49 141 83 c 2
 261 611 l 2
 269 645 262 657 239 659 c 2
 179 663 l 1xac
 186 692 l 1x74
555 764 m 1
 544 742 l 1
 374 798 l 2
 329 812 315 819 313 838 c 0
 311 858 330 887 345 890 c 0
 361 893 375 887 410 863 c 2
 555 764 l 1
EndSplineSet
EndChar
StartChar: Eacute
Encoding: 262 201 155
Width: 596
Flags: W
HStem: 0 32 0 35<100 100 337.5 423.5> 341 38<304 427 296 435> 657 35<380.5 389 389 510> 661 31
VStem: 628 26
LayerCount: 2
Fore
SplineSet
186 692 m 1x74
 692 692 l 1
 654 525 l 1
 624 525 l 1
 633 615 636 657 510 657 c 2
 389 657 l 2
 372 657 366 652 361 628 c 2
 304 379 l 1
 435 379 l 2
 523 379 534 395 560 464 c 1
 590 464 l 1
 544 255 l 1
 514 255 l 1
 518 320 515 341 427 341 c 2
 296 341 l 1
 245 122 l 2
 234 75 235 60 250 48 c 0
 263 38 313 35 362 35 c 0
 485 35 530 53 581 176 c 1
 611 176 l 1
 560 0 l 1
 38 0 l 1x74
 44 29 l 1
 100 35 l 2
 124 37 133 49 141 83 c 2
 261 611 l 2
 269 645 262 657 239 659 c 2
 179 663 l 1xac
 186 692 l 1x74
410 742 m 1
 399 764 l 1
 544 863 l 2
 579 887 593 893 609 890 c 0
 624 887 643 858 641 838 c 0
 639 819 625 812 580 798 c 2
 410 742 l 1
EndSplineSet
EndChar
StartChar: Ecircumflex
Encoding: 266 202 159
Width: 596
Flags: W
HStem: 0 32 0 35<100 100 337.5 423.5> 341 38<304 427 296 435> 657 35<380.5 389 389 510> 661 31 721 20G<613 613> 722 20G<307 320>
VStem: 628 26
LayerCount: 2
Fore
SplineSet
186 692 m 1x73
 692 692 l 1
 654 525 l 1
 624 525 l 1
 633 615 636 657 510 657 c 2
 389 657 l 2
 372 657 366 652 361 628 c 2
 304 379 l 1
 435 379 l 2
 523 379 534 395 560 464 c 1
 590 464 l 1
 544 255 l 1
 514 255 l 1
 518 320 515 341 427 341 c 2
 296 341 l 1
 245 122 l 2
 234 75 235 60 250 48 c 0
 263 38 313 35 362 35 c 0
 485 35 530 53 581 176 c 1
 611 176 l 1
 560 0 l 1
 38 0 l 1x75
 44 29 l 1
 100 35 l 2
 124 37 133 49 141 83 c 2
 261 611 l 2
 269 645 262 657 239 659 c 2
 179 663 l 1xab
 186 692 l 1x73
613 741 m 1
 595 722 l 1
 505 781 l 2
 493 790 482 797 473 797 c 0
 465 797 450 790 437 783 c 2
 320 722 l 1
 307 742 l 1x73
 447 853 l 2
 465 868 476 876 489 876 c 0
 501 876 511 865 522 851 c 2
 613 741 l 1
EndSplineSet
EndChar
StartChar: Edieresis
Encoding: 286 203 179
Width: 596
Flags: W
HStem: 0 32 0 35<100 100 337.5 423.5> 341 38<304 427 296 435> 657 35<380.5 389 389 510> 661 31 738 110<348.5 372.5 556.5 580.5>
VStem: 306 107<782 805> 514 107<782 805> 628 26
LayerCount: 2
Fore
SplineSet
186 692 m 1x7280
 692 692 l 1
 654 525 l 1
 624 525 l 1
 633 615 636 657 510 657 c 2
 389 657 l 2
 372 657 366 652 361 628 c 2
 304 379 l 1
 435 379 l 2
 523 379 534 395 560 464 c 1
 590 464 l 1
 544 255 l 1
 514 255 l 1
 518 320 515 341 427 341 c 2
 296 341 l 1
 245 122 l 2
 234 75 235 60 250 48 c 0
 263 38 313 35 362 35 c 0
 485 35 530 53 581 176 c 1
 611 176 l 1
 560 0 l 1
 38 0 l 1x7680
 44 29 l 1
 100 35 l 2
 124 37 133 49 141 83 c 2
 261 611 l 2
 269 645 262 657 239 659 c 2
 179 663 l 1xaa80
 186 692 l 1x7280
355 738 m 0
 323 738 306 758 306 787 c 0
 306 823 332 848 365 848 c 0
 395 848 413 824 413 799 c 0
 413 765 390 738 355 738 c 0
563 738 m 0x77
 531 738 514 758 514 787 c 0
 514 823 540 848 573 848 c 0
 603 848 621 824 621 799 c 0
 621 765 598 738 563 738 c 0x77
EndSplineSet
EndChar
StartChar: Igrave
Encoding: 326 204 219
Width: 345
Flags: MW
HStem: 0 31 661 31
VStem: 40 423
LayerCount: 2
Fore
SplineSet
314 0 m 1
 40 0 l 1
 46 29 l 1
 101 35 l 2
 125 37 136 51 143 83 c 2
 263 609 l 2
 270 639 264 657 241 659 c 2
 182 663 l 1
 189 692 l 1
 463 692 l 1
 456 663 l 1
 401 658 l 2
 376 656 366 640 359 609 c 2
 239 83 l 2
 232 52 237 35 261 33 c 2
 320 29 l 1
 314 0 l 1
424 764 m 1
 413 742 l 1
 243 798 l 2
 198 812 184 819 182 838 c 0
 180 858 199 887 214 890 c 0
 230 893 244 887 279 863 c 2
 424 764 l 1
EndSplineSet
EndChar
StartChar: Iacute
Encoding: 324 205 217
Width: 345
Flags: MW
HStem: 0 31 661 31
VStem: 40 446
LayerCount: 2
Fore
SplineSet
314 0 m 1
 40 0 l 1
 46 29 l 1
 101 35 l 2
 125 37 136 51 143 83 c 2
 263 609 l 2
 270 639 264 657 241 659 c 2
 182 663 l 1
 189 692 l 1
 463 692 l 1
 456 663 l 1
 401 658 l 2
 376 656 366 640 359 609 c 2
 239 83 l 2
 232 52 237 35 261 33 c 2
 320 29 l 1
 314 0 l 1
255 742 m 1
 244 764 l 1
 389 863 l 2
 424 887 438 893 454 890 c 0
 469 887 488 858 486 838 c 0
 484 819 470 812 425 798 c 2
 255 742 l 1
EndSplineSet
EndChar
StartChar: Icircumflex
Encoding: 307 206 200
Width: 345
Flags: W
HStem: 0 31 661 31 721 20G<488 488> 722 20G<182 195>
VStem: 40 448
LayerCount: 2
Fore
SplineSet
314 0 m 1xd8
 40 0 l 1
 46 29 l 1
 101 35 l 2
 125 37 136 51 143 83 c 2
 263 609 l 2
 270 639 264 657 241 659 c 2
 182 663 l 1
 189 692 l 1
 463 692 l 1
 456 663 l 1
 401 658 l 2
 376 656 366 640 359 609 c 2
 239 83 l 2
 232 52 237 35 261 33 c 2
 320 29 l 1
 314 0 l 1xd8
488 741 m 1xe8
 470 722 l 1
 380 781 l 2
 368 790 357 797 348 797 c 0
 340 797 325 790 312 783 c 2
 195 722 l 1
 182 742 l 1xd8
 322 853 l 2
 340 868 351 876 364 876 c 0
 376 876 386 865 397 851 c 2
 488 741 l 1xe8
EndSplineSet
EndChar
StartChar: Idieresis
Encoding: 322 207 215
Width: 345
Flags: MW
HStem: 0 31 661 31 738 110<223.5 247.5 431.5 455.5>
VStem: 181 107<782 805> 389 107<782 805>
LayerCount: 2
Fore
SplineSet
314 0 m 1
 40 0 l 1
 46 29 l 1
 101 35 l 2
 125 37 136 51 143 83 c 2
 263 609 l 2
 270 639 264 657 241 659 c 2
 182 663 l 1
 189 692 l 1
 463 692 l 1
 456 663 l 1
 401 658 l 2
 376 656 366 640 359 609 c 2
 239 83 l 2
 232 52 237 35 261 33 c 2
 320 29 l 1
 314 0 l 1
230 738 m 0
 198 738 181 758 181 787 c 0
 181 823 207 848 240 848 c 0
 270 848 288 824 288 799 c 0
 288 765 265 738 230 738 c 0
438 738 m 0
 406 738 389 758 389 787 c 0
 389 823 415 848 448 848 c 0
 478 848 496 824 496 799 c 0
 496 765 473 738 438 738 c 0
EndSplineSet
EndChar
StartChar: Eth
Encoding: 316 208 209
Width: 770
Flags: W
HStem: 0 32 0 35<109 109 300.5 354> 341 38<111 208 101 217 313 439> 657 35<436 464 464 476> 660.5 31.5
VStem: 702 107<390 451.5 381 473>
LayerCount: 2
Fore
SplineSet
439 341 m 1x74
 304 341 l 1
 246 86 l 2
 236 42 273 35 328 35 c 0
 494 35 580 97 637 191 c 0
 682 265 702 347 702 433 c 0
 702 513 684 653 476 657 c 0
 396 657 375 654 367 620 c 2
 313 379 l 1
 450 379 l 1
 439 341 l 1x74
208 341 m 1
 101 341 l 1
 111 379 l 1
 217 379 l 1
 269 609 l 2
 276 642 271 656 248 658 c 2
 189 663 l 1x6c
 195 692 l 1
 464 692 l 2
 575 692 665 669 723 620 c 0
 780 572 809 492 809 411 c 0
 809 351 799 267 742 181 c 0
 670 72 554 0 354 0 c 2
 47 0 l 1x74
 53 29 l 1
 109 35 l 2
 133 37 143 50 150 83 c 2xb4
 208 341 l 1
EndSplineSet
EndChar
StartChar: Ntilde
Encoding: 300 209 193
Width: 763
Flags: W
HStem: 0 30.5 661.5 30.5 736 60<625.5 644.5> 774 60<449 471>
VStem: 258 44
LayerCount: 2
Fore
SplineSet
181 692 m 1xe8
 371 692 l 1
 455 505 541 318 627 131 c 1
 631 131 l 1
 713 493 l 2
 725 546 731 584 734 617 c 0
 737 650 720 655 688 659 c 2
 649 663 l 1
 654 692 l 1
 890 692 l 1
 885 663 l 1
 854 660 l 2
 824 657 807 649 795 617 c 0
 783 584 772 546 760 493 c 2
 648 0 l 1
 583 0 l 1
 491 203 399 406 305 609 c 1
 302 609 l 1
 208 199 l 2
 196 146 190 108 187 75 c 0
 184 44 201 35 233 32 c 2
 272 29 l 1
 267 0 l 1
 31 0 l 1
 36 29 l 1
 67 32 l 2
 97 35 114 43 126 75 c 0
 138 108 149 146 161 199 c 2
 255 609 l 2
 263 642 256 655 233 657 c 2
 174 663 l 1
 181 692 l 1xe8
704 842 m 1
 724 831 l 1
 695 774 669 736 620 736 c 0xe8
 598 736 569 746 540 755 c 0
 511 765 482 774 460 774 c 0
 427 774 410 758 388 723 c 1
 369 736 l 1
 389 776 417 834 481 834 c 0xd8
 505 834 533 825 560 815 c 0
 588 806 615 796 636 796 c 0
 664 796 676 807 704 842 c 1
EndSplineSet
EndChar
StartChar: Ograve
Encoding: 295 210 188
Width: 753
Flags: MW
HStem: -15 35<344 463 344 495.5> 672 35<451 559>
VStem: 114 105<187.5 272 160.5 303> 684 105<437.5 516.5 394.5 536.5>
LayerCount: 2
Fore
SplineSet
504 672 m 0
 398 672 327 599 281 504 c 0
 235 407 219 314 219 230 c 0
 219 91 290 20 398 20 c 0
 528 20 596 113 637 220 c 0
 678 326 684 409 684 466 c 0
 684 607 614 672 504 672 c 0
500 707 m 0
 665 707 789 619 789 414 c 0
 789 375 780 273 726 175 c 0
 671 76 584 -15 407 -15 c 0
 208 -15 114 105 114 270 c 0
 114 336 128 430 183 523 c 0
 241 619 340 707 500 707 c 0
619 764 m 1
 608 742 l 1
 438 798 l 2
 393 812 379 819 377 838 c 0
 375 858 394 887 409 890 c 0
 425 893 439 887 474 863 c 2
 619 764 l 1
EndSplineSet
EndChar
StartChar: Oacute
Encoding: 309 211 202
Width: 753
Flags: MW
HStem: -15 35<344 463 344 495.5> 672 35<451 559>
VStem: 114 105<187.5 272 160.5 303> 684 105<437.5 516.5 394.5 536.5>
LayerCount: 2
Fore
SplineSet
504 672 m 0
 398 672 327 599 281 504 c 0
 235 407 219 314 219 230 c 0
 219 91 290 20 398 20 c 0
 528 20 596 113 637 220 c 0
 678 326 684 409 684 466 c 0
 684 607 614 672 504 672 c 0
500 707 m 0
 665 707 789 619 789 414 c 0
 789 375 780 273 726 175 c 0
 671 76 584 -15 407 -15 c 0
 208 -15 114 105 114 270 c 0
 114 336 128 430 183 523 c 0
 241 619 340 707 500 707 c 0
461 742 m 1
 450 764 l 1
 595 863 l 2
 630 887 644 893 660 890 c 0
 675 887 694 858 692 838 c 0
 690 819 676 812 631 798 c 2
 461 742 l 1
EndSplineSet
EndChar
StartChar: Ocircumflex
Encoding: 330 212 223
Width: 753
Flags: W
HStem: -15 35<344 463 344 495.5> 672 35<451 559> 721 20G<680 680> 722 20G<374 387>
VStem: 114 105<187.5 272 160.5 303> 684 105<437.5 516.5 394.5 536.5>
LayerCount: 2
Fore
SplineSet
504 672 m 0xdc
 398 672 327 599 281 504 c 0
 235 407 219 314 219 230 c 0
 219 91 290 20 398 20 c 0
 528 20 596 113 637 220 c 0
 678 326 684 409 684 466 c 0
 684 607 614 672 504 672 c 0xdc
500 707 m 0
 665 707 789 619 789 414 c 0
 789 375 780 273 726 175 c 0
 671 76 584 -15 407 -15 c 0
 208 -15 114 105 114 270 c 0
 114 336 128 430 183 523 c 0
 241 619 340 707 500 707 c 0
680 741 m 1xec
 662 722 l 1
 572 781 l 2
 560 790 549 797 540 797 c 0
 532 797 517 790 504 783 c 2
 387 722 l 1
 374 742 l 1xdc
 514 853 l 2
 532 868 543 876 556 876 c 0
 568 876 578 865 589 851 c 2
 680 741 l 1xec
EndSplineSet
EndChar
StartChar: Otilde
Encoding: 268 213 161
Width: 753
Flags: W
HStem: -15 35<344 463 344 495.5> 672 35<451 559> 736 60<608.5 627.5> 774 60<432 454>
VStem: 114 105<187.5 272 160.5 303> 684 105<437.5 516.5 394.5 536.5>
LayerCount: 2
Fore
SplineSet
504 672 m 0xcc
 398 672 327 599 281 504 c 0
 235 407 219 314 219 230 c 0
 219 91 290 20 398 20 c 0
 528 20 596 113 637 220 c 0
 678 326 684 409 684 466 c 0
 684 607 614 672 504 672 c 0xcc
500 707 m 0
 665 707 789 619 789 414 c 0
 789 375 780 273 726 175 c 0
 671 76 584 -15 407 -15 c 0
 208 -15 114 105 114 270 c 0
 114 336 128 430 183 523 c 0
 241 619 340 707 500 707 c 0
687 842 m 1xec
 707 831 l 1
 678 774 652 736 603 736 c 0xec
 581 736 552 746 523 755 c 0
 494 765 465 774 443 774 c 0
 410 774 393 758 371 723 c 1
 352 736 l 1
 372 776 400 834 464 834 c 0xdc
 488 834 516 825 543 815 c 0
 571 806 598 796 619 796 c 0
 647 796 659 807 687 842 c 1xec
EndSplineSet
EndChar
StartChar: Odieresis
Encoding: 260 214 153
Width: 753
Flags: W
HStem: -15 35<344 463 344 495.5> 672 35<451 559> 738 110<427.5 451.5 635.5 659.5>
VStem: 114 105<187.5 272 160.5 303> 385 107<782 805> 593 107<782 805> 684 105<437.5 516.5 394.5 536.5>
LayerCount: 2
Fore
SplineSet
504 672 m 0xfa
 398 672 327 599 281 504 c 0
 235 407 219 314 219 230 c 0
 219 91 290 20 398 20 c 0
 528 20 596 113 637 220 c 0
 678 326 684 409 684 466 c 0
 684 607 614 672 504 672 c 0xfa
500 707 m 0
 665 707 789 619 789 414 c 0
 789 375 780 273 726 175 c 0
 671 76 584 -15 407 -15 c 0
 208 -15 114 105 114 270 c 0
 114 336 128 430 183 523 c 0
 241 619 340 707 500 707 c 0
434 738 m 0
 402 738 385 758 385 787 c 0
 385 823 411 848 444 848 c 0
 474 848 492 824 492 799 c 0
 492 765 469 738 434 738 c 0
642 738 m 0xfc
 610 738 593 758 593 787 c 0
 593 823 619 848 652 848 c 0
 682 848 700 824 700 799 c 0
 700 765 677 738 642 738 c 0xfc
EndSplineSet
EndChar
StartChar: multiply
Encoding: 297 215 190
Width: 570
Flags: MW
HStem: 22 456<164 164 164 525>
VStem: 123 444<66 66 66 432>
LayerCount: 2
Fore
SplineSet
567 432 m 1
 388 250 l 1
 567 66 l 1
 525 22 l 1
 345 206 l 1
 164 22 l 1
 123 66 l 1
 302 250 l 1
 123 432 l 1
 164 478 l 1
 345 294 l 1
 525 478 l 1
 567 432 l 1
EndSplineSet
EndChar
StartChar: Oslash
Encoding: 233 216 140
Width: 753
Flags: MW
HStem: -15 35<369.5 463 369.5 495.5> 672 35<451 532>
VStem: 114 105<226.5 272 208 303> 684 105<437.5 466 394.5 489.5>
LayerCount: 2
Fore
SplineSet
241 117 m 1
 637 619 l 1
 606 655 560 672 504 672 c 0
 398 672 327 599 281 504 c 0
 235 407 219 314 219 230 c 0
 219 186 226 148 241 117 c 1
762 710 m 1
 705 638 l 1
 757 592 789 518 789 414 c 0
 789 375 780 273 726 175 c 0
 671 76 584 -15 407 -15 c 0
 332 -15 272 2 227 33 c 1
 165 -45 l 1
 135 -17 l 1
 194 58 l 1
 141 108 114 183 114 270 c 0
 114 336 128 430 183 523 c 0
 241 619 340 707 500 707 c 0
 565 707 625 693 672 663 c 1
 730 736 l 1
 762 710 l 1
661 582 m 1
 263 79 l 1
 294 40 341 20 398 20 c 0
 528 20 596 113 637 220 c 0
 678 326 684 409 684 466 c 0
 684 513 676 552 661 582 c 1
EndSplineSet
EndChar
StartChar: Ugrave
Encoding: 285 217 178
Width: 794
Flags: MW
HStem: -15 35<359.5 478> 660.5 31.5
VStem: 166 99
LayerCount: 2
Fore
SplineSet
187 692 m 1
 461 692 l 1
 454 663 l 1
 399 659 l 2
 374 657 365 643 357 609 c 2
 278 269 l 2
 234 81 304 20 415 20 c 0
 554 20 603 127 634 260 c 2
 715 609 l 2
 723 642 716 656 693 658 c 2
 634 663 l 1
 641 692 l 1
 915 692 l 1
 908 663 l 1
 853 658 l 2
 828 656 819 643 811 609 c 2
 726 247 l 2
 671 14 546 -15 410 -15 c 0
 238 -15 130 57 177 256 c 2
 261 609 l 2
 269 642 262 656 239 658 c 2
 180 663 l 1
 187 692 l 1
604 764 m 1
 593 742 l 1
 423 798 l 2
 378 812 364 819 362 838 c 0
 360 858 379 887 394 890 c 0
 410 893 424 887 459 863 c 2
 604 764 l 1
EndSplineSet
EndChar
StartChar: Uacute
Encoding: 287 218 180
Width: 794
Flags: MW
HStem: -15 35<359.5 478> 660.5 31.5
VStem: 166 99
LayerCount: 2
Fore
SplineSet
187 692 m 1
 461 692 l 1
 454 663 l 1
 399 659 l 2
 374 657 365 643 357 609 c 2
 278 269 l 2
 234 81 304 20 415 20 c 0
 554 20 603 127 634 260 c 2
 715 609 l 2
 723 642 716 656 693 658 c 2
 634 663 l 1
 641 692 l 1
 915 692 l 1
 908 663 l 1
 853 658 l 2
 828 656 819 643 811 609 c 2
 726 247 l 2
 671 14 546 -15 410 -15 c 0
 238 -15 130 57 177 256 c 2
 261 609 l 2
 269 642 262 656 239 658 c 2
 180 663 l 1
 187 692 l 1
521 742 m 1
 510 764 l 1
 655 863 l 2
 690 887 704 893 720 890 c 0
 735 887 754 858 752 838 c 0
 750 819 736 812 691 798 c 2
 521 742 l 1
EndSplineSet
EndChar
StartChar: Ucircumflex
Encoding: 302 219 195
Width: 794
Flags: W
HStem: -15 35<359.5 478> 660.5 31.5 721 20G<710 710> 722 20G<404 417>
VStem: 166 99
LayerCount: 2
Fore
SplineSet
187 692 m 1xd8
 461 692 l 1
 454 663 l 1
 399 659 l 2
 374 657 365 643 357 609 c 2
 278 269 l 2
 234 81 304 20 415 20 c 0
 554 20 603 127 634 260 c 2
 715 609 l 2
 723 642 716 656 693 658 c 2
 634 663 l 1
 641 692 l 1
 915 692 l 1
 908 663 l 1
 853 658 l 2
 828 656 819 643 811 609 c 2
 726 247 l 2
 671 14 546 -15 410 -15 c 0
 238 -15 130 57 177 256 c 2
 261 609 l 2
 269 642 262 656 239 658 c 2
 180 663 l 1
 187 692 l 1xd8
710 741 m 1xe8
 692 722 l 1
 602 781 l 2
 590 790 579 797 570 797 c 0
 562 797 547 790 534 783 c 2
 417 722 l 1
 404 742 l 1xd8
 544 853 l 2
 562 868 573 876 586 876 c 0
 598 876 608 865 619 851 c 2
 710 741 l 1xe8
EndSplineSet
EndChar
StartChar: Udieresis
Encoding: 333 220 226
Width: 794
Flags: MW
HStem: -15 35<359.5 478> 660.5 31.5 738 110<452.5 476.5 660.5 684.5>
VStem: 166 99 410 107<782 805> 618 107<782 805>
LayerCount: 2
Fore
SplineSet
187 692 m 1
 461 692 l 1
 454 663 l 1
 399 659 l 2
 374 657 365 643 357 609 c 2
 278 269 l 2
 234 81 304 20 415 20 c 0
 554 20 603 127 634 260 c 2
 715 609 l 2
 723 642 716 656 693 658 c 2
 634 663 l 1
 641 692 l 1
 915 692 l 1
 908 663 l 1
 853 658 l 2
 828 656 819 643 811 609 c 2
 726 247 l 2
 671 14 546 -15 410 -15 c 0
 238 -15 130 57 177 256 c 2
 261 609 l 2
 269 642 262 656 239 658 c 2
 180 663 l 1
 187 692 l 1
459 738 m 0
 427 738 410 758 410 787 c 0
 410 823 436 848 469 848 c 0
 499 848 517 824 517 799 c 0
 517 765 494 738 459 738 c 0
667 738 m 0
 635 738 618 758 618 787 c 0
 618 823 644 848 677 848 c 0
 707 848 725 824 725 799 c 0
 725 765 702 738 667 738 c 0
EndSplineSet
EndChar
StartChar: Yacute
Encoding: 308 221 201
Width: 591
Flags: W
HStem: 0 32 660.5 31.5 663 29<131 386 380 380 773 773>
VStem: 131 648<663 692>
LayerCount: 2
Fore
SplineSet
137 692 m 1xb0
 386 692 l 1
 380 663 l 1xb0
 325 658 l 2
 306 656 302 647 306 629 c 2xd0
 397 322 l 1
 400 322 l 1
 479 429 572 563 611 630 c 0
 620 647 617 658 596 659 c 2
 544 663 l 1
 550 692 l 1
 779 692 l 1
 773 663 l 1
 716 659 704 652 668 612 c 0
 614 551 514 418 438 307 c 0
 428 293 417 274 410 247 c 2
 372 78 l 2
 366 50 371 37 395 35 c 2
 471 29 l 1
 465 0 l 1
 155 0 l 1
 161 29 l 1
 233 36 l 2
 259 39 268 50 274 78 c 2
 312 246 l 2
 317 267 317 282 312 299 c 0
 279 409 248 518 214 617 c 0
 201 656 194 658 131 663 c 1
 137 692 l 1xb0
470 742 m 1
 459 764 l 1
 604 863 l 2
 639 887 653 893 669 890 c 0
 684 887 703 858 701 838 c 0
 699 819 685 812 640 798 c 2
 470 742 l 1
EndSplineSet
EndChar
StartChar: Thorn
Encoding: 331 222 224
Width: 604
Flags: MW
HStem: 0 32 182 35<309.5 352> 512 35<381.5 419 419 458> 660.5 31.5
VStem: 546 105
LayerCount: 2
Fore
SplineSet
316 0 m 1
 40 0 l 1
 46 29 l 1
 101 35 l 2
 125 38 135 50 143 83 c 2
 263 609 l 2
 271 642 264 655 241 657 c 2
 182 663 l 1
 189 692 l 1
 463 692 l 1
 456 663 l 1
 401 658 l 2
 376 656 367 643 359 609 c 2
 345 547 l 1
 419 547 l 2
 544 547 653 507 651 381 c 0
 648 207 461 182 352 182 c 2
 261 182 l 1
 239 83 l 2
 232 52 237 37 263 35 c 2
 322 29 l 1
 316 0 l 1
329 476 m 2
 278 251 l 2
 273 231 275 217 344 217 c 0
 456 217 546 271 546 394 c 0
 546 466 502 512 414 512 c 0
 349 512 335 504 329 476 c 2
EndSplineSet
EndChar
StartChar: germandbls
Encoding: 251 223 148
Width: 577
Flags: W
HStem: -242 37<48 59 48 69> -12 37<435.5 461.5 435.5 469> 452 38<123 200 112 210> 470 20G<123 210 210 210> 707 35<493 509>
VStem: 379 76<366 392> 505 73<96.5 113.5> 581 84<592.5 645.5>
LayerCount: 2
Fore
SplineSet
200 452 m 1xed
 112 452 l 1
 123 490 l 1
 210 490 l 1
 217 512 l 2
 245 607 316 744 493 742 c 0
 604 742 665 686 665 606 c 0xed
 665 570 655 528 592 471 c 1
 480 473 455 422 455 387 c 0
 455 345 496 300 521 269 c 0
 547 236 578 192 578 137 c 0
 578 56 520 -12 418 -12 c 0
 359 -12 304 17 303 46 c 0
 301 72 325 91 344 91 c 0
 355 91 363 86 371 74 c 0
 399 32 424 25 447 25 c 0
 476 25 505 48 505 93 c 0xde
 505 134 479 174 439 222 c 0
 407 260 379 305 379 350 c 0
 379 434 444 487 523 491 c 1
 567 528 581 574 581 611 c 0
 581 680 528 707 490 707 c 0
 380 707 328 585 285 395 c 2
 203 31 l 2
 160 -161 119 -242 19 -242 c 0
 -28 -242 -71 -217 -72 -184 c 0
 -72 -159 -49 -134 -27 -134 c 0
 -14 -134 -7 -146 0 -156 c 0
 27 -197 42 -205 54 -205 c 0
 64 -205 73 -197 77 -175 c 2
 200 452 l 1xed
EndSplineSet
EndChar
StartChar: aacute
Encoding: 320 225 213
Width: 561
Flags: W
HStem: -12 52<192.5 215.5> 467 35<341.5 431.5 299 432> 474 20G<496 580 580 580>
VStem: 66 99<90.5 165 90.5 173> 378 90
LayerCount: 2
Fore
SplineSet
481 445 m 1xd8
 466 459 444 467 420 467 c 0
 263 467 165 220 165 110 c 0
 165 71 176 40 209 40 c 0
 257 40 318 107 374 192 c 0
 427 272 463 371 481 445 c 1xd8
496 494 m 1xb8
 580 494 l 1xb8
 474 95 l 2
 465 63 464 40 484 40 c 0
 512 40 556 111 574 146 c 1
 598 132 l 1
 564 56 508 -12 432 -12 c 0
 378 -12 367 29 388 100 c 2
 422 214 l 1
 420 214 l 1
 362 112 269 -12 162 -12 c 0
 94 -12 66 47 66 107 c 0
 66 239 180 502 418 502 c 0
 445 502 474 493 491 481 c 1xd8
 496 494 l 1xb8
385 542 m 1
 370 562 l 1
 489 682 l 2
 519 713 536 723 553 723 c 0
 568 723 592 700 592 680 c 0
 592 659 566 642 536 626 c 2
 385 542 l 1
EndSplineSet
EndChar
StartChar: atilde
Encoding: 332 227 225
Width: 561
Flags: W
HStem: -12 52<192.5 215.5> 467 35<341.5 431.5 299 432> 474 20G<496 580 580 580> 576 60<485.5 504.5> 614 60<309 331> 651 20G<584 584>
VStem: 66 99<90.5 165 90.5 173> 378 90
LayerCount: 2
Fore
SplineSet
481 445 m 1xcb
 466 459 444 467 420 467 c 0
 263 467 165 220 165 110 c 0
 165 71 176 40 209 40 c 0
 257 40 318 107 374 192 c 0
 427 272 463 371 481 445 c 1xcb
496 494 m 1xab
 580 494 l 1xb3
 474 95 l 2
 465 63 464 40 484 40 c 0
 512 40 556 111 574 146 c 1
 598 132 l 1
 564 56 508 -12 432 -12 c 0
 378 -12 367 29 388 100 c 2
 422 214 l 1
 420 214 l 1
 362 112 269 -12 162 -12 c 0
 94 -12 66 47 66 107 c 0
 66 239 180 502 418 502 c 0
 445 502 474 493 491 481 c 1xcb
 496 494 l 1xab
564 682 m 1
 584 671 l 1
 555 614 529 576 480 576 c 0xd7
 458 576 429 586 400 595 c 0
 371 605 342 614 320 614 c 0
 287 614 270 598 248 563 c 1
 229 576 l 1
 249 616 277 674 341 674 c 0xcb
 365 674 393 665 420 655 c 0
 448 646 475 636 496 636 c 0
 524 636 536 647 564 682 c 1
EndSplineSet
EndChar
StartChar: adieresis
Encoding: 323 228 216
Width: 561
Flags: W
HStem: -12 52<192.5 215.5> 467 35<341.5 431.5 299 432> 474 20G<496 580 580 580> 572 110<306.5 330.5 514.5 538.5>
VStem: 66 99<90.5 165 90.5 173> 264 107<616 639> 378 90 472 107<616 639>
LayerCount: 2
Fore
SplineSet
481 445 m 1xda
 466 459 444 467 420 467 c 0
 263 467 165 220 165 110 c 0
 165 71 176 40 209 40 c 0
 257 40 318 107 374 192 c 0
 427 272 463 371 481 445 c 1xda
496 494 m 1xba
 580 494 l 1xbd
 474 95 l 2
 465 63 464 40 484 40 c 0
 512 40 556 111 574 146 c 1
 598 132 l 1
 564 56 508 -12 432 -12 c 0
 378 -12 367 29 388 100 c 2
 422 214 l 1
 420 214 l 1
 362 112 269 -12 162 -12 c 0
 94 -12 66 47 66 107 c 0
 66 239 180 502 418 502 c 0
 445 502 474 493 491 481 c 1xda
 496 494 l 1xba
313 572 m 0
 281 572 264 592 264 621 c 0
 264 657 290 682 323 682 c 0
 353 682 371 658 371 633 c 0
 371 599 348 572 313 572 c 0
521 572 m 0
 489 572 472 592 472 621 c 0
 472 657 498 682 531 682 c 0
 561 682 579 658 579 633 c 0
 579 599 556 572 521 572 c 0
EndSplineSet
EndChar
StartChar: aring
Encoding: 294 229 187
Width: 561
Flags: W
HStem: -12 52<192.5 215.5> 467 35<341.5 431.5 299 432> 474 20G<496 580 580 580> 550 33<389 427.5 389 445.5> 719 33<396.5 432>
VStem: 66 99<90.5 165 90.5 173> 302 57<618 647 618 653> 378 90 461 57<660.5 686.5>
LayerCount: 2
Fore
SplineSet
481 445 m 1xdd
 466 459 444 467 420 467 c 0
 263 467 165 220 165 110 c 0
 165 71 176 40 209 40 c 0
 257 40 318 107 374 192 c 0
 427 272 463 371 481 445 c 1xdd
496 494 m 1xbd
 580 494 l 1xbe80
 474 95 l 2
 465 63 464 40 484 40 c 0
 512 40 556 111 574 146 c 1
 598 132 l 1
 564 56 508 -12 432 -12 c 0
 378 -12 367 29 388 100 c 2
 422 214 l 1
 420 214 l 1
 362 112 269 -12 162 -12 c 0
 94 -12 66 47 66 107 c 0
 66 239 180 502 418 502 c 0
 445 502 474 493 491 481 c 1xdd
 496 494 l 1xbd
461 671 m 0
 461 702 443 719 421 719 c 0
 372 719 359 658 359 636 c 0
 359 600 378 583 400 583 c 0
 455 583 461 650 461 671 c 0
302 636 m 0
 302 670 320 752 423 752 c 0
 473 752 518 721 518 661 c 0
 518 613 493 550 398 550 c 0
 344 550 302 580 302 636 c 0
EndSplineSet
EndChar
StartChar: ae
Encoding: 241 230 143
Width: 779
Flags: W
HStem: -12 49<561.5 590.5> -12 52<194 216> 455 35<417 430> 467 35<677.5 698.5>
VStem: 69 99<90 165 90 167> 408 98<137 158> 738 94<388.5 425>
LayerCount: 2
Fore
SplineSet
481 436 m 1xae
 467 447 443 455 417 455 c 0
 266 454 168 220 168 110 c 0
 168 70 179 40 209 40 c 0x6e
 258 40 326 113 380 200 c 0
 426 274 464 371 481 436 c 1xae
571 514 m 1
 546 440 l 1
 548 438 l 1
 598 483 650 502 705 502 c 0
 790 502 832 455 832 402 c 0x9e
 832 375 825 347 788 310 c 0
 751 275 669 227 507 192 c 1
 507 187 506 181 506 176 c 0
 506 98 527 37 596 37 c 0
 671 37 725 104 760 152 c 1
 783 131 l 1
 715 20 627 -12 554 -12 c 0
 494 -12 408 12 408 152 c 0
 408 164 410 175 412 195 c 1
 410 195 l 1
 359 108 268 -12 164 -12 c 0
 97 -12 69 47 69 107 c 0
 69 227 178 490 421 490 c 0
 446 490 476 483 499 473 c 1
 534 514 l 1
 571 514 l 1
509 226 m 1
 677 262 738 338 738 407 c 0
 738 443 717 467 680 467 c 0
 600 467 526 347 509 226 c 1
EndSplineSet
EndChar
StartChar: ccedilla
Encoding: 296 231 189
Width: 441
Flags: MW
HStem: -230 34 -12 49<220 301.5> 467 35<301 363>
VStem: 81 99<132.5 230>
LayerCount: 2
Fore
SplineSet
428 154 m 1
 452 135 l 1
 396 41 329 3 267 -8 c 1
 229 -60 l 1
 275 -66 311 -107 301 -157 c 0
 292 -203 243 -230 190 -230 c 0
 165 -230 139 -226 124 -220 c 1
 128 -196 l 1
 173 -202 226 -195 226 -147 c 0
 226 -120 206 -97 171 -95 c 1
 168 -86 l 1
 220 -12 l 1
 151 -11 81 28 81 148 c 0
 81 312 193 502 371 502 c 0
 446 502 500 464 500 413 c 0
 500 380 460 357 436 357 c 0
 418 357 409 369 407 387 c 0
 401 447 379 467 347 467 c 0
 255 467 180 298 180 168 c 0
 180 97 195 37 268 37 c 0
 335 37 394 108 428 154 c 1
EndSplineSet
EndChar
StartChar: ecircumflex
Encoding: 334 234 227
Width: 453
Flags: MW
HStem: -12 49<235 265.5> 467 35<337 371.5>
VStem: 80 99<136.5 178.5 136.5 194> 412 94<388 425.5>
LayerCount: 2
Fore
SplineSet
435 151 m 1
 458 131 l 1
 390 20 302 -12 229 -12 c 0
 171 -12 80 12 80 152 c 0
 80 236 110 323 163 388 c 0
 218 456 292 502 382 502 c 0
 464 502 506 455 506 402 c 0
 506 374 499 341 464 306 c 0
 421 266 348 226 180 192 c 1
 179 185 179 181 179 176 c 0
 179 97 200 37 270 37 c 0
 345 37 399 104 435 151 c 1
182 226 m 1
 351 262 412 338 412 408 c 0
 412 443 389 467 354 467 c 0
 274 467 199 347 182 226 c 1
510 567 m 1
 487 546 l 1
 402 621 l 2
 392 629 383 636 374 636 c 0
 367 636 354 629 342 621 c 2
 227 546 l 1
 213 567 l 1
 351 696 l 2
 366 709 379 720 391 720 c 0
 402 720 412 708 421 696 c 2
 510 567 l 1
EndSplineSet
EndChar
StartChar: edieresis
Encoding: 319 235 212
Width: 453
Flags: W
HStem: -12 49<235 265.5> 467 35<337 371.5> 572 110<252.5 276.5 460.5 484.5>
VStem: 80 99<136.5 178.5 136.5 194> 210 107<616 639> 412 94<388 425.5> 418 107<616 639>
LayerCount: 2
Fore
SplineSet
435 151 m 1xfc
 458 131 l 1
 390 20 302 -12 229 -12 c 0
 171 -12 80 12 80 152 c 0
 80 236 110 323 163 388 c 0
 218 456 292 502 382 502 c 0
 464 502 506 455 506 402 c 0
 506 374 499 341 464 306 c 0
 421 266 348 226 180 192 c 1
 179 185 179 181 179 176 c 0
 179 97 200 37 270 37 c 0
 345 37 399 104 435 151 c 1xfc
182 226 m 1
 351 262 412 338 412 408 c 0
 412 443 389 467 354 467 c 0
 274 467 199 347 182 226 c 1
259 572 m 0
 227 572 210 592 210 621 c 0
 210 657 236 682 269 682 c 0
 299 682 317 658 317 633 c 0
 317 599 294 572 259 572 c 0
467 572 m 0xfa
 435 572 418 592 418 621 c 0
 418 657 444 682 477 682 c 0
 507 682 525 658 525 633 c 0
 525 599 502 572 467 572 c 0xfa
EndSplineSet
EndChar
StartChar: igrave
Encoding: 321 236 214
Width: 317
Flags: W
HStem: -12 52<145 234> 447.5 26.5 477 20G<319 319> 482 20G<314 314>
VStem: 114 90
LayerCount: 2
Fore
SplineSet
132 474 m 1xd8
 314 502 l 1
 319 497 l 1xa8
 210 95 l 2
 201 63 200 40 220 40 c 0
 248 40 292 111 310 146 c 1
 334 132 l 1
 300 56 244 -12 172 -12 c 0
 118 -12 105 29 120 86 c 2
 204 399 l 2
 213 434 210 443 183 445 c 2
 126 450 l 1
 132 474 l 1xd8
352 562 m 1
 337 542 l 1
 186 626 l 2
 156 642 130 659 130 680 c 0
 130 700 154 723 169 723 c 0
 186 723 203 713 233 682 c 2
 352 562 l 1
EndSplineSet
EndChar
StartChar: iacute
Encoding: 271 237 164
Width: 317
Flags: W
HStem: -12 52<145 234> 447.5 26.5 477 20G<319 319> 482 20G<314 314>
VStem: 114 90
LayerCount: 2
Fore
SplineSet
132 474 m 1xd8
 314 502 l 1
 319 497 l 1xa8
 210 95 l 2
 201 63 200 40 220 40 c 0
 248 40 292 111 310 146 c 1
 334 132 l 1
 300 56 244 -12 172 -12 c 0
 118 -12 105 29 120 86 c 2
 204 399 l 2
 213 434 210 443 183 445 c 2
 126 450 l 1
 132 474 l 1xd8
208 542 m 1
 193 562 l 1
 312 682 l 2
 342 713 359 723 376 723 c 0
 391 723 415 700 415 680 c 0
 415 659 389 642 359 626 c 2
 208 542 l 1
EndSplineSet
EndChar
StartChar: icircumflex
Encoding: 273 238 166
Width: 317
Flags: W
HStem: -12 52<145 234> 447.5 26.5 477 20G<319 319> 482 20G<314 314>
VStem: 114 90
LayerCount: 2
Fore
SplineSet
132 474 m 1xd8
 314 502 l 1
 319 497 l 1xa8
 210 95 l 2
 201 63 200 40 220 40 c 0
 248 40 292 111 310 146 c 1
 334 132 l 1
 300 56 244 -12 172 -12 c 0
 118 -12 105 29 120 86 c 2
 204 399 l 2
 213 434 210 443 183 445 c 2
 126 450 l 1
 132 474 l 1xd8
418 567 m 1
 395 546 l 1
 310 621 l 2
 300 629 291 636 282 636 c 0
 275 636 262 629 250 621 c 2
 135 546 l 1
 121 567 l 1
 259 696 l 2
 274 709 287 720 299 720 c 0
 310 720 320 708 329 696 c 2
 418 567 l 1
EndSplineSet
EndChar
StartChar: idieresis
Encoding: 305 239 198
Width: 317
Flags: W
HStem: -12 52<145 234> 447.5 26.5 477 20G<319 319> 482 20G<314 314> 572 110<160.5 184.5 368.5 392.5>
VStem: 114 90 118 107<616 639> 326 107<616 639>
LayerCount: 2
Fore
SplineSet
132 474 m 1xdc
 314 502 l 1
 319 497 l 1xab
 210 95 l 2
 201 63 200 40 220 40 c 0
 248 40 292 111 310 146 c 1
 334 132 l 1
 300 56 244 -12 172 -12 c 0
 118 -12 105 29 120 86 c 2
 204 399 l 2
 213 434 210 443 183 445 c 2
 126 450 l 1
 132 474 l 1xdc
167 572 m 0
 135 572 118 592 118 621 c 0
 118 657 144 682 177 682 c 0
 207 682 225 658 225 633 c 0
 225 599 202 572 167 572 c 0
375 572 m 0
 343 572 326 592 326 621 c 0
 326 657 352 682 385 682 c 0
 415 682 433 658 433 633 c 0
 433 599 410 572 375 572 c 0
EndSplineSet
EndChar
StartChar: eth
Encoding: 292 240 185
Width: 537
Flags: W
HStem: -12 35<241 338.5 241 372.5> 467 35<309.5 390 263.5 406.5> 475 20G<419 419> 655 20G<538 538> 687 20G<515 515> 722 20G<277 277>
VStem: 82 97<115.5 181 91.5 211> 459 97<329 369 271.5 400>
LayerCount: 2
Fore
SplineSet
377 467 m 0xdf
 242 467 179 237 179 125 c 0
 179 58 212 23 270 23 c 0
 407 23 459 291 459 367 c 0
 459 433 436 467 377 467 c 0xdf
538 675 m 1
 416 621 l 1
 444 592 470 562 486 537 c 0
 531 470 556 413 556 325 c 0
 556 218 487 -12 258 -12 c 0
 140 -12 82 62 82 169 c 0
 82 253 143 502 384 502 c 0xdf
 396 502 406 499 419 495 c 1
 419 498 l 1
 410 520 388 555 356 594 c 1
 222 534 l 1
 199 566 l 1xbf
 331 625 l 1
 304 657 273 690 239 719 c 1
 239 725 l 1
 277 742 l 1
 312 718 351 685 387 650 c 1
 515 707 l 1
 538 675 l 1
EndSplineSet
EndChar
StartChar: ntilde
Encoding: 289 241 182
Width: 618
Flags: W
HStem: -12 52<443 535> 447.5 26.5 450 52<470 489.5> 477 20G<320 320> 576 60<495.5 514.5> 614 60<319 341> 651 20G<594 594>
VStem: 413 92 509 90
LayerCount: 2
Fore
SplineSet
186 0 m 1xa480
 98 -12 l 1
 203 397 l 2
 212 429 212 443 188 445 c 2
 126 450 l 1xa880
 132 474 l 1xc480
 315 502 l 1
 320 497 l 1x9480
 255 279 l 1
 258 279 l 1
 318 396 422 502 518 502 c 0
 600 502 612 436 589 357 c 2xa480
 511 95 l 2
 502 63 501 40 521 40 c 0
 549 40 593 111 611 146 c 1
 635 132 l 1
 601 56 545 -12 470 -12 c 0
 416 -12 403 30 419 86 c 2xa5
 505 379 l 2
 516 418 507 450 472 450 c 0
 391 450 295 304 258 218 c 0
 232 156 215 102 186 0 c 1xa480
574 682 m 1
 594 671 l 1
 565 614 539 576 490 576 c 0xaa80
 468 576 439 586 410 595 c 0
 381 605 352 614 330 614 c 0
 297 614 280 598 258 563 c 1
 239 576 l 1
 259 616 287 674 351 674 c 0xa480
 375 674 403 665 430 655 c 0
 458 646 485 636 506 636 c 0
 534 636 546 647 574 682 c 1
EndSplineSet
EndChar
StartChar: ograve
Encoding: 314 242 207
Width: 537
Flags: MW
HStem: -12 35<242 322.5> 467 35<311 407.5>
VStem: 84 97<115.5 183 93.5 212> 460 97<326.5 393>
LayerCount: 2
Fore
SplineSet
377 467 m 0
 245 467 181 237 181 129 c 0
 181 58 213 23 271 23 c 0
 408 23 460 291 460 362 c 0
 460 424 438 467 377 467 c 0
378 502 m 0
 459 502 557 465 557 327 c 0
 557 273 540 188 494 116 c 0
 447 42 377 -12 268 -12 c 0
 142 -12 84 62 84 169 c 0
 84 255 141 502 378 502 c 0
457 562 m 1
 442 542 l 1
 291 626 l 2
 261 642 235 659 235 680 c 0
 235 700 259 723 274 723 c 0
 291 723 308 713 338 682 c 2
 457 562 l 1
EndSplineSet
EndChar
StartChar: oacute
Encoding: 259 243 152
Width: 537
Flags: MW
HStem: -12 35<242 322.5> 467 35<311 407.5>
VStem: 84 97<115.5 183 93.5 212> 460 97<326.5 393>
LayerCount: 2
Fore
SplineSet
377 467 m 0
 245 467 181 237 181 129 c 0
 181 58 213 23 271 23 c 0
 408 23 460 291 460 362 c 0
 460 424 438 467 377 467 c 0
378 502 m 0
 459 502 557 465 557 327 c 0
 557 273 540 188 494 116 c 0
 447 42 377 -12 268 -12 c 0
 142 -12 84 62 84 169 c 0
 84 255 141 502 378 502 c 0
333 542 m 1
 318 562 l 1
 437 682 l 2
 467 713 484 723 501 723 c 0
 516 723 540 700 540 680 c 0
 540 659 514 642 484 626 c 2
 333 542 l 1
EndSplineSet
EndChar
StartChar: ocircumflex
Encoding: 282 244 175
Width: 537
Flags: MW
HStem: -12 35<242 322.5> 467 35<311 407.5>
VStem: 84 97<115.5 183 93.5 212> 460 97<326.5 393>
LayerCount: 2
Fore
SplineSet
377 467 m 0
 245 467 181 237 181 129 c 0
 181 58 213 23 271 23 c 0
 408 23 460 291 460 362 c 0
 460 424 438 467 377 467 c 0
378 502 m 0
 459 502 557 465 557 327 c 0
 557 273 540 188 494 116 c 0
 447 42 377 -12 268 -12 c 0
 142 -12 84 62 84 169 c 0
 84 255 141 502 378 502 c 0
536 567 m 1
 513 546 l 1
 428 621 l 2
 418 629 409 636 400 636 c 0
 393 636 380 629 368 621 c 2
 253 546 l 1
 239 567 l 1
 377 696 l 2
 392 709 405 720 417 720 c 0
 428 720 438 708 447 696 c 2
 536 567 l 1
EndSplineSet
EndChar
StartChar: otilde
Encoding: 288 245 181
Width: 537
Flags: W
HStem: -12 35<242 322.5> 467 35<311 407.5> 576 60<461.5 480.5> 614 60<285 307> 651 20G<560 560>
VStem: 84 97<115.5 183 93.5 212> 460 97<326.5 393>
LayerCount: 2
Fore
SplineSet
377 467 m 0xd6
 245 467 181 237 181 129 c 0
 181 58 213 23 271 23 c 0
 408 23 460 291 460 362 c 0
 460 424 438 467 377 467 c 0xd6
378 502 m 0
 459 502 557 465 557 327 c 0
 557 273 540 188 494 116 c 0
 447 42 377 -12 268 -12 c 0
 142 -12 84 62 84 169 c 0
 84 255 141 502 378 502 c 0
540 682 m 1xe6
 560 671 l 1
 531 614 505 576 456 576 c 0xee
 434 576 405 586 376 595 c 0
 347 605 318 614 296 614 c 0
 263 614 246 598 224 563 c 1
 205 576 l 1
 225 616 253 674 317 674 c 0xd6
 341 674 369 665 396 655 c 0
 424 646 451 636 472 636 c 0
 500 636 512 647 540 682 c 1xe6
EndSplineSet
EndChar
StartChar: odieresis
Encoding: 261 246 154
Width: 537
Flags: W
HStem: -12 35<242 322.5> 467 35<311 407.5> 572 110<294.5 318.5 502.5 526.5>
VStem: 84 97<115.5 183 93.5 212> 252 107<616 639> 460 97<326.5 393> 460 107<616 639>
LayerCount: 2
Fore
SplineSet
377 467 m 0xfc
 245 467 181 237 181 129 c 0
 181 58 213 23 271 23 c 0
 408 23 460 291 460 362 c 0
 460 424 438 467 377 467 c 0xfc
378 502 m 0
 459 502 557 465 557 327 c 0
 557 273 540 188 494 116 c 0
 447 42 377 -12 268 -12 c 0
 142 -12 84 62 84 169 c 0
 84 255 141 502 378 502 c 0
301 572 m 0
 269 572 252 592 252 621 c 0
 252 657 278 682 311 682 c 0
 341 682 359 658 359 633 c 0
 359 599 336 572 301 572 c 0
509 572 m 0xfa
 477 572 460 592 460 621 c 0
 460 657 486 682 519 682 c 0
 549 682 567 658 567 633 c 0
 567 599 544 572 509 572 c 0xfa
EndSplineSet
EndChar
StartChar: divide
Encoding: 298 247 191
Width: 570
Flags: MW
HStem: 25 119<318 351> 221 58<93 577 93 577> 356 119<318 351>
VStem: 275 117<68.5 85 68.5 101 399.5 416>
LayerCount: 2
Fore
SplineSet
335 356 m 0
 301 356 275 383 275 416 c 0
 275 448 301 475 335 475 c 0
 367 475 392 448 393 418 c 1
 392 416 l 1
 392 383 367 356 335 356 c 0
335 25 m 0
 301 25 275 52 275 85 c 0
 275 117 301 144 335 144 c 0
 367 144 392 117 393 87 c 1
 392 85 l 1
 392 52 367 25 335 25 c 0
93 221 m 1
 93 279 l 1
 577 279 l 1
 577 221 l 1
 93 221 l 1
EndSplineSet
EndChar
StartChar: oslash
Encoding: 249 248 146
Width: 537
Flags: MW
HStem: -12 35<253 322.5> 467 35<308.5 393.5>
VStem: 84 92<143 183 124 212> 465 92<326.5 357.5 300 368>
LayerCount: 2
Fore
SplineSet
179 102 m 1
 445 438 l 1
 431 457 410 467 377 467 c 0
 240 467 176 237 176 129 c 0
 176 119 178 110 179 102 c 1
461 396 m 1
 194 60 l 1
 209 35 235 23 271 23 c 0
 413 23 465 291 465 362 c 0
 465 374 463 386 461 396 c 1
546 504 m 1
 508 456 l 1
 538 429 557 388 557 327 c 0
 557 273 540 188 494 116 c 0
 447 42 377 -12 268 -12 c 0
 223 -12 186 -2 159 16 c 1
 115 -39 l 1
 88 -12 l 1
 129 39 l 1
 99 71 84 117 84 169 c 0
 84 255 141 502 378 502 c 0
 411 502 447 496 477 479 c 1
 517 529 l 1
 546 504 l 1
EndSplineSet
EndChar
StartChar: ucircumflex
Encoding: 263 251 156
Width: 618
Flags: W
HStem: -12 52<232 249> 447.5 26.5 477 20G<319 319> 482 20G<314 314 622 622>
VStem: 124 92 423 88
LayerCount: 2
Fore
SplineSet
533 490 m 1x9c
 622 502 l 1x9c
 515 94 l 2
 507 63 507 40 528 40 c 0
 556 40 600 112 620 146 c 1
 644 131 l 1
 609 57 549 -12 477 -12 c 0
 424 -12 412 29 431 96 c 2
 464 210 l 1
 462 210 l 1
 402 94 297 -12 201 -12 c 0
 121 -12 113 53 134 133 c 2
 203 397 l 2
 211 428 212 443 188 445 c 2
 126 450 l 1
 132 474 l 1xdc
 314 502 l 1
 319 497 l 1xac
 223 128 l 2
 208 70 216 40 248 40 c 0
 331 40 418 173 462 274 c 0
 488 335 504 388 533 490 c 1x9c
568 567 m 1
 545 546 l 1
 460 621 l 2
 450 629 441 636 432 636 c 0
 425 636 412 629 400 621 c 2
 285 546 l 1
 271 567 l 1
 409 696 l 2
 424 709 437 720 449 720 c 0
 460 720 470 708 479 696 c 2
 568 567 l 1
EndSplineSet
EndChar
StartChar: udieresis
Encoding: 318 252 211
Width: 618
Flags: W
HStem: -12 52<232 249> 447.5 26.5 477 20G<319 319> 482 20G<314 314 622 622> 572 110<322.5 346.5 530.5 554.5>
VStem: 124 92 280 107<616 639> 423 88 488 107<616 639>
LayerCount: 2
Fore
SplineSet
533 490 m 1x9d
 622 502 l 1x9e80
 515 94 l 2
 507 63 507 40 528 40 c 0
 556 40 600 112 620 146 c 1
 644 131 l 1
 609 57 549 -12 477 -12 c 0
 424 -12 412 29 431 96 c 2
 464 210 l 1
 462 210 l 1
 402 94 297 -12 201 -12 c 0
 121 -12 113 53 134 133 c 2
 203 397 l 2
 211 428 212 443 188 445 c 2
 126 450 l 1
 132 474 l 1xdd
 314 502 l 1
 319 497 l 1xad
 223 128 l 2
 208 70 216 40 248 40 c 0
 331 40 418 173 462 274 c 0
 488 335 504 388 533 490 c 1x9d
329 572 m 0
 297 572 280 592 280 621 c 0
 280 657 306 682 339 682 c 0
 369 682 387 658 387 633 c 0
 387 599 364 572 329 572 c 0
537 572 m 0
 505 572 488 592 488 621 c 0
 488 657 514 682 547 682 c 0
 577 682 595 658 595 633 c 0
 595 599 572 572 537 572 c 0
EndSplineSet
EndChar
StartChar: thorn
Encoding: 276 254 169
Width: 584
Flags: W
HStem: -242 21G<51 51> -12 35<277 375 273.5 425.5> 450 52<465.5 480> 645.5 26.5 652 20G<160 160> 675 20G<346 346> 680 20G<341 341>
VStem: 516 99<330 393.5>
LayerCount: 2
Fore
SplineSet
293 23 m 0xe3
 457 23 516 288 516 367 c 0
 516 420 498 450 462 450 c 0
 405 450 332 370 284 286 c 0
 246 219 218 117 205 53 c 1
 227 34 254 23 293 23 c 0xe3
140 -230 m 1
 51 -242 l 1
 234 595 l 2
 241 626 240 641 216 643 c 2
 154 648 l 1xf3
 160 672 l 1xeb
 341 700 l 1
 346 695 l 1xe5
 249 286 l 1
 252 286 l 1
 328 429 427 502 504 502 c 0
 578 502 615 455 615 368 c 0
 615 292 548 -12 303 -12 c 0
 251 -12 216 -3 195 10 c 1
 140 -230 l 1
EndSplineSet
EndChar
StartChar: ydieresis
Encoding: 290 255 183
Width: 468
Flags: W
HStem: -242 60<46 132> 482 20G<239 239 512.5 525.5> 572 110<283.5 307.5 491.5 515.5>
VStem: 210 77<-2 61> 241 107<616 639> 444 96 449 107<616 639>
LayerCount: 2
Fore
SplineSet
71 454 m 1xf4
 239 502 l 1
 247 498 l 1
 261 425 280 214 287 61 c 1
 290 61 l 1
 356 175 415 283 431 339 c 0
 443 381 445 442 444 477 c 1
 469 494 503 502 522 502 c 0
 529 502 540 481 540 446 c 0
 540 406 477 309 420 215 c 0
 358 113 298 7 278 -27 c 0
 190 -179 153 -242 68 -242 c 0
 24 -242 -5 -214 -5 -187 c 0
 -5 -158 20 -128 46 -127 c 0
 61 -127 69 -135 81 -151 c 0
 96 -171 107 -182 122 -182 c 0
 142 -182 168 -153 186 -111 c 0
 208 -58 210 -17 210 13 c 0
 210 93 188 285 177 363 c 0
 169 415 164 432 142 431 c 2
 74 429 l 1
 71 454 l 1xf4
290 572 m 0xea
 258 572 241 592 241 621 c 0
 241 657 267 682 300 682 c 0
 330 682 348 658 348 633 c 0
 348 599 325 572 290 572 c 0xea
498 572 m 0
 466 572 449 592 449 621 c 0
 449 657 475 682 508 682 c 0
 538 682 556 658 556 633 c 0
 556 599 533 572 498 572 c 0
EndSplineSet
EndChar
StartChar: dotlessi
Encoding: 245 305 144
Width: 317
Flags: W
HStem: -12 52<145 234> 447.5 26.5 477 20G<319 319> 482 20G<314 314>
VStem: 114 90
LayerCount: 2
Fore
SplineSet
132 474 m 1xd8
 314 502 l 1
 319 497 l 1xa8
 210 95 l 2
 201 63 200 40 220 40 c 0
 248 40 292 111 310 146 c 1
 334 132 l 1
 300 56 244 -12 172 -12 c 0
 118 -12 105 29 120 86 c 2
 204 399 l 2
 213 434 210 443 183 445 c 2
 126 450 l 1
 132 474 l 1xd8
EndSplineSet
EndChar
StartChar: Lslash
Encoding: 232 321 139
Width: 571
Flags: W
HStem: 0 32 0 35<107 107 345.5 426.5> 476 20G<463 463> 661 31
VStem: 46 563<0 176>
LayerCount: 2
Fore
SplineSet
453 445 m 1x78
 305 351 l 1
 253 122 l 2
 242 75 243 60 258 48 c 0
 271 38 321 35 370 35 c 0
 483 35 528 53 579 176 c 1
 609 176 l 1
 558 0 l 1
 46 0 l 1x78
 52 29 l 1
 107 35 l 2
 131 37 141 48 149 83 c 2xb8
 196 291 l 1
 88 222 l 1
 103 275 l 1
 208 342 l 1
 269 609 l 2
 277 642 270 656 247 658 c 2
 188 663 l 1
 195 692 l 1
 474 692 l 1
 467 663 l 1
 407 659 l 2
 382 657 372 642 364 609 c 2
 317 403 l 1
 463 496 l 1
 453 445 l 1x78
EndSplineSet
EndChar
StartChar: lslash
Encoding: 248 322 145
Width: 318
Flags: MW
HStem: -12 52<147 233> 675 20G<182 182> 722 20G<367 367>
VStem: 117 89
LayerCount: 2
Fore
SplineSet
396 458 m 1
 286 392 l 1
 211 94 l 2
 203 61 203 40 221 40 c 0
 245 40 290 101 313 146 c 1
 337 132 l 1
 305 57 244 -12 174 -12 c 0
 120 -12 108 29 122 86 c 2
 184 340 l 1
 80 277 l 1
 99 330 l 1
 196 389 l 1
 259 639 l 2
 269 678 264 685 239 688 c 2
 182 695 l 1
 188 718 l 1
 367 742 l 1
 372 737 l 1
 299 443 l 1
 411 511 l 1
 396 458 l 1
EndSplineSet
EndChar
StartChar: OE
Encoding: 234 338 141
Width: 1020
Flags: MW
HStem: 0 35<395.5 472 472 493.5 761.5 847.5> 341 38<728 851 720 859> 657 35<580 633 804.5 813 813 934>
VStem: 114 108<192.5 308> 1052 26
LayerCount: 2
Fore
SplineSet
569 103 m 2
 681 595 l 2
 693 646 683 657 583 657 c 0
 329 657 222 454 222 274 c 0
 222 99 330 35 461 35 c 0
 526 35 555 41 569 103 c 2
580 692 m 2
 1116 692 l 1
 1078 525 l 1
 1048 525 l 1
 1057 615 1060 657 934 657 c 2
 813 657 l 2
 796 657 790 652 785 628 c 2
 728 379 l 1
 859 379 l 2
 947 379 958 395 984 464 c 1
 1014 464 l 1
 968 255 l 1
 938 255 l 1
 942 320 939 341 851 341 c 2
 720 341 l 1
 669 122 l 2
 658 75 659 60 674 48 c 0
 687 38 737 35 786 35 c 0
 909 35 954 53 1005 176 c 1
 1035 176 l 1
 984 0 l 1
 472 0 l 2
 234 0 114 92 114 293 c 0
 114 323 119 410 178 503 c 0
 248 614 357 689 580 692 c 2
EndSplineSet
EndChar
StartChar: oe
Encoding: 250 339 147
Width: 806
Flags: W
HStem: -12 35<242 304> -12 49<588 618.5> 467 35<311 404.5 259.5 407.5 697 724.5>
VStem: 84 97<115.5 183 93.5 212> 765 94<388 425.5>
LayerCount: 2
Fore
SplineSet
377 467 m 0xb8
 245 467 181 237 181 129 c 0
 181 58 213 23 271 23 c 0
 408 23 460 291 460 362 c 0
 460 424 438 467 377 467 c 0xb8
788 151 m 1
 811 131 l 1
 743 20 655 -12 582 -12 c 0
 544 -12 479 3 455 79 c 1
 408 25 342 -12 266 -12 c 0xb8
 142 -12 84 62 84 169 c 0
 84 255 141 502 378 502 c 0
 431 502 507 478 534 397 c 1
 589 461 659 502 735 502 c 0
 817 502 859 455 859 402 c 0
 859 374 852 341 817 306 c 0
 774 266 701 226 533 192 c 1
 532 185 532 181 532 176 c 0
 532 97 553 37 623 37 c 0x78
 698 37 752 104 788 151 c 1
535 226 m 1
 704 262 765 338 765 408 c 0
 765 443 742 467 707 467 c 0
 627 467 552 347 535 226 c 1
EndSplineSet
EndChar
StartChar: Scaron
Encoding: 284 352 177
Width: 533
Flags: MW
HStem: -15 35<244 278> 672 35<347.5 429 310.5 439>
VStem: 95 29<220 220> 168 84<507 551> 441 90<152.5 205>
LayerCount: 2
Fore
SplineSet
541 516 m 1
 512 516 l 1
 524 619 487 672 391 672 c 0
 304 672 252 616 252 545 c 0
 252 469 323 435 381 405 c 0
 482 353 531 296 531 206 c 0
 531 99 472 -13 278 -15 c 0
 205 -15 108 15 69 67 c 1
 95 220 l 1
 124 220 l 1
 118 87 198 20 290 20 c 0
 390 20 441 94 441 165 c 0
 441 245 393 287 313 327 c 0
 232 366 168 415 168 509 c 0
 168 593 223 707 398 707 c 0
 460 707 534 690 577 656 c 1
 541 516 l 1
290 869 m 1
 308 888 l 1
 398 828 l 2
 410 820 421 813 430 813 c 0
 438 813 453 820 466 827 c 2
 583 888 l 1
 596 868 l 1
 456 757 l 2
 438 742 427 734 414 734 c 0
 402 734 392 745 381 759 c 2
 290 869 l 1
EndSplineSet
EndChar
StartChar: scaron
Encoding: 328 353 221
Width: 389
Flags: MW
HStem: -12 35<209.5 249 209.5 258> 467 35<257.5 292.5>
VStem: 143 71<388 395.5> 300 77<98 117.5>
LayerCount: 2
Fore
SplineSet
305 502 m 0
 394 502 432 455 432 424 c 0
 432 393 404 378 384 378 c 0
 369 378 361 386 356 398 c 0
 335 445 309 467 276 467 c 0
 239 467 214 434 214 402 c 0
 214 374 225 341 285 292 c 0
 352 237 377 194 377 139 c 0
 377 57 312 -12 204 -12 c 0
 109 -12 54 40 54 83 c 0
 54 110 76 137 106 137 c 0
 123 137 132 126 138 107 c 0
 154 54 191 23 228 23 c 0
 270 23 300 51 300 98 c 0
 300 137 274 181 231 215 c 0
 179 257 143 303 143 355 c 0
 143 436 203 502 305 502 c 0
195 710 m 1
 218 731 l 1
 303 656 l 2
 313 648 322 641 331 641 c 0
 338 641 351 648 363 656 c 2
 478 731 l 1
 492 710 l 1
 354 581 l 2
 339 568 326 557 314 557 c 0
 303 557 293 569 284 581 c 2
 195 710 l 1
EndSplineSet
EndChar
StartChar: Ydieresis
Encoding: 279 376 172
Width: 591
Flags: W
HStem: 0 32 660.5 31.5 663 29<131 386 380 380 773 773> 738 110<346.5 370.5 554.5 578.5>
VStem: 304 107<782 805> 512 107<782 805>
LayerCount: 2
Fore
SplineSet
137 692 m 1xac
 386 692 l 1
 380 663 l 1xbc
 325 658 l 2
 306 656 302 647 306 629 c 2xcc
 397 322 l 1
 400 322 l 1
 479 429 572 563 611 630 c 0
 620 647 617 658 596 659 c 2
 544 663 l 1
 550 692 l 1
 779 692 l 1
 773 663 l 1
 716 659 704 652 668 612 c 0
 614 551 514 418 438 307 c 0
 428 293 417 274 410 247 c 2
 372 78 l 2
 366 50 371 37 395 35 c 2
 471 29 l 1
 465 0 l 1
 155 0 l 1
 161 29 l 1
 233 36 l 2
 259 39 268 50 274 78 c 2
 312 246 l 2
 317 267 317 282 312 299 c 0
 279 409 248 518 214 617 c 0
 201 656 194 658 131 663 c 1
 137 692 l 1xac
353 738 m 0
 321 738 304 758 304 787 c 0
 304 823 330 848 363 848 c 0
 393 848 411 824 411 799 c 0
 411 765 388 738 353 738 c 0
561 738 m 0
 529 738 512 758 512 787 c 0
 512 823 538 848 571 848 c 0
 601 848 619 824 619 799 c 0
 619 765 596 738 561 738 c 0
EndSplineSet
EndChar
StartChar: Zcaron
Encoding: 311 381 204
Width: 622
Flags: W
HStem: 0 35<154 357 357 436> 657 35<347.5 403 403 598> 679 13<225 738>
VStem: 15 723<13 679>
LayerCount: 2
Fore
SplineSet
225 692 m 1xd0
 733 692 l 1xd0
 738 679 l 1xb0
 541 463 344 246 154 35 c 1
 357 35 l 2
 515 35 558 53 611 176 c 1
 641 176 l 1
 590 0 l 1
 19 0 l 1
 15 13 l 1
 212 229 408 446 598 657 c 1
 403 657 l 2
 292 657 259 639 218 523 c 1
 188 523 l 1
 225 692 l 1xd0
334 869 m 1
 352 888 l 1
 442 828 l 2
 454 820 465 813 474 813 c 0
 482 813 497 820 510 827 c 2
 627 888 l 1
 640 868 l 1
 500 757 l 2
 482 742 471 734 458 734 c 0
 446 734 436 745 425 759 c 2
 334 869 l 1
EndSplineSet
EndChar
StartChar: zcaron
Encoding: 304 382 197
Width: 468
Flags: W
HStem: -12 78<363.5 401.5 363.5 411.5> 426 64<214.5 238 238 414> 476 14<185 518>
VStem: 39 70<11.5 12 12 26>
LayerCount: 2
Fore
SplineSet
185 490 m 1xd0
 510 490 l 1xd0
 518 476 l 1xb0
 397 358 283 239 172 123 c 1
 198 120 233 107 266 95 c 0
 303 81 348 66 379 66 c 0
 424 66 448 126 473 188 c 1
 501 181 l 1
 474 76 444 -12 379 -12 c 0
 332 -12 285 7 232 28 c 0
 173 51 138 74 122 74 c 0
 114 74 109 67 109 56 c 2
 109 12 l 2
 109 -5 76 -12 62 -12 c 0
 45 -12 39 5 39 18 c 0
 39 34 47 56 63 72 c 0
 171 182 287 298 414 426 c 1
 238 426 l 2
 191 426 175 395 143 337 c 1
 118 348 l 1
 140 417 171 472 185 490 c 1xd0
222 710 m 1
 245 731 l 1
 330 656 l 2
 340 648 349 641 358 641 c 0
 365 641 378 648 390 656 c 2
 505 731 l 1
 519 710 l 1
 381 581 l 2
 366 568 353 557 341 557 c 0
 330 557 320 569 311 581 c 2
 222 710 l 1
EndSplineSet
EndChar
StartChar: florin
Encoding: 166 402 100
Width: 530
Flags: MW
HStem: -135 35<147 156> 368 36<194 283 185 292 386 512> 656 35<483.5 502>
VStem: 39 584
LayerCount: 2
Fore
SplineSet
512 368 m 1
 375 368 l 1
 354 282 l 2
 306 91 284 17 256 -41 c 0
 226 -103 186 -135 126 -135 c 0
 77 -135 39 -105 39 -77 c 0
 40 -53 63 -37 79 -37 c 0
 90 -37 98 -42 107 -58 c 0
 124 -90 140 -100 154 -100 c 0
 166 -100 177 -92 189 -40 c 2
 283 368 l 1
 185 368 l 1
 194 404 l 1
 292 404 l 1
 304 447 l 2
 319 504 342 570 372 613 c 0
 407 662 454 691 513 691 c 0
 590 691 623 653 623 624 c 0
 622 598 597 584 579 584 c 0
 567 584 560 589 553 603 c 0
 533 643 512 656 492 656 c 0
 464 656 441 624 413 511 c 2
 386 404 l 1
 521 404 l 1
 512 368 l 1
EndSplineSet
EndChar
StartChar: circumflex
Encoding: 195 710 125
Width: 400
Flags: MW
HStem: 546 174<236 405.5 394 496>
VStem: 222 297<567 567>
LayerCount: 2
Fore
SplineSet
519 567 m 1
 496 546 l 1
 411 621 l 2
 401 629 392 636 383 636 c 0
 376 636 363 629 351 621 c 2
 236 546 l 1
 222 567 l 1
 360 696 l 2
 375 709 388 720 400 720 c 0
 411 720 421 708 430 696 c 2
 519 567 l 1
EndSplineSet
EndChar
StartChar: caron
Encoding: 207 711 135
Width: 400
Flags: MW
HStem: 557 174<271 373>
VStem: 248 297<710 710>
LayerCount: 2
Fore
SplineSet
248 710 m 1
 271 731 l 1
 356 656 l 2
 366 648 375 641 384 641 c 0
 391 641 404 648 416 656 c 2
 531 731 l 1
 545 710 l 1
 407 581 l 2
 392 568 379 557 367 557 c 0
 356 557 346 569 337 581 c 2
 248 710 l 1
EndSplineSet
EndChar
StartChar: breve
Encoding: 198 728 128
Width: 400
Flags: MW
HStem: 568 62<341 426.5> 678 20G<273 297 297 297 510 536 536 536>
VStem: 262 274<615.5 698>
LayerCount: 2
Fore
SplineSet
367 568 m 0
 310 568 262 585 262 646 c 0
 262 661 266 682 273 698 c 1
 297 698 l 1
 295 678 297 630 385 630 c 0
 474 630 499 678 510 698 c 1
 536 698 l 1
 520 629 486 568 367 568 c 0
EndSplineSet
EndChar
StartChar: dotaccent
Encoding: 199 729 129
Width: 402
Flags: W
HStem: 570 110<329.5 353.5> 660 20G<329.5 361>
VStem: 287 107<614 637>
LayerCount: 2
Fore
SplineSet
336 570 m 0xe0
 304 570 287 590 287 619 c 0
 287 655 313 680 346 680 c 0
 376 680 394 656 394 631 c 0
 394 597 371 570 336 570 c 0xe0
EndSplineSet
EndChar
StartChar: ring
Encoding: 202 730 131
Width: 400
Flags: MW
HStem: 550 33<308 346.5 308 364.5> 719 33<315.5 351>
VStem: 221 57<618 647 618 653> 380 57<660.5 686.5>
LayerCount: 2
Fore
SplineSet
380 671 m 0
 380 702 362 719 340 719 c 0
 291 719 278 658 278 636 c 0
 278 600 297 583 319 583 c 0
 374 583 380 650 380 671 c 0
221 636 m 0
 221 670 239 752 342 752 c 0
 392 752 437 721 437 661 c 0
 437 613 412 550 317 550 c 0
 263 550 221 580 221 636 c 0
EndSplineSet
EndChar
StartChar: ogonek
Encoding: 206 731 134
Width: 350
Flags: MW
HStem: -219 42<149.5 235>
VStem: 103 66<-144 -113>
LayerCount: 2
Fore
SplineSet
207 0 m 1
 248 0 l 1
 200 -38 169 -78 169 -126 c 0
 169 -162 196 -177 225 -177 c 0
 245 -177 257 -174 276 -166 c 1
 283 -182 l 1
 253 -211 219 -219 190 -219 c 0
 109 -219 103 -164 103 -140 c 0
 103 -86 148 -30 207 0 c 1
EndSplineSet
EndChar
StartChar: tilde
Encoding: 196 732 126
Width: 400
Flags: W
HStem: 576 60<428.5 447.5> 614 60<252 274> 651 20G<527 527>
VStem: 172 355<576 671>
LayerCount: 2
Fore
SplineSet
507 682 m 1xd0
 527 671 l 1
 498 614 472 576 423 576 c 0xb0
 401 576 372 586 343 595 c 0
 314 605 285 614 263 614 c 0
 230 614 213 598 191 563 c 1
 172 576 l 1
 192 616 220 674 284 674 c 0x50
 308 674 336 665 363 655 c 0
 391 646 418 636 439 636 c 0
 467 636 479 647 507 682 c 1xd0
EndSplineSet
EndChar
StartChar: hungarumlaut
Encoding: 205 733 133
Width: 400
Flags: MW
HStem: 546 204<235 311.5 286.5 377>
VStem: 211 279<559 722.5>
LayerCount: 2
Fore
SplineSet
235 546 m 1
 211 559 l 1
 257 703 l 2
 266 730 275 750 298 750 c 0
 325 750 348 733 348 712 c 0
 348 696 336 675 317 650 c 2
 235 546 l 1
377 546 m 1
 353 559 l 1
 399 703 l 2
 408 730 417 750 440 750 c 0
 467 750 490 733 490 712 c 0
 490 696 478 675 459 650 c 2
 377 546 l 1
EndSplineSet
EndChar
StartChar: endash
Encoding: 177 8211 110
Width: 500
Flags: MW
HStem: 221 58<59 547 47 559>
VStem: 47 512<221 279>
LayerCount: 2
Fore
SplineSet
59 279 m 1
 559 279 l 1
 547 221 l 1
 47 221 l 1
 59 279 l 1
EndSplineSet
EndChar
StartChar: emdash
Encoding: 208 8212 136
Width: 1000
Flags: MW
HStem: 221 58<59 1047 47 1059>
VStem: 47 1012<221 279>
LayerCount: 2
Fore
SplineSet
59 279 m 1
 1059 279 l 1
 1047 221 l 1
 47 221 l 1
 59 279 l 1
EndSplineSet
EndChar
StartChar: quoteleft
Encoding: 96 8216 64
Width: 216
Flags: MW
HStem: 488 260<220 302>
VStem: 165 86
LayerCount: 2
Fore
SplineSet
302 748 m 1
 318 731 l 1
 284 698 255 660 251 623 c 0
 249 603 255 590 261 576 c 0
 266 564 273 552 273 538 c 0
 273 512 250 488 220 488 c 0
 185 486 165 522 165 552 c 0
 165 637 244 699 302 748 c 1
EndSplineSet
EndChar
StartChar: quoteright
Encoding: 39 8217 7
Width: 216
Flags: MW
HStem: 479 20G<147 147> 722 20G<230 245>
VStem: 214 86
LayerCount: 2
Fore
SplineSet
163 482 m 1
 147 499 l 1
 181 532 210 570 214 607 c 0
 216 627 210 640 204 654 c 0
 199 666 192 678 192 692 c 0
 192 718 215 742 245 742 c 0
 280 744 300 708 300 678 c 0
 300 593 221 531 163 482 c 1
EndSplineSet
EndChar
StartChar: quotesinglbase
Encoding: 184 8218 116
Width: 216
Flags: MW
HStem: -109 260<44 126>
VStem: 95 86
LayerCount: 2
Fore
SplineSet
126 151 m 0
 161 153 181 117 181 87 c 0
 181 2 102 -60 44 -109 c 1
 28 -92 l 1
 62 -59 91 -21 95 16 c 0
 97 36 91 49 85 63 c 0
 80 75 73 87 73 101 c 0
 73 127 96 151 126 151 c 0
EndSplineSet
EndChar
StartChar: quotedblleft
Encoding: 170 8220 104
Width: 402
Flags: MW
HStem: 488 260<224 306 306 425>
VStem: 169 86 355 86
LayerCount: 2
Fore
SplineSet
306 748 m 1
 322 731 l 1
 288 698 259 660 255 623 c 0
 253 603 259 590 265 576 c 0
 270 564 277 552 277 538 c 0
 277 512 254 488 224 488 c 0
 189 486 169 522 169 552 c 0
 169 637 248 699 306 748 c 1
492 748 m 1
 508 731 l 1
 474 698 445 660 441 623 c 0
 439 603 445 590 451 576 c 0
 456 564 463 552 463 538 c 0
 463 512 440 488 410 488 c 0
 375 486 355 522 355 552 c 0
 355 637 434 699 492 748 c 1
EndSplineSet
EndChar
StartChar: quotedblright
Encoding: 186 8221 118
Width: 402
Flags: MW
HStem: 481 20G<142 142 328 328>
VStem: 209 86 395 86
LayerCount: 2
Fore
SplineSet
240 744 m 0
 275 746 295 710 295 680 c 0
 295 595 216 533 158 484 c 1
 142 501 l 1
 176 534 205 572 209 609 c 0
 211 629 205 642 199 656 c 0
 194 668 187 680 187 694 c 0
 187 720 210 744 240 744 c 0
426 744 m 0
 461 746 481 710 481 680 c 0
 481 595 402 533 344 484 c 1
 328 501 l 1
 362 534 391 572 395 609 c 0
 397 629 391 642 385 656 c 0
 380 668 373 680 373 694 c 0
 373 720 396 744 426 744 c 0
EndSplineSet
EndChar
StartChar: quotedblbase
Encoding: 185 8222 117
Width: 402
Flags: MW
HStem: -109 260<44 126 111 230>
VStem: 95 86 281 86
LayerCount: 2
Fore
SplineSet
126 151 m 0
 161 153 181 117 181 87 c 0
 181 2 102 -60 44 -109 c 1
 28 -92 l 1
 62 -59 91 -21 95 16 c 0
 97 36 91 49 85 63 c 0
 80 75 73 87 73 101 c 0
 73 127 96 151 126 151 c 0
312 151 m 0
 347 153 367 117 367 87 c 0
 367 2 288 -60 230 -109 c 1
 214 -92 l 1
 248 -59 277 -21 281 16 c 0
 283 36 277 49 271 63 c 0
 266 75 259 87 259 101 c 0
 259 127 282 151 312 151 c 0
EndSplineSet
EndChar
StartChar: dagger
Encoding: 178 8224 111
Width: 500
Flags: W
HStem: 428 70<164 171.5 518.5 526>
VStem: 322 44 328 33 342 98<681 681>
LayerCount: 2
Fore
SplineSet
236 -125 m 1xc0
 208 -125 l 1
 247 112 260 279 267 316 c 0
 277 363 301 405 322 447 c 1xc0
 238 441 185 428 158 428 c 0
 142 428 132 434 138 463 c 0
 144 492 156 498 172 498 c 0
 199 498 247 485 328 479 c 1xa0
 336 586 336 655 342 681 c 0
 346 702 358 717 398 717 c 0
 438 717 444 702 440 681 c 0
 434 655 406 586 368 479 c 1
 453 485 505 498 532 498 c 0x90
 548 498 558 492 552 463 c 0
 546 434 534 428 518 428 c 0
 491 428 444 441 362 447 c 1
 365 405 371 363 361 316 c 0
 354 279 297 112 236 -125 c 1xc0
EndSplineSet
EndChar
StartChar: daggerdbl
Encoding: 179 8225 112
Width: 490
Flags: W
HStem: 113 66<101 108 441 448> 444 66<171 177 511 517> 473 20G
VStem: 74 470 256 106
LayerCount: 2
Fore
SplineSet
394 717 m 0xb0
 431 719 440 704 436 682 c 0
 429 652 399 582 369 493 c 1xb0
 427 495 499 510 523 510 c 0
 539 510 548 504 543 477 c 0
 537 450 525 444 509 444 c 0
 485 444 419 459 362 461 c 1
 361 398 365 368 356 327 c 0
 349 291 334 266 300 162 c 1
 357 164 429 179 453 179 c 0
 469 179 479 173 473 146 c 0
 468 119 456 113 440 113 c 0
 416 113 350 128 293 130 c 1
 282 22 282 -54 275 -84 c 0
 271 -106 255 -121 219 -119 c 0
 183 -121 173 -106 177 -84 c 0
 183 -54 215 22 249 130 c 1
 192 128 120 113 96 113 c 0
 80 113 70 119 75 146 c 0
 81 173 93 179 109 179 c 0
 133 179 199 164 256 162 c 1
 266 266 261 291 268 327 c 0
 277 368 293 398 318 461 c 1
 261 459 189 444 165 444 c 0xc8
 149 444 139 450 145 477 c 0
 150 504 163 510 179 510 c 0xd0
 203 510 269 495 325 493 c 1
 333 582 331 652 338 682 c 0
 342 704 359 719 394 717 c 0xb0
EndSplineSet
EndChar
StartChar: bullet
Encoding: 183 8226 115
Width: 500
Flags: MW
HStem: 192 320<261.5 348>
VStem: 145 319<308 395.5>
LayerCount: 2
Fore
SplineSet
305 512 m 0
 391 512 464 439 464 352 c 0
 464 264 391 192 305 192 c 0
 218 192 145 264 145 352 c 0
 145 439 218 512 305 512 c 0
EndSplineSet
EndChar
StartChar: ellipsis
Encoding: 188 8230 120
Width: 1000
Flags: MW
HStem: -12 125<166 196.5 499 529.5 832 862.5>
VStem: 120 122<36 65.5> 453 122<36 65.5> 786 122<36 65.5>
LayerCount: 2
Fore
SplineSet
177 -12 m 0
 141 -12 120 13 120 45 c 0
 120 86 147 113 185 113 c 0
 221 113 242 87 242 57 c 0
 242 15 216 -12 177 -12 c 0
510 -12 m 0
 474 -12 453 13 453 45 c 0
 453 86 480 113 518 113 c 0
 554 113 575 87 575 57 c 0
 575 15 549 -12 510 -12 c 0
843 -12 m 0
 807 -12 786 13 786 45 c 0
 786 86 813 113 851 113 c 0
 887 113 908 87 908 57 c 0
 908 15 882 -12 843 -12 c 0
EndSplineSet
EndChar
StartChar: perthousand
Encoding: 189 8240 121
Width: 1200
Flags: W
HStem: -12 30<607 682 607 709 982 1057> 314 30<245 320 245 347> 324 30<649.5 721 1024.5 1096> 597 34<486 665 486 679 463 665> 650 30<287.5 359> 682 20G<775 775>
VStem: 133 77<414.5 448.5 408.5 490> 391 77<547 551.5 502 585.5> 495 77<88.5 122.5 82.5 164> 753 77<221 255 176 259.5> 870 77<88.5 122.5 82.5 164> 1128 77<221 255 176 259.5>
LayerCount: 2
Fore
SplineSet
1069 324 m 0xab70
 980 324 947 147 947 98 c 0
 947 67 954 18 1010 18 c 0
 1104 18 1128 198 1128 244 c 0
 1128 275 1123 324 1069 324 c 0xab70
1070 354 m 0xa030
 1163 354 1205 293 1205 217 c 0
 1205 135 1159 -12 1009 -12 c 0
 906 -12 870 56 870 121 c 0
 870 207 922 354 1070 354 c 0xa030
694 324 m 0xa0c0
 605 324 572 147 572 98 c 0
 572 67 579 18 635 18 c 0
 729 18 753 198 753 244 c 0
 753 275 748 324 694 324 c 0xa0c0
695 354 m 0xa0c0
 788 354 830 293 830 217 c 0
 830 135 784 -12 634 -12 c 0
 531 -12 495 56 495 121 c 0
 495 207 547 354 695 354 c 0xa0c0
805 678 m 1x0840
 200 -25 l 1
 169 3 l 1
 679 597 l 1
 463 597 l 1x11
 467 582 468 560 468 543 c 0
 468 461 422 314 272 314 c 0
 169 314 133 382 133 447 c 0
 133 533 185 680 333 680 c 0x4b
 385 680 420 659 440 644 c 0
 451 635 460 631 486 631 c 2
 665 631 l 2
 698 633 722 649 750 677 c 2
 775 702 l 1x15
 805 678 l 1x0840
332 650 m 0x4b
 243 650 210 473 210 424 c 0
 210 393 217 344 273 344 c 0
 367 344 391 524 391 570 c 0
 391 601 386 650 332 650 c 0x4b
EndSplineSet
EndChar
StartChar: guilsinglleft
Encoding: 172 8249 106
Width: 277
Flags: W
HStem: 41 394<228 282>
VStem: 106 90 106 196
LayerCount: 2
Fore
SplineSet
282 435 m 1xa0
 302 418 l 1
 200 255 l 2
 193 244 192 233 196 221 c 2
 251 56 l 1
 228 41 l 1
 109 223 l 2
 103 232 105 246 113 254 c 2xc0
 282 435 l 1xa0
EndSplineSet
EndChar
StartChar: guilsinglright
Encoding: 173 8250 107
Width: 277
Flags: W
HStem: 41 394<99 153>
VStem: 79 196 185 90
LayerCount: 2
Fore
SplineSet
99 41 m 1xc0
 79 58 l 1
 181 221 l 2
 188 232 189 243 185 255 c 2
 130 420 l 1
 153 435 l 1
 272 253 l 2
 278 244 276 230 268 222 c 2xa0
 99 41 l 1xc0
EndSplineSet
EndChar
StartChar: fraction
Encoding: 164 8260 98
Width: 100
Flags: W
HStem: 651 20G<404 404> 678 20G<370 370>
VStem: -166 570
LayerCount: 2
Fore
SplineSet
-133 -24 m 1
 -166 6 l 1
 370 698 l 1x60
 404 671 l 1xa0
 -133 -24 l 1
EndSplineSet
EndChar
StartChar: trademark
Encoding: 280 8482 173
Width: 1100
Flags: W
HStem: 277 23<209 425 209 209> 637 55<635 639 635 635 993 997 993 993> 665 27<209.5 246 246 278 356 390 356 356> 669 23<546 546 1129 1129>
VStem: 126 21<591 692> 278 78<339 665> 486 21<591 692> 602 33<405 630 630 637> 997 76<339 630>
LayerCount: 2
Fore
SplineSet
356 665 m 1xaf80
 356 339 l 2
 356 308 359 304 425 300 c 1
 425 277 l 1
 209 277 l 1
 209 300 l 1
 274 304 278 308 278 339 c 2
 278 665 l 1
 246 665 l 2
 173 665 158 654 147 591 c 1
 126 591 l 1
 126 692 l 1
 507 692 l 1
 507 591 l 1
 486 591 l 1
 475 654 460 665 390 665 c 2
 356 665 l 1xaf80
709 277 m 1
 542 277 l 1
 542 300 l 1
 578 303 596 307 599 331 c 0
 601 351 602 373 602 405 c 2
 602 630 l 2
 602 661 599 664 546 669 c 1x9f80
 546 692 l 1
 698 692 l 1
 720 639 746 586 771 532 c 2
 838 390 l 1
 840 390 l 1
 907 533 l 2
 932 586 958 639 980 692 c 1
 1129 692 l 1xaf80
 1129 669 l 1
 1076 664 1073 661 1073 630 c 2x9f80
 1073 339 l 2
 1073 308 1076 304 1129 300 c 1
 1129 277 l 1
 941 277 l 1
 941 300 l 1
 994 304 997 308 997 339 c 2
 997 637 l 1
 993 637 l 1
 826 288 l 1
 805 288 l 1
 639 637 l 1
 635 637 l 1xcf80
 635 405 l 2
 635 373 637 351 639 331 c 0
 642 307 659 304 709 300 c 1
 709 277 l 1
EndSplineSet
EndChar
StartChar: minus
Encoding: 257 8722 150
Width: 570
Flags: MW
HStem: 221 58<93 577 93 577>
VStem: 93 484<221 279 221 279>
LayerCount: 2
Fore
SplineSet
93 221 m 1
 93 279 l 1
 577 279 l 1
 577 221 l 1
 93 221 l 1
EndSplineSet
EndChar
StartChar: fi
Encoding: 174 64257 108
Width: 607
Flags: W
HStem: -242 37<47.5 58 47.5 69> -12 52<434.5 523> 452 38<123 201 112 210 303 412 412 458> 477 20G<609 609> 707 35<410.5 470>
VStem: 403 90
LayerCount: 2
Fore
SplineSet
201 452 m 1xec
 112 452 l 1
 123 490 l 1
 210 490 l 1
 221 527 l 2
 255 642 311 742 461 742 c 0
 571 742 622 683 624 639 c 0
 625 606 594 589 569 589 c 0
 550 589 543 599 539 613 c 0
 523 673 492 707 448 707 c 0
 373 707 341 637 310 516 c 2
 303 490 l 1
 412 490 l 2xec
 504 490 565 498 605 502 c 1
 609 497 l 1xdc
 499 95 l 2
 490 63 489 40 509 40 c 0
 537 40 581 111 599 146 c 1
 623 132 l 1
 589 56 533 -12 462 -12 c 0
 407 -12 394 29 409 86 c 2
 495 406 l 2
 504 440 503 452 461 452 c 2
 296 452 l 1
 203 31 l 2
 161 -161 119 -242 19 -242 c 0
 -28 -242 -71 -217 -72 -184 c 0
 -72 -159 -49 -134 -27 -134 c 0
 -14 -134 -7 -146 0 -156 c 0
 27 -197 42 -205 53 -205 c 0
 63 -205 73 -199 85 -137 c 2
 201 452 l 1xec
EndSplineSet
Ligature2: "'liga' Standard Ligatures in Latin lookup 0 subtable" f i
EndChar
StartChar: fl
Encoding: 175 64258 109
Width: 603
Flags: W
HStem: -242 37<47.5 58 47.5 69> -12 52<443 529> 452 38<122 201 111 209 302 421> 674 20G<575 575> 707 35<411 477.5>
VStem: 413 89
LayerCount: 2
Fore
SplineSet
575 694 m 1
 649 742 l 1
 663 733 l 1
 507 94 l 2
 499 61 499 40 517 40 c 0
 541 40 586 101 609 146 c 1
 633 132 l 1
 601 57 540 -12 470 -12 c 0
 416 -12 404 29 418 86 c 2
 546 610 l 1
 537 662 507 707 448 707 c 0
 374 707 340 637 309 516 c 2
 302 490 l 1
 431 490 l 1
 421 452 l 1
 296 452 l 1
 203 31 l 2
 161 -161 119 -242 19 -242 c 0
 -28 -242 -71 -217 -72 -184 c 0
 -72 -159 -49 -134 -27 -134 c 0
 -14 -134 -7 -146 0 -156 c 0
 27 -197 42 -205 53 -205 c 0
 63 -205 73 -199 85 -137 c 2
 201 452 l 1
 111 452 l 1
 122 490 l 1
 209 490 l 1
 220 527 l 2
 253 637 316 742 459 742 c 0xec
 509 742 551 722 575 694 c 1
EndSplineSet
Ligature2: "'liga' Standard Ligatures in Latin lookup 0 subtable" f l
EndChar
